<mxfile host="app.diagrams.net" modified="2022-09-01T09:33:04.465Z" agent="5.0 (Windows NT 10.0; Win64; x64) AppleWebKit/537.36 (KHTML, like Gecko) Chrome/104.0.0.0 Safari/537.36" etag="8t-lAIaU9eTAmrauqMp2" version="20.2.7" type="github">
  <diagram id="ErCwi968BkKIkxXVaGPv" name="第 1 页">
    <mxGraphModel dx="1422" dy="754" grid="1" gridSize="10" guides="1" tooltips="1" connect="1" arrows="1" fold="1" page="1" pageScale="1" pageWidth="827" pageHeight="1169" math="0" shadow="0">
      <root>
        <mxCell id="0" />
        <mxCell id="1" parent="0" />
        <mxCell id="Ze7vVeaUs0xb_e6l4rN9-1" value="" style="rounded=1;whiteSpace=wrap;html=1;fillColor=#E8F8FF;" vertex="1" parent="1">
          <mxGeometry x="450" y="260" width="480" height="370" as="geometry" />
        </mxCell>
        <mxCell id="tHJEwBymKxjTPnQwL3kc-19" value="" style="rounded=0;whiteSpace=wrap;html=1;fontFamily=Lucida Console;fontSize=12;labelBackgroundColor=#D6FFEF;fontColor=none;noLabel=1;fillColor=#D6ECFF;" parent="1" vertex="1">
          <mxGeometry x="470" y="440" width="450" height="160" as="geometry" />
        </mxCell>
        <mxCell id="tHJEwBymKxjTPnQwL3kc-8" value="" style="rounded=1;whiteSpace=wrap;html=1;labelBackgroundColor=#050717;fillColor=#F5FFF5;" parent="1" vertex="1">
          <mxGeometry x="20" y="150" width="360" height="340" as="geometry" />
        </mxCell>
        <mxCell id="tHJEwBymKxjTPnQwL3kc-5" value="" style="shape=image;verticalLabelPosition=bottom;labelBackgroundColor=default;verticalAlign=top;aspect=fixed;imageAspect=0;image=data:image/png,iVBORw0KGgoAAAANSUhEUgAAAPsAAAEBCAYAAAC+DNNtAAAACXBIWXMAAAsSAAALEgHS3X78AAAgAElEQVR42u19W2wjWXreX8U7RYmkrs2+iZrW9HjGnm7Nw3qQxIA4GyD2AA2PJgkQxH4Q209BAKM1CRDkJRg28pQHY9Twg/0SNBU4DhB4d9iBgHUWaw+1DmK3Z+OhZu3ZnR51i2q1mi2KEq9i8VZVeeCp7tOlqiKLLIpF8v8AYaaLVadOnfN/57+cc/7DiKIICIReLARmlwDABwAhckn6bxAA5nUWtw0AOfKXoP6b3E2lk9jaxoBBsiPaJHYIAJbI381zrsIWIX8CAOI4ACDZEcaTW/rzmqyKewAQl/6Q/Eh2hD6CrxBir3Rghvcb2wAQA4DYbiqdwN5EsiOUNXiY/HmH5LO2ASBKiI8aH8k+0gT3Ee291mvfe9xpO7RZmIrSb+U6P1Gp8f4ef+4DAIjuptIx7Hkk+yiRPEgIbogWd9ot2TG7tTzvtTc8NmbiqpvxAwAsuvTLEycwcFBt/v+3BeGw3BAbqWKtkefqs7wgugzy8dcJ8XNIdsQwkzwCAKudlmFhGe7ChDNzzWfzXHUz/k4I3SmkgeDbgnD4JFdrHJeql7ooLk9Ivz6KpEeyI8kVMeVxHPzqtMN93cP4LzvMJSM7HANfZ/nMbrbKFyv1OSQ9kn2UffIIANzR++wln2v/xrRt+sY443KxgyEXx3UGtgtiNnHI8QWuPt0B6SO7qfQ6kh0xaERfI0Rv2yd32a357110C//Iz/gHheBaxN864jP/cHg6ptPX3wOA8G4qHUeyI8xO8iVoTje1HV1/Y9q9/49nbVfO0/8+TzzMA/ezw2rhqFjVY+Y/AIC1YZ2yQ7KPkMluYRnujSl34bcC1rkp22j0+w7HwFaq9mI/y10YddMeyT4i2vz9K+P50DTrHXRTvVP81yd1PYQHaK7HDw+TlkeyDybRIwDwaTv3vjkzdjiMmnyHY9q+l+MBYt8VyrwgunW+Jk8IH0OyI86b5EGizZdb3TvutB3+q0X3nNmmzYzAn+7zJ4/Sp5Pn+Mp7u6n02qC3mxUpZEpCh+DVdtIgdLAx5c0pZ2UYiQ4AcM5EBwC4sxCYDQHAyiCb9Uh28xB8DQzccbZzUhk7nnLDqATizgE3ASCxEJgdWLMezfj+kjwMzbXqy716xyWfa/+Di/ahmmKL/L9Cv6twdzeVjqBmR7RL8gicw77xgxx35U9yHMyMOw5/84pzbhhI73XbTvLl+mQfqxBCzY5oRfIlaK7JXu5XHa76XZmPrtinB9m85wQG/vJIOORFqMhdlxZLZh9AM7VVt0gMoimPZD8/okegzekyOSwsw3ldtrT8eqdbQC0sU/5nb4wz73vBNUxtzAkM/NEvyxkVwm/sptLhUZZBJHvvSe6DZsqktrX5JZ9rX8920h2O6WgL6PXZsZOPL1knO1low4sANV6Er4oM9+MnhZeDhpVlKuF3Jpz9mgn4Xy/Evb87KCq5Rx8M+9p39Nn7b7ZHoY1VbhMuW+afXHKNkR1nV5pX2yPMokuERRczB3MO4AQn/HVWzH75vMxytYbmhphH6dPJPy7ZTv7NW+6WhK/yIlR4ESoNEWoNERqCCEcNgB8nyy5gXi1waQii8/Nk5eD333JcQglAso8S0ePQYgcaFTib1kNwNbhYEb4/Bf7vT7nhYR64+NNyTYv0+XJ98o+/LSsSvtwQ4bQmQIWQ+8wAZQEQBAFYi+W167lybRLAgUKAZEeiS+bub785IdzwiHPdElwN73vB9f67blf8GCp/9bQoqC0XpQkPggClmgDlhgiCoF0vBwPAskwFAJyvmfiC6HpWZaAfpvxevoYyrQIWm6AnProm0a/6XZl/f3PCecOje612RwhNgfPf/tqE2+u2nWhp+D/8+0Jur9iAUk1oSXQJ4w6rYqaXn+eFvBF1f1ZlYIdj4Lje3lp4URQbKIVIdlMQPRScqPzeG7bp8959NmUT4ZO3XZPXZ8dUCV+ui76/eFHN6vpmr01xwPr6kDOk3n/yqAR/8k0e/vDrPHz2Cw5+XmJQ0JDspsA6aATjPlyc4EJTr5u8543fuWKZ/HBxQpWJR6e8/2+yfKnd8q6NsROCIJy5ztUa3od56JrxDitLWx/wg2/z8GW+I8InkewIo7T6Cmgkd/xwcYIzy7z2+15wqRKeYeAXR5znqE1jeMIC4HNZMkq/xZ+Wa93WdXbMfubaXzwtAScwKtYJP6F0HQ+MQLIbab5HB4HoNOFvBDyKJGUtFvjLg8pJu2W95bePg8J6Da7W8MaPodJNPW9Mno23VWo87JSV7z+HgycGFhi5NAYRNT/9RsCTed8L050U+jAP3CEnppV+C3rYmW4DfP/8IjudPnXmXhQqvjOkqQuTiQJfW5qw2FuV884Y6/iKhWJDhHH5b3/1tCi+75+ATmMU73pE+PaCB/7+xeueRYoT4V1P28XkUUSR7EZo9SCo5IBz2a35Dy9YpjuZWvtRWsw/3C96QWWzzN8BALzlLXdL+NVrDt8fbFcrDUF0ys357XRFeHt8DBxtuMjvzTntX6YqQC+wAWhOw/2PZC3ze2/Ypjut47+8xMK8xwv/53kZ8uW66n0aEXs87BHJbphWV8S/WBzrKOfbcZ2Bh/uFlumgkyXh6IaH6WrnnIsV4bffnBB++K2C8mNYZyLPl973WVrq0HfGWMe3TjZTqIpnSP00y00/zNu6cmW+5xXhe14XgEYRWZx0Q5+9x1pdMSj35szYYafbSf/bTvnkPL/jhkd0z4w7DpV++2Wm0rZC+I0LzmmB5xV/+/GTotjuXHmn4Hj1cRGlFcneLcKKjcowp78VsHZyLBH86T7fl73av3nFqVJfxvnNqVBtp4wZK8A7s66SUrCOF0R3rwex3ZKwh2RHsp8r2a9Nu0ud7Bd/mAeuD/nVAKC5mUZRuzMMPCk02ibp+z6Lx2ljFe/Pl+uTP3wuZPrweTkUVSR7Nyb8EqgEzzrR6g/zwP1op9DX6Tk17Z4uVANVHWPXmJ1VtQS+TpWmvy4x5V7UX2NdPAbokOxdYUXRlB13HOrV6j98LmT6TXRJuzvtljPLZS1WKzwut2fKP6uKkCnVfVr3PPiuwPTCf8d18Uj2XiGkdPHtKYe93QI4gYE/elTNfJ0qTZvlo65PuRTDXM9KvKYpX+ABYs8q2Z/sc8CwrObAxQuiqxf++8lpTdHSGvWkFUj27qGYeebmBNPWCq6HeeD+YLtQOSxWVYnOsAx39doiOJzKkfJe4Ibfolifo9O6KoG/ORWqP3xyyuWrop9h2tPY+XJ98kdpERe7nCNwnr1zf/0MnHZLdsom+luRvFVCCYnob77zrsvhcgNXLleOUs/PzZRXQq0hKJrmPz3hs4+PK36W1a83Hu4Xve96vYbse9c4DmoLJRbJ3g2CShdtLFtT9mMZ+HleyG8flgWydlvTzLXabPk33nrb63C5+/Jx407bYbFSfy1Yx7IsPKuKcJlaTveTdC1/UGh0RHQJ//NxOfPv3nFNo0gh2c2KsNLFYqU+96f79pN3/dbJ3ZKwd3jaYI/LNQ8huLedgt0eT2bh+tvT8lRP54kZj61WrMiWpcrM85+e8NmDQsMP2mb7HjSTbcahudLwzPbfAlef/lHamf9wlvF2U+enZTELAEpWFfrrSHbdpnsIXp3B9pHafY/Sp5OPmltXdC9jnbt0OT978XLftZzPYRGUrj85FbKXHRb/N6dCtYXpfuaM84XAbByai1vOkPpnByXbr/snujqqqlQXCypkRyDZW5I7CM3ptRXo8aEODqczM794fdrhcnvN3CZPTqr+F0Umd1oTfBpE3waFAxB3U+kcOQnnc/kDvCC6/zzVOPzdq5a5Tut2eNpQqxBqdiS7KsnD0OPz12jf/OKVq3bv1MxA+KwMwwDXgFZED+2m0oor1nZT6dhCYPaBkmX03dHp3HHA27F25+q8gNKLZG+H4D5onqK61q5v3Q3cY2OH03MXJrxTM94hakZNolNYU3ODutHuGhlqULMj2V8SPXIeJHeNuQ/8UzPuCf+U32a36xLoWrVi9vUQeWK6t1yDvptKJxcCs3dB4Sis745O57jL3o4SXWCGGiS7FslD0Ewl1dV+cKfbvafgg7N2h1NwuVyzNofT5faMAwB0fEJKtVIxu4ka1pnjbV1tgP3rrJj9/pRhgbY9pPgIk52Y7BFQyS6j2lBWa3ZsYqI05hn3uMY8fkJggHM4drlSLs+buEkf6D3RlATrokp9kDjk+O9P6dsmoLGgJokUH1Gyk5VvsXYJarVas76paX5yZnba4XL7oQ9TO+VS0ezme7jDZ9eVyF7g6tPHdTcM8pHSSPb+Ez0MAPfbudc9NnYYuBqcc3vG++4H5k+OMwBg1mj9ejt+uobvvg0KC212yiI3ZUw2XtzaOmpkXwjMrrdjtlMknzNL3XPHGYtJmzVPtHM3iCuR/ZAT0+BtP7eexuo5TFpBgR0BokdbEd1qs+Wvvf2rcO2dd+coX7zvKJeK0Gg0zBpl7liry8h+BnoPZySr5xCjrNkJ0Ve17pmeu5CZu3Slr2vR1ZB6mjwEgDmTNm+0V2Y2JqFAzd6J6a5KdIZluOD1t8qBq0FTEr1cKkL59NSsRN8w4jgltTLUklAgULMrET2sZbr3ewvpEGj1GFIHyW4GoodAI+rucDlPFt9+d9KM2vylZku/qJhYq+f1zqv3Grkqz+pxE9CMHw6i+7S0ziAQvcqV4fnTPTOvmDOa6IqZZPScw/68UFU7sQaj8UPss0dBZY27w+nMmJ3oAs/Dk29/kRdF0T1CZFfUvj99Xmkr797DPHAa6+JRsw8j2cn56Iq7qRiW4eYXr0+bneg7v/j5SaNe7/tOOA2zGMD4/eGK5R0Vq3MP88BpPfisysCPn6iuMNw2YGoQyW5S8z2q9vsbb73jMnMwTiJ6latMmqE+Oa4hnBeBiP+vuGHlRzsFVywlFDnhrEn/dYkp3/+mwPGCqLbSbh3p/TqGJUAXUTPf5y5dzrs946bdN16v1WD30TemIXonWtig/lMMqiael8Z//oLhLkw4M3NjVqHKi9bHJ5y7xZbWvd1UOor0HjKya52P7nA6M2bI6aaGYj5b3tt5xIiCOKml9VmWBWCYc6uXWiKIXpF9N5WOkulSxexAvCC6DnLclYP2bYowUns4zfiI2g+XF66Zkuj1Wg2S3/0yk3z0rVtUN0PBZYXc77zpgZmxs0cy9RJ9CnitQDPbTbe4jdlphpDsxFdXXCXnm5o6NNM6d4nk+0++O/zl9t9BMZfTHIhcVsh9dNXlczAAfqeNO686KvnHlAZO9uq9JBYQ6pLwt9F8H14zfk3thwuX5+fMQvByMc+dZI4ypULhCrRaFSeKMDNmyf7TCw6/gzn/+h6oH9/Y85NVSFKLEOhPLrIHzWw5qNGHmOxhNa2uN8+bHgiCAILQDFifFgtQq1YqtWr1iGVZQTrrrFTIWevVmpvsWnMBwJV2yn1nxll632cx4063c5nGIhp+jextiBDzXi3Aug3N3XeozYeZ7EQDzPdaqzcaDeB5HnieB0EQgOd5KBcLUMgep7hSKWCxWAAYxtkOmTU7ghGLy1fd45cdjKef7fptQVBbk3+uC1SIyxAmfb0EAD5i5ifIwJPAefTR0eyKWt09NtaVVhdFgHq9Do1GHer1149AqpRPIZM6OBEajUlgmIDF2n3zCTwP78y6Sktey3g/zHY5eBEq/dTsKsSXBho000eU7CGli9NzFyY61eD1eg1qtbri7ydHh6XCccbDsuykEdNgAs/DZZ8j8/6Ua3rCAh6zNKpG4ghceopk74sJv6Rmwo/7Jl16SV6tVqDR4FXvSR/s5yuloreb00qbVoMINhZyi5MO69vjFs+ExXy55TQSR6DJjGQ3j1b3TEzssxZLW74zz/NQqXCaJAcAOH7xPFspFf2daHNBEIBloDLusOYujtts1zzs1IwVfGZuWLXEEZQpjUCynyuWlC5O+PxtmcPVahUqlUrL+8rFQqWYy+o/f1wUKr9x0e2ccTAwYQEnAFwYcDnJI1WQ7KYiu2vM49c2UQFOT0vA83xbLzlKHdRZlnXqrdz3Ai7mmpsZuEbVOGwBtfoQYFBX0N1Uuqi1Yo7neSgWC20TvZjPVhlRVCtwGwAeqD1bqEPpPBqhyovnNVijv45kP3+QjS9nTRSrNatF9NPTUxDF9k8ZOTl8UVPx0/egeVrpCgDcVhwoaryhx5nUBFFxI36qWDM0CyuZY0fNjmQ3DZTJbrcXjCJ6o14DURDUtHqYWsyRVNTsVaFi5Adnyg3F+cA8V5818j1mnGNHoBl/Bg6nk1X20fURHQCAK59WVYJy27L114oar1RtGDqlli/XLiuSUxBdz6rGxQZwjh3JPhCwO5xnsquUyyXdRAcAaNRqxyo/vZZ/TW25piCITqO+63FZBItGOq1HJdGw7a+1hmBFzY5kNxNCbQlurdZyDl0NVa6spi7jCtfO7AZjWRaeVY1x2x8XGymtOf4vn5cN68Nipa64zBjn2JHspoUoQlvz6GoQBF7PKHFW6zEMVPnuv6MqAqSKNc3pRK7W8GpMmbXvuqjvY99DmiDZ+4WWJmWtVu3IfH/l/7ttKj8F2/Vn01XxefcmvFAFpvU8//9N1/e7fZfGPvYk0gTJ3i+0NCmr1Wp3jWKx8DpcCMX6HFcaXavbrw4rtXbue5IpXzmud/e645rIIdmR7AOBUiFnbWr1eldavanZXRdVflohqbBaWhrVhtiVIf+sKkJdgLbzav15qnHYzfsOOTGNZEeyD4qf3gAA4Pl612U53WPANxTXq3hBluBSLRWS2nRZu/jyqJphdGy++e7odK4b7Y7npSHZTQc1clXK5fkm2bs/Jo21WMDl8aRUfr5D0h6/xm35TQzDQKcB+QIPkON43XP1f5sVOt6wonEwBE67Idn7CkWhrtdqba99bwXf9GxAwx24vxCYjQC8PHZKccA4qnXG9ofH9YzKop48NKf6FCPkPzso2bWyw2pBI1c8anYke1+hKIBV7tSwFzjdY2BzODIat3y6EJhNAsDnoJIQMVMVanrfWxUBnhdqalt113dT6RCorDXgBdEVz3Sm3dVyxWOeNyR7v6FoyhdyuQMjXzJ94dK0IAhaOdvntZ7/6gVn/+ZUqBZ0GBvfFIWCxnTbOiFgEgA2lG7YPizr9mM0fP1tpAiS3ZSaPX9ybOjpjXanE6YCF1kpbXQnvv+XL6qOHzw5hf/+pJz76QmfbUX8bzIVNeZtyLTsupqGbnX6qRxZ9b1zqNWR7ObU7I1Gw1+vGrrhDMa9fsdU4GJV6CIWwLIsNETGt5ut+X/w5BQ+f1bJKC2nbTHdti4zrxOgcnDDzw6rBV2aXX2OHf11JHt/QTTclrIpf2L4uWjjXr/j4sIiiABF6HIOn2VZKFTF6Z/scxB7VnlN03+Ta6RUptu2VNanK2r3o2JV1zScxhw7anYkuykQUyR7NuvqxcvsTifMX3973DM5VRIBct2SnmEYyFdF/w8el+CnJ3x2M1VLHRRqAZXboyqDnurZ5ltHfKbduuAcO5Ld7FAkgIVhnMV8ttqrl07OzHnmr7/tm754GcYmvIdWu+2ZCJATeB5e/unw8VmLBXazNf9xmQ9oTLfFNIpQ1O6PjjlL22THOfaRwMAeEkEOAXwAAB/JVCacHL6ojXv9jl6+3z0+Ae7xCcUtoY16DRr1OnCnpePTQp5p1OuTXeScj7WY/ooBwGfyi5Ua739WZeCyo7UFUudV998nkSKo2c0CRa3GiOJ4L7V7yxHUZgenewz8M3NTl69dn7x87U3w+CdLvNBRuqpYi0EvCSrJL//2uD1TXmMfO5IdyW4a7R5X9FmJdhcMWk1nBPknZ+Y882/+itPjnyzpqFee+OUdDQh6THkF4D52JLvpEFHU7gDjuZNMyVSNbbHA5Myc5/LidbDa7dk2gnyxNotWvK9S4/2tovIaiS9QqyPZTafdo6Cy0quQOfLUKhXT1dlqs8PF4DX/mNeXbRHMW1FLnS2PX4DKVOR2oeMcdRicQ7KbEmtqmjR98PTELOa8HFMXLvqnAherGoT3AkBMYQ+9EuJKF5+VGprWzdOy6mCA025IdtP67opBKoHnJzMvnpv2rLKXK/TUCX9TzVVph+zPC1XN8+9KdbGANECyDxrCoLL1tVIqek+ODksDTPg7C4HZUBsDnqLfrrXtVeMIKdTsSHbTavccIfxZMAwUjjOefk7HtUN4/+xcTSNoF22jGEW/XSOZpNYRUuizI9lNTfgYqGz9ZFkWjlPPHSYnvJ0XRbX6zbdRhKI21jjDTQtIdiS76QkfBpXovET4/EmmZsa6Z148z1tYVm3l34NOyX5c4VW/t8DhwRBI9sFGCFQWhbAsC/mjtD19sG+qoF36YD9fKRW9Kj/nQWXGQYakoopWX/sODQOPqkIg2fvlv6+ASsAOGAYqpaJ3//GjXKNeMw/R1bPJrrW5dBW1MWLkNLtkhoa0CC/yvO/Z4++4fpr1bRB9gywcaneQMwRtzu0jkOwDQvimWe/KH6Xtz5OPM5Xy6bnVrVGvwf7jR7kWRN9u03yXCBrSW4/JMfuehiuEQLIPHOGXQCt5IsNAo1abPtzfg/MgfTGfre4//q4i8rwPtA+CCOnU1opprX0uq2o/B8btavPsa0gPJPsgEj5JNJVmRJuRkb6Yz1aNXGpbKZ/C8+TjTPZFymFhWx7YuKeH6MTsDiv99pbPqnrgxK94LZdUflruxFJAINnNQPjcbiq9AgCfaJn1NOmzhy8ce99+Ay+e7qaK+Wy1k2CewPNQzGerzx4/Ojnc34NGrTYN7R3rNK+TbGugkr/+xjijmqrrXY8ITrtFbX18BCkyPGC6PQRxEEF2kkUBYFkXcQUBWJY9sdptNdfYuAAADteYZ0p+X7XCFRq1GsedFtlGrT7DWjreVv6ADFDtfFNOiexvzowd/u5Vy5zWsz9Ki/mH+6rTfu/hnDuSfRhIH4Zmthuviavpb2XOEwvgC6Xffv+GF6Zsrfv4v/y8nOdqDaV2uLebSqP/jmb8wJv2UQAIAsDdVqZ9r+B2WIsaZjRAM7jYCorm/iWfa78dogMAhK667V28H4FkHxhfPkJI/wmcUzomK8tUPlyc4P7Dr7nH/+O7Y/4rftcLlVuDbRSnOCd+Y9rW9kmwi25Vvx7JPiSwYhO8Ij0x6deJWRyG5lSWoSa+y27Nh6667TfGGZeLfaV1Z9zW6n62Y7IrEnLKzrgA2tPsGhaAF6UDyT7MxI8DSQZBiC/9LXdSntNuyV6fcvG/PmWZvuwQCXleJ5fGvvJ2pt+SSnXjdMwaaux5z6NEINlHjviE/EGibSU/eQWa2WQUQQJkfiWC09g5LqsdSplok+xn8NVxff9dj/VKO9+5U1b9CSPxSPaRJX+SkEvS/OuEEGf2m0+4bJkpm9jSb/6HUjOjjMo5b+2QTfGevRNu6vjiRFvR+J8+rxwCwBySfXjBYhMY4usrpnLOl2vTu2Xt53N1gNh3hYIK0bfbXEUXV7rIC6L7z3bLx60e/vMXjepRoTKnp2wEkn1UoXwyDcPA50+KmXxNeTt5uSHC/z6oFOsCTOgpV2XAUczQ87xQm/qbTAPqwlntzosA+6cC/M2zkqiyqm+vzUMqEEj2kTLtFcmW4/jpbws87BcacFTmIVsR4LjS/PdhqQHfnVTVwmh77W5tJYioDThfHlVTzwoNSJ0235+tCHBY5uFZsQFf5+pVYFTX6Uewd5HsiLNYA4XINcuy8LgkHDcEEUo1AXIVHgoVARqCCEcNgLoAavvGwx0MOHeVfksXqoGqCFCpN9+fq/BQrgkgCCL88qSutqBnS+dgg0Cyj5Tvrmh2Py/W60rXH5eEYxVffUstNXSLOkSUBhyLxQJHNeUgXa5cu4BaHcmO0A9FTZhVIVSGa9T0lNMmYgq2PDzjxDOBuqNG89QcFRcijt2JZEdom9JnG1llS2u1Iar568kuqqH4rCjCmRTVVV4EFcsiib2JZEe0xpYBg0Y3WtUIjYxz60h2xIgAD4hAsiMQCCQ7AoFAsiMQCCQ7AoFAsiMQCCQ7AoFAsiMQCCQ7AoFkRyAQSHaEfnR91LEJjksOYjci2RGtcdOAMrrJ1R7SdbfyiUBIdiQ7ooVGViSp22E9Uro+7bbaekB2RaJ67XDmTLrLDgYEQTD6/Qgk+0ggrHSxXG3MFBQ2sz7LV916ymnT/Fc8CPLglC+eeX9VBIZVFAHvQmB2BbtzuDDSBzsarNWDALCr9ruVEXOXvY6q1wZ+jmcyTws1Z6UuTGoc33xbb1ooktb6jtJvgiCA12l9EfDYBJdFnM7XIbtfqNl4ASZVitsDgCU9Z8QjkOyjQvY4dHhijAryABBsl2xaJ7l2gbsk1RUCzXgERbRlg4v1QjOJZbvoBSnXTDAzgECym99XP69yiQux3IP3e9ViAAgk+6iiV4SYV4vwn9P7AcmOZEe80qo+UDnWWOB5EAFyqnERUQReECq8IFQ0XhFsoxpBtfJFgBwvCBWV+XQQBAFEgKJG7CaIvTwcwIMdu4ei5hUBcpcXr/usNruvVqkAVy4VBJ4vUbc4XGOeKad7zCnwPKSf7x/VOG5GpfxYJ3XwTE7VJmfmfAAAlfIpcKelY4BXWWatdvuUyz3msNrs45XyKbx4mgT27FTcTexiJDtCAza7rWS12X0AAHanE+xO5wSA8plurMUCDqerXuM4Q+vgHvPYpf93usfA6R6bUrvX6R5TW02HQDMegUAg2REIBJJ9VCDwvEPn/ZYe1KEn9yLQZ0fQ5GnwM+mD/fyEf9Lb6t5qhasVc9k5ljV27D082K/MXbriVDnP7TUcpQ5yrMWCC2iQ7AjdYBionJa8ldNSO3fbjSY6AICFZZ2Z1EG7tyPR0YxHIBBIdgQCgWRHIBBI9mFDEprbUXuFhEH3dIpt7OLhAO5nNwBks0ovNowkdlPpWJt1WIPeBNnWMYEFkh2BQKAZjxtVczsAABHWSURBVEAgkOwIBALJjkAgkOwIBALJjkAgkOwIBALJjkAg2REIBJIdgUAg2REIBJIdgUAg2REIBJIdgUAg2REIBJIdgUAg2REIJDsCgUCyIxAIJDsCgUCyIxAIJDsCgegXTHXW20JgNqRwOYGpjBGI7tG3VNILgdkgNHOth8hfq9NOt6B5GEJ0N5VO6HyX9I52Ed1NpZMqZUWMKKeNtgl3+54OylFDUvrr5Hva/OYwAAT7xIP4biod71HbKbVjXxSYtQ8kD5NGXNb56DL5u7MQmN0DgAgAxNpstBAAfKqn80mnKEFPOXoHGQlBg+qrt5x2+k8aeGOEJEadRtOJTBhK+F63nawd98g747updHSofPaFwGxoITCbAID7BnTqPCknsRCYXQHzYpmc1DJsWAaAzwDgq4XAbGIhMBteCMzikc/6ZXgVAO4vBGZzC4HZSK/bkD0noq8DwBcAcLMHDfb5QmA2amJhixCTcFhxkwy8SWK1IfTDS6yIZC+VF9tjkvuINr/T48ZaBYC4SQnvBYDoiAjs/YXAbHzIB7det+HnRDkODtkJ8eI90OZaGsashB9Wc17NxE+ozKwg2sOdXhCeHRKiDwLhIyPk13oB4As067sm/IrpyU7M1pt9aiSzzsuPijlP4z5q+O54ZKSCMJzsxFz9qE+Ns72bSptZm3xk8tmDXiCGPnxXCmLNlGQno1CkX0SHzua0B3q0HhCBjSJvO4ZhZDd6Uc06tF4J1wpb1P8HoTm91hbRB2RZrST8o6ThlxcCs2GDF49sGVhW0oAy9jTKWeqCF96FwOzKbiodMw3Ziam22kVDRUBhRRwpN6JR9iAR/TVz3ogONBh3d1PpiKz9Q2TQDZEBqlOhjRip4XdTabNZcVF52+mUYy2EoLli0TRmfKe+8gMAWNpNpaNKhN1NpZPED3+PEJtGfgCJPlDm/G4qHSd9Eyakv9dhUfOjHJ2n5PiDDh5fMpvP3klHPthNpVfaIStZgx2iCD/IRB9IX3Y3lc7tptJrRGDz56gQhon0cQC4O7BkXwjMLrXpW8tN97BeYSOE3yJETwx43w9kdJ4IbCfEXcY19E2rrgPFYBrN3onARjrRykS7DAPRB8qcV+iHWIcm/cqoM51sE9477/caRXa9wZK989rWh+Z8TxHpwJwPYZcDgDEzAH0hu94tqzHs66Ew53Md9GUQu7s/7dD11FuHJiiSXdmcDw5gwDEG+qaTDElQsRCYNSLF0l2t6bJegUzD6YlxGWLyG6HZdUcK5SmAEANtziew63Qj3I827kd22W3s6+Ex5zvMsTeyfjtZa6A33VV8UMmOmWJbmPMAMGjReRzA2zDdSbLS+/1ye41YLhvCrtT0tfSuP/BCc4/BIAEHcICwhsUS7EAOJGwZldHXin3Ucy0dAv1BqXlsuoHDfI/6LWJUQUaY8UnsZ+0RHzpbWopAPDAymN0Pso/UckligkWG/DP1Wi5o9rfGNhi8l6AfAbqbo9Zru6n0Ohi7/9o06GSdxRAtde4l0VeMXnNhhM+e7EBAlkaww8PQnC/1Dtl3hfr03q1+yO45fddKLxZXdU323VQ6SY4E0isgI0V20k4RaJ6kMkxY6QNJzZi8olvkAWC9lyv6jDLj9c6zrsEIYtjMeWLC6yU7mvAqll+vl+4aRfa4zvvnR3gVVRiGJzq/1oFbEkdeKyLS6xf0i+wAXSwcIWe7RQfVnIchiM6ThCWfnpOsDAL2iNUm/endvHKz12m7jCR7voOPi3ZCdGjuslodYMIPtDlPiN4JaTcGOI1YK0RJUpUQiSd0ssdhvZeJTFiDhLeTfc2gh7DkkMg4vL6dcmAJDwOYj430QQQAvoLOZhWiMCIgs00bOh8z9FCIXmn2bjpylZzxvdJCwJKgvHhjIAlPzPm7A0Dw4EJgdoW0cbJD0x2gucZ71Pz1SAcW76e9OkHHaqDwxhcCs1vQWXKCm9A8qjYPzWhtEpqbB3zQ3iKc1YXAbLIfiQi6bLMIGeTMstDo04XA7Kc9FHwjByEjB44EyZpr+IBOTmPV26br0INcfdYedOgXXTzvJYPFcoeCmhzA3HZhYhYPMx70QKsvD8i3r4P+WYuPFgKzIaPbzNDlsqRy9/rYsPcH7SAC4tvdHWKi604ZPmS+e65Dq2YgzmePQH+TGdwn0eKBMudhOBNA5KFHSz8HrH/XwQRTcWwPPiwH/V04sjGg6+7DQ0j0EG566SpmETH1+eyUaRrqA+E3TH4++6iY80j0s/0bBf1rK+bBrOez95nwA0v0ITPntwAgiEQ3TLuvGTUVx/ZYeBPQTDXdSwHOA8DtQSf6EJjzewDwMVlBhskplPkQh+apxXrgBYOmLdlz+MDkbiq9RExUo7X8FpDjnodIIAbNnN8mg23QhOfNmxGdmOWrRmwcY89RiCPQXChjBOm3AOADokWSQ6gBItCHg/90tv8nAPDebiq9hOf26VN+oH8ZbacuwGuwnvOHSnOO0sqxFeLXt8rKKa2siwFArAOCx3Xer1X+3R6+l4bUPt3UN2mglRAHgFwPffEo9G9HXNKAttNT9zXoLMNTsBvlxoiiCGaAhpmSQB8QgegepiE7AoHoLVhsAgQCyY5AIJDsCAQCyY5AIJDsCAQCyY5AIJDsCAQCyY5AIJDsCATidZzr2viNW4tL8Op89uTq5k6y3w2wcWvRB81tuC/rROoJq5s7iR6/e41qj/jq5k68y/rD6uZOfOPWYhCam44Sq5s7Q73UmHz/2urmTmQIviUCAOu96jPrOX3ECjQT6M3Lrt9b3dxZ62Pjhkm9vNS1B9DcnBOHHqTzlYE+0TXZgZBHAOCO7Po2AOSgmX3VPwIKKwYAyxu3FpOrmztRA2UjBgAfqfz8gAwwSQPfF4XmAShB6FFOA/acCPU5IfpdIoDvQXMf9J2NW4vrfSJ6CADuk39+QOp1j3SwF6hdTBu3Ftc3bi3GiSY2DKubOwz1z7hOoscJ0bcB4GNS/0+gmYN+GQC2h12rU4PkA5roG7cWw6S/upGtCLy+6+0D0r55IiNG792Pk75cM0i+V0gbxM5FsxNzUiLUXcrUSpBB4CtC+EgfBFMaPaOU+bxGBoGbMvJJ2nPN4PaRLIc9nVoiQuqYB4AQ1XbrxAVZhRE5LXV1c0dJC66R9ol2Ua4kowAAW0RG4mSg/RQMPtiDDFZRA4tcIYP+3TNkl3wf8hcjpuAdiaREiOLk+hIxN6Lkoz9e3dyJqQglAEBe7lORxpT+ubRxazFHyk8SM5o2UTekTqXM1zBlfn+yurmzTpnlidXNnRBVZyCkoH3woET6jVuLcar+6wAQJvVbJ3UBikwAACurmzs5MjBESHtIFgwAwIJEXmINRKi60q5LiDJFJfJHiYkY1RhApXZRGiRjNNkVXKgtqv5hMhhvrG7uhKn356g4QIwIzW2pTtRz91Y3d9aodk9S3xQnskE/t07qTvfnEhn0YXVzhyHfFyexjCVSF7U6SC6YJKNh0g83qcE7DAD/CQD+s0IZEULcDZVBI6Rgdflk/bEu44lkjt9e3dyJEnmNUi5Bnu5fNRlVkfOXCpM8tw6vDsvYI/UNUjIJALBC5DTKiKJIv9BLTJUVqpCPVzd3Yhu3FpPkQ73E3A1RvmEeAJbk2mnj1qIoJ6vK7x+QBpHK3yNl56h6LJB/S0L0Cfn3fen90ExwAZIAkIErQcrYW93cCcq06udUdfYIeaIyF0TSEltSp5BOXafM6HXKgnn5Htk9Yapz3iODSUIaLKlOkgKFSxpBPcnX92tZRBQp86S/QuTZLVKfXfKb1O8RQtibxC8NyvrgPdJH9Kk/0nM5MqDIn8tTyiFGlS8N0BLhtsgAHSf3e0lZPnj9GLD3SNkJqizp2TCR3Y9If0p9OQcA/1oijeQ+Ue1/Wz64ErJlJfkkgU+67e8ReficasMN8n4v6fMQJa93JUVE2mmB+g5J7rdXN3eWKDftjJyvbu74ZAPECmmvz8g74qRvpQNQJc0eZSlt5iWkXKeEDgjRl2RmbFjSnhS55IK2pOWPktFGwiL5oDA1eoZkAbIgTTxST7r8EOn8KFXXCKik8yGa/Da8SpE1DwD3ibDRphVQ5n6EEJ3WrtIovUF/K/m+O5Sp/TL5JiG6/By7CPmGNZk1IYekWbZbEN0Hr04VWSPvl75nmbxji/I9JS1CWx1J0sd5mXn4AF6lRY6Qa/RzSrKxAq+fcpKUuVP0LEKEKitHBr49mcZNUnKVpPpLapOY1F8A8KFcDsi7bmrES+g++IIoJpro0nffo74lRPr4HtWXN4kCkKww+rvlvMrJ3BC5nCcoa8tL+jVO2ixPvjlO3fdAaoPVzZ0kSz56mSI9beJuSSY30VY0gdcon2Zbwef0tYg000T+M9KhKxSxcgrC/LJRSODhPhlBI6ubO1FShtRJCdJQK/IO3bi1uLRxa3GJCEcQXs+Ltyx9l4yQMQV/f5vy95dk7wlTQpej7gkpfP/ntMC2iF8syQTjTFSXaKAQRbSY7FnpPSFZe8Woe7ykjyVNtUfkYG11c2eFNvNJG4RUZGNvdXMnSVyXKE0wMiBK7kWc3BekZMdLxVHmiWZLUH29otA3Z0xv2qKDV9ldwy3iJSHK4rtL/j4mLtoakc8wFT+R5DYp/U69Y12JF6ubO3EZr+Ly2JBMzum2eKmMSNvSbqqS+wFWitj0vDI92i6RET4nJyMVYIqSSryc1yVmj5bWCVMmfk7Dh5V8/vjGrUWvbISL0H64jJxRGaliG7cWQ0QwJeEIkndLZrlkYgVl9dkm3ysJrLyeQQUhDsoHOplQhSgzK0EIv06+Oagxx58gZmpQxVpaJe9cooJLOVlb7FH1npfFV1aofkkSM/tl+5H3B6mBZF32PXLZWKeeW6E0To4qO0+Ctkvku0MqdYhK8kjqME8/S7kSkkW6QmSXfneUfPdai1kQ+nsiGoMvPcjJ4yzztLzK5CShMUB5Zf+OUL78Gq2IFbgLVHxAkkVY3dyJswrh+jCl6RPkhUGZYERllcypTEVsqESxJbchLwmZrPwlmQDKp1CkDghu3FrMUS5BiBocolSZkt+4Tl2b15hKk2vCBHnHZzKLJSwzl2nfPEeP5Bu3FkOkrmsKHZyTtc1aiykaIPUPy9ymKPnWdZkwyQdYOUH3KAtlWdYGQUoWvpANCEouiZZsSNeSpO4+quwI9d1adfiKPLdCvS8qM4u3ST9HqWeXKEUWUzCNQUVptJrVCFEDmNxCyKvMAO1JAWH6XQqLqmIKcp6k22Tj1qKPTLElFdxnya1dAmjOsyeoSkWJyfCAMi8TstF2jxpFpBffB+WVP2tEi3xEKhQhlVqlfNmknKgA8BkVPNmmhHODGrFilPmbkGtxStC2ycDyKeUX0++JE80hafUNBa26SgT9HqlvjBq5pcDlNqmv9B5J6O+QOMAXpD6vDUKyDpamzSIaUzRxqh3ub9xaTJDyJRJIU3HSvO0y+b64LC5zpr2oQTNPzU4kqQHiHik7JGtnJdlIKMhGjJrKpGNDy+RaVGbNxWRlrVN9kKDKkiLT0uBxkwQfE1QZMUrrJagBNi4jelx2LdJivj6k4EqAbFBdI2V8SuRuReH5LQUlGVOQ8zjh1DzhSJK0n5LMJCWZAwBgKd9CijZ/QHyye1R0UXrwrkzrhMjAcE/J1CFlL1ERwRBVjtxUXaEa6D1Sl09WN3eWqEFkjTwrEUz+e5z8HqXeL33bbdLxPvJvpXrdls0arFPBqLvSlBkhy10qwLVCveeT1c2dGHnXx9TAuUFmLHKU+b4mI3CCzH4k25hbvk3el5OVn6C+PUSuq33fa+0lrxf1rnvknojKczny74hCIO+lbBAf8za5HiJtdI98x8ekHXIKdVgj98Wkd1AB1i1JaVCB0i2Z7Ep1/oBEwaNksN1TGNglN+8uFd3WWkATo+6T91OE1NFHBe6ClDUEKnEHVTmX9WuO4myUMudp2Xy5DsMU2WWJRolRU0AxM6ybRwwHqCnQT+BVfnqt9SG9rs8SNUUWlcWPegbWBB2xQkxcKSjxGfR+TTpiNCEdznCTWGr9Oq5Kmil5GUQ+jxWkmDceMSrand5x2ffdgFR85Nzq8v8BOv9P3jITcqgAAAAASUVORK5CYII=;" parent="1" vertex="1">
          <mxGeometry x="666" y="267" width="117.2" height="120" as="geometry" />
        </mxCell>
        <mxCell id="tHJEwBymKxjTPnQwL3kc-6" value="" style="shape=image;verticalLabelPosition=bottom;labelBackgroundColor=default;verticalAlign=top;aspect=fixed;imageAspect=0;image=data:image/png,iVBORw0KGgoAAAANSUhEUgAAAeAAAAHgCAYAAAB91L6VAAAABmJLR0QA/wD/AP+gvaeTAAAgAElEQVR4nOzdeZhcVbX38e/ap7uTTpApQeYpggyCgAJKGLS7OgSRoKJE4b7OGu9VEZCkqxMUSxnS1QEiwkVFrxOokAgoUQTT1Y1hUC+DoqBeZZRBBMJMOkOfvd4/OkrATN29q/Y5VevzPDwPT6ha+xe6utYZ9tkbjDHGGGOMMcYYY4wxxhhjjDHGGGOMMcYYY4wxxhhjjDHGGGOMMcYYY4wxxhhjjDHGGGOMMcYYY4wxxhhjjDHGGGOMMcYYY4wxxhhjjDHGGGOMMcYYY4wxxhhjjDHGGGOMMcYYY4wxxhhjjDHGGGOMMcYYY4wxxhhjjDHGGGOMMcYYY4wxxhhjjDHGGFNdEjuAMWY9ZtzW3LT5M4d5ZDLIvojuDToRZFNgHPAM8KwID6nnbhx3+pTFzCvcGzm5MWYDrAEbk0Vdi9/q1H0CeBuw2Qgq/BnRhT6Rr3N24ZHA6YwxAVgDNiYrZtzWnGz57H+o8llg30BVVwFXe0+ZeYU7AtU0xgRgDdiY2EoLWpKBie9T9PPAbtUaRpSbxXHGYHehr1pjGGM2njVgY2KZef14lyQfA5kJ7FCrYUW5GaGclguLajWmMebfWQM2ptZK/Zu4gfSjQBFk24hJfivC3LS7/UcgGjGHMQ3JGrAxtTK7d4JTOQnlM8AWseP8i/B7UTkvve/J77Nweho7jjGNwhqwMdU2e8lWTld9CuUURjajuVbuFZGedKx8i1LbYOwwxtQ7a8DGVEtx8U5O5DRUPsbQM7t58QDol31r8nVKbctjhzGmXlkDNia0rv5dHOmpqMwAxsaOMwr/QJjvxy67kNK0ZbHDGFNvrAEbE8rs3r2dShfKCUBT7DgBPYFwsVc/n/KUZ2OHMaZeWAM2ZrRm9r7eNclMlBOBJHacKnoO5at+1aoe5h/1VOwwxuSdNWBjRqpYmSzCbFHeTmP9Lr2A6Le8a+nmnCP+HjuMMXnVSF8axoRRXHyYiCuKckzsKJGtQPW7nuRMetoejh3GmLyxBmzMRmrq6u1QL19S4ZDYWTJmJcIVPk3PZN6Rf40dxpi8sAZszHqpJMW+Y4DPKxwUO03GeeBK79wZzG37c+wwxmSdNWBj1qZUcsnyw9+tSgnYO3acnPEqXKtIie7222OHMSarrAEbs6YZtzUnWzx3gqJzgD1ix8k5VeFnKnIWc9t/EzuMMVljDdgYWHNLwDOA18SOU2+GtkLU0mB3R2/sLMZkhTVg09he2hKwE9gudpx699JWiO0/tR2YTKOzBmwaU+dNr3Ky/CMgs4GtY8dpPPo7ETnHtkI0jcwasGksp/VPdM3+0ygnA5vHjtPwlLtEZJ5thWgakTVg0xhmXv9q19T0SZRTgU1jxzH/5j4RKadPbfptLjlwVewwxtSCNWBT306r7Oya9bOofBxojR3HbIDwIKrz/cpxlzB/8kDsOMZUkzVgU5+6eic5OBmVTwBjYscxw/Y4wvm2FaKpZ9aATX2Z07+P876zDrcEbFRPIvy3X+6+zJfbnokdxpiQrAGb+lDs28+JnobyH4CLHccE9zzKxbYVoqkn1oBNvs3uO1RUuxpwS8BGNbQVovdleo58NHYYY0bDvrBMPtmWgI1uaCvE5vQszp76UOwwxoyENWCTK01dvR2qnKnIm2NnMZmwCuFyL3oWczv+EjuMMcNhDdhkX6nkkoHD3w56hiIHxo5jMmn1VohaYm7HH2OHMWZjWAM22fXSloBfBPaKHcfkwuqtEPVLdHfcGjuMMetjDdhkz0s7E30O2D12HJNPivSq82cwt+NXsbMYszbWgE12nHTtmGT82A+q6ueBHWLHMfXhpR2YCotiZzFmTdaATXyl/k3cQPpRoAiybew4pj4J3AJ021aIJiusAZt4Stdu6paP+S+UTmDL2HFMgxB+Lyrn2Q5MJjZrwKb2Zi/ZyumqT6GcAmwWO45pWHcL0pO2yg8otQ3GDmMajzVgUztzerd2g3IqwknAuNhxjBki94O/wLcmX6fUtjx2GtM4rAGb6uvq38WRnorKDGBs7DjGrMPfQM+3rRBNrVgDNtUzq/IaJ9qJyEewnYlMfjyO8FWvfj7lKc/GDmPqlzVgE15x8b5O3CyUE4EkdhxjRmgpwkWelgvoPvzp2GFM/bEGbMLpWnyAUzcbeA/22TL143lEv+3TZC7z2h6LHcbUD/uSNKNnOxOZxvAiov/jE+nh7MIjscOY/LMGbEauuPgwwX1RoD12FGNqaCXCFR73Jbrb7okdxuSXNWAzTCpJse8Y4HMKB8dOY0xEq7dCdOcwt+3PscOY/LEGbDbO6i0BFUrAG2LHMSZDhnZgSvkC8wp3xA5j8sMasFm/Gbc1J1s8d4Kic4A9YscxJsNUhZ+p50x6Cv8bO4zJPmvAZu1e2hLw88BuseMYkyei3CzIFwZ72iuxs5jssgZsXm7m9eNdknwMZBawfew4xuSZbYVo1scasBnSedOrnCz/CEgXsE3sOMbUF/2diJyTdrf/yLZCNP9kDbjRndY/0TX7U1A+je1MlGkCtyr6Y4/chE//jvAimmyTiO6lIkcDxwCbxs5p1md1Ix5745WUSj52GhOXNeBGNWfJtm5w1WkI/wmMjx3HrNedTuW0Dd5PnN07waUyC+GzQHNtopkR+pMoc9Nx7oe2FWLjsgbcaIqLd3Iip6HycaA1dhyzQd/xrUs/QWn6yo1+R2f/gc75H6HsXMVcJowHQL9sWyE2JmvAjWLWL3Z3znWBvB87O8qLC3258JkRvbOrfzen/lfAxLCRTJU8jMo8v2rsN2wrxMZhDbjezenfx6V+NvBebGei3BBYkj69WQeXHLhqxEVm9b3FOe0DXLhkpsr+AXq+17Ffpeew52OHMdVlDbheFfv2c6Kn2ZaAueR9qgdwbsfvR1vIdVW+h/L+EKFMTT2H8lW/alUP8496KnYYUx3WgOvN7L5DxevpAm+LHcWM2AJfLrw3SKWu/l2c+vuw3/W8eh74b58OzufcqY/HDmPCsl/KemFbAtYNEY5LuwtXh6rnipU7gANC1TNRrED1u57kTHraHo4dxoRh94ZyTSWZ1XtMUuz9lcPdaM23LvjUj+kNW1IWh61nIhiDyAwn/h5X7PsaM6/fNXYgM3p2BpxHq3cmAj1DkQNjxzFBPe7Lha1DFnTF3k+BXBSyponOA1d69V+gZ8qfYocxI9MUO4AZhlJ/U7LMn6ADzFbYy46f6tLS0AVFeFJt8cN644Djnbh3U6z8yCPnUG6/M3YoMzzWgPPgnzsTDfjTVXht7DimqiaELqjeTbDlh+uWA6Y7dLoW+3pV5fP0tP06diizcewUKstOvaXVNS//OKKzgB1ixzE1ob512SaUpi0LVdAVK3OBrlD1TLYpLFYvZzOv/Zexs5j1szPgLCr1b+IG0o/CQCewXew4pqYkWdZ6ZAo/DlYQ7VA71m4YAlPE6RTprKzeCrH9p7YDUzbZb2WWdN24hfMrP4PwGWDL2HFMJMKlvrvwgSC1Tq9s7wZ5CPtdb1iC3gburLTcdo014myxX8osGNoS8NMoJwObx45jonvRp4Nbc+7UF0dbyBUrM4F5ATKZvFPuEpF5aav8wHZgygZrwDHN6d3aDcqpCCcB42LHMdkhwolpd+GHo63jipXfAfsFiGTqhtwP/gK/bOXXuPDoFbHTNDJrwDGcVtnZNetnUZkBjI0dx2SPKtdqT+HtoypS7HudQ+8KFMnUG+FBVOf7leMusR2Y4rAGXEuz+/d0Pp0NciI2Ac6s36AfdNtyXtuTIy3gunrPQWV2yFCmLj2KyLl+cNUlIW57mI1nS1HWQnHxvq6r8j3n/V0gH8Car9mwpqRZ3zKaAqJMCRXG1LXtUD3fJU0PuK5Kia4bt4gdqFHYGXA1zerf3zk/B3gP9v/aDJdwke8unDSi9xYXb+ZwS7GtKM3wPY/ot32azGVe22Oxw9QzOxOrhn/tTORtcwQzckrbSN+aeDlcnTVfMyKvQuUzzvmP0tX7Pz6RHs4uPBI7VD2ys7KAmop9U1X0dFUOj53F1AX1Trdibsew14d2nZVuhGI1QpmGM4DwP179PMpT/hY7TD2xe8CjppIUK9OSYuXXHr3Omq8JSFDddyRvVMQePTKhtKJ82uHucV2V79HZt0fsQPXCGvAoNHVV2l2x73aFaxTeFDuPqT9O3YgasIjuEzqLaXjNKO93one7YuUS5vQG3TazEVkDHonOX2wnXZWfeKUCHBA7jqln8rphv+WU/s2xzTtM9STAx10qf3XF3s9SKlkfGSH7HzdMSWffsU6SO0U5NnYWU/9EdO9hv6k13asKUYx5pVeBnCcDR1xP5y9s05gRsAY8DK7Ye4aK/hiYGDuLaQyq7Drc9yTeDfs9xoyUoB1OktvpWmxXA4fJGvDGKJWcK/Z9DeSL2MxxU1vbUVrQMpw3KH6XaoUxZh22cepuaOrsK8QOkifWgDeCGzj8fNBPxM5hGpJj+VY7De8tYg3YxLCpF11EsTI5dpC8sAa8Aa6rbxZwcuwcpoGpH9b9NUXtfpyJpdXBT5j1i91jB8kDa8DrU1x8GKpzY8cwjS1BXjWc1zuRTauVxZiNMNFJchWlftvpbQOsAa/LKf2bO3GXYWvpmuj8sBqwqg7r9cYEJ+zjBvyZsWNknTXgdXBj9CyUnWPnMIZhngGDbFKdHMYMy2dtZvT6WQNem86+PUBnxI5hDIDCcC/ltVYliDHD40TdvNghsswa8Fo4+CLQHDuHMSOksQMYAyBQaOrq7YidI6usAb/SnCXbInpc7BjG/ItaQzX5lSqfjp0hq6wBv4IbXDUDO/s1+eZjBzDmnwQ5huLiYT7L3hisAb+ScHzsCMa8jOiqYb5juK83ppoSJ8m7Y4fIImvAa+rs3wEY/u4zxlSRqCwb5luWVyWIMSOkqm+LnSGLrAGvIXH+qNgZjHml1Mkfh/N6hT9VK4sxIyFwBKVF42LnyBprwGtQ1cNjZzDm5fTvdLfdMZx3OGRRtdIYM0JjWD724NghssYa8MuILSJuMkYuBhnWLOg0XXUl8I8qBTJmRJza9+srWQP+p5nXvxp4TewYxqzhSa9jLhj2u86d+iIi5SrkMWbEFKwBv4I14NUSl0zG9vo1GSLoqfQc9vxI3uvHyoWC3hY6kzEjJchkUPuOXYM14NVU3CGxMxjzTypck5Y7LhtxgVLbYJryUWBluFTGjMoWzL5hj9ghssQa8GqiemjsDMas9rwmfHLUVc7t+D2CrcVrMiNJU/ueXYM1YIDSghYV3hg7hjEAKGdwduGREKX8itazQe4PUcuY0bIrjS9nDRhgxZZvZPg7zhhTDS/6ce6bwarNnzwAekmwesaMitpErDVYAwacx47KTDYo11BqeyFkSd80+H1shySTDXty6nVbxg6RFdaAAUXsvoTJBuHG4DXPnvoQwt+C1zVm+CRpabETntWsAQOC2gfCZIKHO6tRV1V/V426xgyXPQ/8EmvAXb2TQLaNHcMYABK9txplBVeVusYMlzXglzR8A07s/q+Jbyno7xT9CecUHq/GAKL8UpEbgPuwZ4NNRIIexIzbbM91oCl2gNjUMdmmp5gaeFbgzwp/BP2zeP6Yit7LuOUPUpo23O0Ghy3tab8GuGboo65C5+JtoXmnxPk9VWUvFd1blL2AXbEDc1Nd49n8+f2Ahl+preEbMGqXQ0xwzytyu6C3iehtKdxKd8d9sUO9RJQeHgUeTeHX//xTBSgtGseK8Qe4VA9COAg4CNgNW6bVBOTQyd4acIP/UnXe9ConK54GkthRAvkLcJUgv06FhxE/wCATnJN9FJ0qyDHUz981S55T9EZBbvDqbuD+J37Lwulp7FDBzO6dkKTuLeq0DaUd2Dt2JJNzKlf4nvb3xY4RW0M34KbOvoIX7Y2dI4C/itfPpuNvupZSya/zVcXFOzlxZ6G8v4bZ6pT+DpGfee9+yv1P3FpXDXdD5vRunQzSobhpiE4FNo8dqY54hV+K6E2i/BHcAKJOVfdVdYeI6BTq4SBa5SHf075T7BixNXQDdp19n0f0S7FzjNK3feuyTw/nPmLS2ftOFbkMGF/FXPUmVegT9Eqvyc/oaXs4dqBMmHFbc9Pmzx3hRacB7wIa/kt1hBTkW94Plpl35F/X+arTr9/RDTadCpxEzm8h+qbBnTh76kOxc8TU0A1YOvt+LqJHxc4xYsrXfE/7J4e7YTsAs/re4pz+DGvC66OC3Kz4y33Cjzinwza5Xy8VZlUOc05OAI4HJsZOlBNPOOT9g+X26zf6HV2LD3DqfgDsWb1Y1SWi70u7O66InSOmxm3ApZJzA4cvJaeXz0S4MR1741vXe8l5A5LO3g+qyHdC5qoLKg8hfNsP6rc4r/Bg7Di5NOO25mSL54706EcFppHzs7Uqesp7V2Be2/AXSpnTu7VLZTGwb/hYNSD6Fd/dcXLsGDE1bgOe07+PS/0fYscYoRXe6euZ2/GX0RaSzsrPRDg6RKicG1RY5Jx8M73nyesb6p5utc1Zsq0bXPURhI8Bu8SOkyVOmDrYXfjFiAt09u/gxP+BHJ5ICHpbWu44KHaOmBr2eb/E53pXjitDNF8AdXoSsDxErZx6DuU8P8huWi4cl85tv9aab2DnHPF331M427fe+BrxOk2hP3akjLhsVM0XoKftYRFODZSnphTZj9KicbFzxNSwDTjPy6E51XDb1Q09n3pusHp5ITyIyGd964odfU9hpl1qroFSyafzOn6q5UK7FzkQ5YfAYOxYkTzrE50ZolB679JLgQdC1KqxZl4cb2fADUlzewa8anBc8quQBX3rsrnQMLvl3CfCx/1Tm+3uu9vnUzr6udiBGlJ3++2+p3CiH2Q3kK/TcMtj6heCTepbOD1FCXdQXkNO8nsiFEJjNuDZS7ZiaHWfPPozpbawl4xL05YJ8knqe8/Ye0T4sG91e6TdhW9yyYGrYgcywHmFB325/T/9IK8FvgE0ws/lD741+e+QBb3qkpD1akVdbk+EgmjIBpz4wcnkdAKaoC9Wo25abv8ZyPxq1I7scVQ+5Z/ebO+0u/AdSm2Neskz284rPOjLhRk+HdwDuIz6PRj03uungn8Ox6+syjaW1SbKIaC5/C4OoSEbcJ7v/yrSUq3avvXJ2QL/W636NfYiomd6HbOb72m/2M54c+Lcqff7cuH9Xt3BArk8q1sv0bOZ13Fj8Lp3v1CVA/MamMDsG/aIHSKWhmzAkuMGDOzO8QuqsxRdafrKNB18H/BkVerXhgI/8Jq+1nd3nEHPYc/HDmRGoKfttrRceIsIxwH3xI4Tggg3+nuf+mJVim8xKbff5Ul+5+OMWm5/aCNWWtCi6IGxY4zCq9hlq+o9eH/u1Ps9vAMYqNoY1XO3F9/uy4X/oOfIR2OHMaOXdheu9q1uX4QvAiti5xmFJ1PvTqzaI25bPJ3bFbG0gXeka7wGvGyrNwBjY8cYDef8B6s6QLlwi4i8HxjxKls1tgzRmf7pzQ6ge8oNscOYwEpty313oeSdvl6hEjvOCCz3Tt5ZzfXDE0ly/DiPnQE3DCdpPfywP8Kp121ZzQHS7vYrgVOqOUYIAku8uP18d8d5dp+3zs3t+IuWCx2ifAB4OnacjaQi+iHmtt9c5WE+UN36VbVntb/PsqrhGnCeJ2CtYVPX3HJxtQfx5cKFwKxqjzNCLwKfSVtvbKO7rS7uEZqNk/YULvWa7qPw89hZNkiYXfUNB4p9+6lyRFXHqC5JWloOiR0ihoab/u2KlUeA7WLnCENP8eWOC6o9iuuqFFG6qz3OxhL4Ter5D+YV7o2dZURK/U0M6B6J+H0U9hN1Nw89BlYbrqv3S6g851TvHNTkD8xre6xWY4eWdFU+psp5wKaxs6xFty8XZld1hFLJJQOH3azIm6s6TtXJOb7cfnrsFLXWWDuUdPXvgvo6ab4AMt8VK62+3F4e0ZaEG8l3F8qu2Ksg3cQ9aPMg3enTm5Zyc7m5VHIsP3Q/R/JW0ANQ3ZcBvzfQov96/NGfUMtIqvImgSO9CE48FCtPKPxe4A+C3p6q78vLJLa0u/BNunr7EpXLFbJzH3Rop5/qNl/ADRzxBUVz3nzr5srksDXUGXBS7DtR0e/HzhGaIjeopp+kZ8qfqjlO0tU3Q1UvBqrzGNT6PezFvz/7k6xUKPbv7dB2hTaBtwDrvb/l1R1CT9uvaxQQV+z7GugnNvCyP4H0idKXrlp5A/OPeqom4UaqtKDFDUzoZmjeQtzvtdHs0z0MrrNvNqLnVHOMGnrRt7rNG22hnIZqwK7YdxHop2LnqBJVuMGh30rT9GrOnVqVB/OTYt90RS8FqrYgyCspVNQ1n8DcI56o1ZjDMuO25mSLZzt0aBP6o4Gth/N2n+g2wdYF3giuWOkC5g7jLV7gtwo/98jllNvvrla20UqKlWkK3wYmRAkgOtd3F06vavPt/MV2IsnXVu+zXDe8uoPoabstdo5aarAGXLkDOCB2jhp4AfQqp1w2eP9TfcGfPZzVe7hz8iPg1UHr/jtF9Vx//1OzM7dFYKm/qWlACx4/HeSdbOAsdz0GfLl9fLXPltaUdFVOUOUHIy6g3AVc7p27IpMT4GZev6tLmq4G9qvhqAo605c7zq9SeWF2/2SnfBzV6UBrdcaJSOVk39P+ldgxaqlxGnCpfxM34J8hzuXTmO4FneeXrfwOFx4dbiGD4uKdHO5q4A3Bar7cCyJ8JO0uLKxS/ZGZ1b+/c/qfoO8hzFnWX3258NoAdTZecfFhDhdkOURBb1Phcj+YXsq5Ux8PUTOImdePd0nTtxm6KlFtK0T1o2lPR/jbW3P693E+PRGVE4BdgtfPEpUrfE/7+2LHqKWGacBNnX0FL9obO0dEjyJ6vl8x7mLmTw6zylVp0TgZGHepwHFB6r3kYe/dNOa1/S5w3ZEpLWhJlk94N55PqXBoyNIKfVouFELW3KDTKju7puD7x65A5HIPF9Ldfnvg2iOk4jr7uxA9i+o9cvmkx7+L8pSbglUslVyy/Ih3ob5LkTyv2jc8Kg/5nvadYseopYZpwK6z7/OIfil2jgz4mwhdaXf75UEue5ZKzi074tOIFgnzeNcdvoljObvwSIBao3N6ZXuX6idQ+TiwTVXGEPmu727/UFVqr8uM25rdFs8OUKWrQaLcjMhX0la5KguTapKuvner6mWEXwHvz17ctGCX4Uv9TcmAnqhoF7BXkJo549XtWM0Vw7KmYRqwdPb9XESPip0jK0T5Ver0ZLo7bg1ScMZtzcnmz01T598iKm/Soctlw5qMpLBIW92JlNpeCJJppIbOEE8HPgQ0V3m0s3y58Pkqj/FvXLHyMLB9lYd5GJGv+MFVF1drUuBGm913qPP6E8JNzlrodcxHQ2320dRVaffKl4HqrfOeA4K8Ny23L4ido1YaowGXSs4NHL4U2Dx2lIxJEf1v78d+riq7BpUWtLB8yx2avNvVO14v6qcr8ibW+rnTb/n7npoRdbLV6dfv6FY1zUH4CDWa5S0in0i72y+pxVhrSoq9v6rh4g2PAef41qVfpzR9ZY3G/HedfXs44eegu46wwsNArxe9ONiB68zrd5Wk6dwq3MbJqwt8uZD5JXBDaYwGPKd/H5f6P8SOkWF/E+STNVmNaWbv6yXhHEHe/tIfyvm+3DazljOBX+b0yvZuUGaDfgwYU8uhBY5Oy4WaL6noipUF1GaC0kuEB8XzxXScuzTapelZ/ds48YsR9lnHK7zArxXuBu4T9OHUu4cQuTfopdHjFyTuNRM/g+pZwLhgdXNO4Na0XDg4do5aaYgGvHoBia/HzpEDX/UrW08LNklrPZLZfUer6sUo3/TlwlnVHm+tTr2l1Y0ZKKIUibRDlk/cvpzTdletx3XFvvNAP1vrcVf7PxE+H22G+2n9E12Tv56Xz+B/AdH5XvWblKf8rarjF/tel6D/o/Cmqo6TT6t867LNKU1bFjtILTTEZgyNuszZCPyXaxm4leLiqt+HSue2X+vHLn1trOabFCvTXMvAXShfIOb2lOngQ1HGVY0z7pA9VFkgxcov6Orfreajn9f2pF/hCqL8CgDhUu/d7r6744xqN19X7P2UQ2+z5rtOzbw4PjtLilZZQ5wBu2LlL8DusXPkyICofrwqzzXG1tU7SZALRDkmdhTgOV8ubBZj4NUzg38UY+xXWI7KOX5geU/Q59Q3Rql/k6bl/uDB7kJf1cc6pX9zGZN+U5B3V32svFOZ43vah7NSW27VfwOevWQr51f9g0b4u4amOi+Tq1CNRKm/yS3T2YjOIeYZ78vd7cuFdd2LrK7OysFO+E2Usdfu/5zqfw32dPTHDhJcsW8/B1ePYvJXQ1Hhp9pdqKtlNtel7i9BJ35wMtZ8R0Zkluw68ad03vSq2FFGZdYvdk8G/M2rnwPPSvNFVSJeBk6z9qzlHl6k4oqVb+f+87aGpKvyLofeZM1344lyCGhDfGfXfQO2+7+jI6JHOVm+hDm9w3qmNytcsfcTziW/VcjczEqRiPdhx93yGJC1LR0F+JCTFXfQ1Zvz+4Aqrlj5nCpXApvETpMzE5h9wx6xQ9RC3TdgsQYcgOwvqbssV0els5dsJV2Vn4B8DRgfO846VHe27fqUSh6Iv9rY2u3mVG5xXZUSpVL+vqNK/U2us/I14Ezs6tuIJKoN8b2dvw/3cJQWtCj6xtgx6oGgHUln5QOxc2yMps6+gvOr7hLl2NhZ1keEqJeBRYg5E3pDmlC+IAOHX8es/uosA1olbrmfj8iM2DnyTLUxTpzquwGvmHgA9bhtVyQq0pX1s2BX7D3Zi15H9bdKHDXxMe8Bg2qmGzAAAlOc83c2dfbVdsOKkepa/FaUet1zvIbsDDj3XIMcRdXQnk3F/iNjh1irk64d44qVb4F8GWiKHWdjDCb+71EDKHHH33iv9qI/T7r6Mn9Wmaj7InbZOYQ9OfW6ke6xnRt13YC1Qe4j1NLQBliNj5oAACAASURBVPQZM2fJtknrmH7gw7GjDMvywceiji/EHX94mlX1667Ydx7HL8jmnt5dfW9UOCJ2jDohSUvLIbFDVFtdN2CbgFUNciyl/uycYZb6x7p01WIV8vbLuoL5U5+OGUBU83IGvAb9rEyacDWl/szNLHbKibEz1JNGeIKlfhtwV/8uhNmf1rzcxKblPjtH+aW25T7RAiJ5W7XrH9E2n1hNcHk6A/4XgWluIL2Rzv4dYmd5hXfFDlBPrAHnWKNMY4/BK++JneFlzun4h+9u/39OpQO4N3acjSHEv/86mK9L0C+jyP2xM7xM1+IDbLGNsAQ9KFNX26qgbhuwij80doY69iGKi3eKHeKVBnvaK35l674oZSDTy2f6DDRgVq6Mn2H4HhGR92i5cFzQ7QFHyamz/XzDG88y9o8doprqtgGjkrd7gnnSKrjzYodYq/mTB3xPocurezPC72PHWRdB/hE7w+p70LXdAGHkPHChTwf3SLvbr4wd5mVOvaUVyMUz8nnjxNf193h9NuChCRqvjx2jngm8x3VWTomdY5162m7zT212IPB5sthkRDNw+VcUiH8gsGF/9V7f6suFz3Du1Bdjh3kl1zzwWSBzV4TqRF3fSqzLBty0PH0zkM1HFeqJcG7SVTkhdox1uuTAVb5cOMuL20eRG2LHeZmMzEDOwr3o9fCoXuLTwQOY13Fj7DBr1bX4AIQ5sWPUMWvAeeO9q+vLFhmSqDIz66tj0d12j7YuKaCcBLwQOw5kZwayJwtn4mv1J+/0MN/T8YksnvUC0PmL7ZxPfgKMix2lju2UwdnuwdRlA7YJWDUz6EVmxH6cZqOUSt73FC7ymu6h6E9ix0kzcwacjQOBNQwi+hXfuuxA5nb8KnaYdSou3syJ+xmiO8aOUu8Sqd8nWupvinep5GRAMrf1XF1S+RLl9ttjxxiWniMfVXin66ocr8rFwMQoOcRno/GJPkZ2Dp/u9qIfprvj1thBNmhlmtDSvG3sGI1Ah9aFXhA7RzXU3xnwyrfsDWwRO0a9E7jdj5O5sXOMVNpdWOjTwdehckWE4ZVlq7Ix+SkbZ+KrED3Tty59Qy6aL8D8o54S1U/HjtEI6nlFw7prwC5N7fJz9aWpZwaltsHYQUbl3KmP+57294mTtwOP1nDkp7jw6EzMzM7AJeg/eJFDfHfHGZSmr4ycZVjSno4fKVwVO0e9U9if0qK6vM9edw0YsQlYNXAh8wp3xA4RSjq3/VrvmvcHFtZoyGyc/QKpi7Ya1kpUzvBPb/ZGunN2G2MNmjR/Gng2do4618yL4w+KHaIa6q8Bq1oDrq6HvY45I3aI4OYe8YQvF6aL6PuApdUcSsnQEpArI8yCFn7vvXuT72k/k0sOXFXz8UM654i/o1J/vw8Z46Q+L0PXVwOevWQrYPfYMeqZiJxCz2HPx85RLWl3xxXeu32qOVNa4PFq1R4231rLLIMg5/ixSw9iXtvvajhuVflxcjFwZ+wc9Uxdfc6ErqsGnKQrD8U2w64aRW7I3DKA1TCv7TEtd7xThOlU52w4O2fA8ycPALU4oLrXe2335fbT83avd4NKbYPeyacgQ/PJ64woh2R+vYERqKsGrHb/t5q8CjNjh6iltLuw0Hu3jwrXhK2sT4StN2rVPAvW1atZ7ZfZ1axCmNt+M8rlsWPUsQnMvmGP2CFCq6sGXM/T1TPgf/I8WWbE5rU9pt2Fd6w+G346REnR7EzCApDqHRA84FQLmV7NKiDv3Bxgeewc9aoet5itnwZcWtCi6Btjx6hTy7x3DT3RJO0uLPT4/RXpHX01l6kzYC8S+gxYQb7uW92+gz0d/YFrZ1d32wPARbFj1CvV+jvBqp8GvGLiAUBr7Bh1SbmQeW3ZuW8ZS3nK37TcdiTwSUaxpnRK8IY3KuKDXoJ+2CFv8+X2/6TUlol1t2vJS8s5wFOxc9Sn+nvCpW4asPO2/nOVPOtXreqJHSI7RH258FUvbt8R77AU79nbtQt3BrzQr1y132C5/fpA9fKn+/CnUc6PHaNO7cWp120ZO0RIddOAFam7o6Ns0POZf1T4I/qZvfner7m77QFtXVJAdCbDve83uDJTl6DRUd8DflxU3+XLhelV+azkjGfMV4AnY+eoQ5KMbXlz7BAh1U0DFrAGHN6zfkXyleBVZ/dOcIn0uc7KucFr11Kp5H13x3le/RsENnYN4xeyNiFJRnEGrPBznzTvn/Z0/Dhkplwbek7+vNgx6pHW2USs+mjAXf27ANvHjlF3hIv4ctszocs678rABITTXLHyudD1a65nyp/SVjcZ9AvABlZ2kmyd/QIifiQN+FlR/ZCWC0dzzhFZ2NBhZOb0bs3s3uAH7z4dvJAqr6jWiOptIlZdNOB6nJ6eAcu8NF8QvOrsvjeBfniNPznTFSv5f7641Dboyx1f8p43A3ev62WCz9QjSACDg8ObhKXQ7wfZL+3p+G61MtXEKf2bu5TrnJdvUOoPuzXruVNfBPnvoDUNAgcH/1lFVBcNWO3532r4BnOPCHu2Viq5xPuL+PfP3TxX7D056FixzCvc4Ve2HoTytbX95yo88hNAurGTwlaBFrX1xg7OKzxY1UjVVlo0Lhmji0D2B17nBvzHQw/hXdNFwEDoug1uPMt1v9ghQqmLBgx2BhxY6sV9OXRRN3DYxxU5cO3/Vea7Yu+nQo8ZxfzJA76n8F8iHMcrHkkJ/MhPGOdOfRx4ZAOvuseLHurLHT2USr4WsarmpGvHyLLxVyp62Bp/+kVO6d886DhDB7DfCVrT4Oroimf+G3CpfxNg39gx6onCotWLCoTTedOrQM5azysE5MKkq29G0HEjSrsLV3t1+73scaVMngEDUF7nfxEu9TrmDXR3bOxEs+yacVuzjBtzuYge9Yr/spVr8cHnI3inX8bWiA7NGnBWNC3TNwF1c08gCxLhwtA1nSw/CZi4gZeJqn416er7SOjxo+lpe1jve7ID5XPAIIxowlPV+XLhwtUZV6zxx4+K6v/z3YUP1MUOWMcvSNwWz35P4J1r/e/CSXT17xZ0zLkdf1FYHLSmsQacFb6OfhiZoNw12N0edvnA0rWbgpy2ka92qvqNpNj3gaAZYlo4PfU9hbO90yO8d5ndhs/3FM72+K2dUPBO3uyXrZiU9nR8P3auIEol5yZN+CbwvvW8qsXhgy+56pCLQ9dscDvR2b9D7BAh5P7MUWFy3e1RFZNwCUjQS2Zu2diTER3OCjZO0W8lxV6fljsuC5klqrkdv4odYYPKU54dhL7YMcJSccsrFwIf2vBLOZGu/i/R3XZPqNHT+578qZs04QFgl1A1G10iOjmFBbFzjFa+z4BLJSeidbUySmQrvNMfBK1YXLwZoqeO4J2JIt9OuirHB81jGo4r9p+Lyic38uWJ8+msoAEWTk9Bvx20ZoPTOpl4m+8GvPItewNhZy42tquZ2xF08QCn7hRgixG+vUmVHyZdve8Nmck0DlesnAn62WG9SeTDFBfvFDKHl+R7QL5nj2dIvWw9m+sGnKTelp8MyAlhj9JLi8YhjPb53kRVvpd09h0bJJNpGK7YOwcYyczmZocbXtPekO62BxRZErRmA1PYn9KicbFzjFauG7AtwBGS/n3w3qWVkBWT5eNOZORnv2tqUdEFyey+owPUMg3AdVZOATl7FCU+zuwlWwULBDjRfK8cli3NvDj+oNghRivXDRhrwAHJj4buVYWjqiEX1hijXq9s6qocGbCmqUOu2PsJZNRbAo5zfuWHN/yyjZeOXXEVw905y6yTk/x//+e3AZ/WPxHYPXaMeuHh8qAFi4sPW73MX0hjvXJNMqv3mMB1TZ1IOivvZ+ixnwAPR8gM0HAPWZSOfk7Rxt0rOTAVzf0tyNw24CTRyQT5JTOoPES5PegjMk7dxs46Ha4x6mRhU1fvK1cyMg0u6ep9rw7NYwj1vfaapq6+tkC1AHDwo5D1GtnQRKyAB0gR5LYB18s09Exw/uqgz/7O6t8G4d3B6v27sV7l6qRYeVsVxzA5knRVjleVy4AkZF3vJejSqCm6iJevNmZGbgKd/a+NHWI0ctuAxeX/+n9WOFgUtJ7oh4GWkDXXYqzC1TYxyyRdfe9W5ftUY2Eh0XcFnYxVnvKs1t1CJ/EkOT8Ry2cDLi1oUWUdu+qYYXpucOxTYR+PEK3Vc7tj1OtVSbHv7TUaz2RM0tl3nKr+EGiu0hAtzq/6YMiColwbsl4jy/uTMPlswMu2egPQGjtGnbiO0vSVwap19u0B1HK/zjGKXpUU+95RwzFNBiSz+45W0R9QveYLgBD2gNL7wZ+FrNfQcj4TOpcN2Ln8z37LChF+HrKeg+kh622kFkUX2GIdjSPp7DtWvV4NjKn2WIq8kdMqOwcreO7U+4E/B6vX2Pbi1OuGs858puSyAWsdbcgcW6o+7P0o0VhrN7eo6EI7E65/SbEyTUUXUv15Bv8kLuFdYSvqL4LWa1ySjG3J7X4AuWzAAnYGHMZfKU/5W7Bqs/v3BPYNVm/4WhRdmHRVwn5Zmsxo6uo9Sod2walV8wVARILO6hfvfhmyXiPL8wlZ/hpwV/8uwPaxY9QF1aD7/rrUZ2HThGZVrkg6+46LHcSElczuO9qr/BgYW+uxFZ3MrP5tQtVLE/9LbHOGIFTzex84dw04yfHRTtaIELQBi2hWFsdoVtHLk66+aj6LbGqoqav3KPV6FTW457sOziX+ncGqDe069odg9RqYwMGU+nO5t33uGnA9LD+WFemghFv9qnTtpopk6dGwZlW1rQzrQFOxb6pXqcmEq/VRZWrQgsKNQes1rvEs11o+eRFM7howyqGxI9QH/TvnFR4MVS0ZGPMWqrEQwug0q8r3h9YHNnnU1FU50qNRLju/ksDhlErBvjPF87+hajU6l9Mro/lqwKX+TYg7yaduKPLrsPUohKwXUKLCd11nX7XWpjZVkhQrb/PKT8hA811tAgOHvi5UsRSxBhyONeBqa1ruDyZ7Z1m5JAQ/+m4PXC8kQfQia8L5kRT73qGQiTPfNTncW4MV62n7C/BMsHqNzRpwtfkcz3bLGof8Nlixmde/GtgnWL3qGGrCXX2nxg5i1i/p7H2PUtPnfDeaom8JV01U4fZw9RraTnT27xA7xHDlqgHnfd3PLBnUwWAzMBOXHEE+toYUVM93xb4vxg5i1i7pqpygItVc23lUBDki5BZ4YjOhg0kkf/eB89OASyUnkNsVTzJmKT1HPhqqmDrZP1St2tAzXLHylbzvJVpvkmLfB1S5lGzfZtqKWYt3C1VMVO8KVavR5XGL2vw04JVv2RvYInaMeqDw+6D1VHPWgAE4yRX7LmPGbZk802o0SWfvRxX9NoH3862GRJqCTQRNSe4OVavR5XGFxCwfab5MkvpDwu0Y39hE9E8h/1+KutcjufzpnChbPruJlvrfS6lteewwL3P8giSZNOEjKB9UYR9gs2FWWAE8gPJjn7pzOa/tySqkDMJ19n1SRS8iH7cxUKevB64KU635blih5OTvnmUKB1BaNI7StGWxs2ys3JwB2/3fgJR7g9U69botEd0xWL0aE+VYGfALQj7fOWozrx+fvGZCReESFQ5l+M0Xhhat2AOh6Jr83XT2Z2mRlH9xXX2zyFHzBVDVcBMOew57HvSxYPUaWzMD4zL5OV+X7HzpbJg14EAEF64Bj0leH6xWJALTkoEj3hM7BzA016Gp6XJVAs625dVO/LWr11HPDNfV+yVUe8hR8wUQJOhaBILcH7JeI3M56xP5aMCzl2wF7B47Rr1I4Z5QtZzPfwMGULKxjrUbOOJMUY6pQumtnPofM/P68VWoPUwqrliZj8rnYycZoddQWjQuVDGF+0LVanR5u1KaiwacpIOHkLOj5AxTWl8Md8Qt7B2sVkwSfz7E0DaKOruKQ+wnSdP3os7+Pn5B4jr7LgFOiZZh9BKWj98rXDmxBhzI0ESs/DzdkIsGnMfp5Rn2dMhJCorP3cPvayM+7M5Qw9a5eC9VvkOVDzQFjnPFyqxqjrFOM25rdpMmXIbwsSjjB5R4v2uoWqI+3J7cZiKd/a+NHWJj5aIBi8vXZYWM+3vIYlIHezOLcnM6zl0aLUDXjVs4cdcAm9ZmQJmbzO47ujZjrVbqHytbPHsl8L6ajlslitsuWDFxNgkroCRHJ2zZb8ClBS2q5GpmW5YpErQBg+T5DPhJlHI6btmRlNoGoyQolZzoyu8DwRZ32AhOvV5GV3/NxnQDepHAtFqNV3US7sAz9Rr4d7Kx5ek+cPYb8LKt3gC0xo5RLwQfbAUsTr2lFZgYrF5NyP2IfsWJTvFPb7ad7yl0xXxu0A0cXhZ4W4Sht3DqF1G6tiZn3b7c/jGv6fYiTEf1ElQeqsW4VROwASOpnQGHJPlpwNEnnmyIc3oIuVzjIatcuAUZxqzYPgc/Gy/Kb9TxE+/9NfRM+ROAj50KSIp9Jyo6M2KEPWVgzHcVPY5arKTSc+SjKSxk6B8o9r3OKQUV3y7IW4DNq54hEFUNdwl6XPPjDHhbjCOcvei6cQu6D386dpANyXwDVtXJ9qkMyT8brFSq22f0GsoyFXqd12tSny7i3KmPxw70b4p9+yn6jdgxBN4pnX1zfA9n13zwcvvdHu4GvqLHL0h4zZZvcF6OFMdUVQ4hw99PAtsHO2IptQ1SrLwAvCpUyQYniaw6JIVrYwfZkMx+wP8pj+t7ZlywBpwk+mrNzhnw4yCLRLkmHfdiL6Vpy9LYidZldu8E5/UqINizpKMifCmZ1XtnOq/jp9EyLJyeArd6uBU4m+LizRJJOlR1KipHZXC1tW0C13sOa8DBqOpkrAGP0mmVnamDWbZZIiLhzoC9jkMiXp8QHkS5yju5kjFLfkWplIUryxskXi4BJsXOsQanTr7Daf17ZmbN6PKUZ1O4kqF/hi5Xiz9KVaYKHA6MjZoPQi9o8hz2XReM5mTv+Ew34KSZyRk6w6oXwRqwOmmNcA/4HpQrPe5HlN96e03uXYY0q39/wR8XO8ZaTHBN/mQP2Vyd6qXL1edpadG45MXWdk14G+reBhrsmdxhSCgtaKE0fWWIYgLP5euDnG0CB2upvyna0w0bKdMNWFUOJQezfHJFCbjrj7TW6OdzH6I/9aoLKU+5qRYDVosTze6jOMKxZLUBr2no9sJPGfoHunonJbgOj04TZQpDG1HUwCZjgSANGGG5fdUFNZ7luh9we+wg65PpBkyOHqjOC1ENd0SovrWKEzf/iLDQiy5gbscfqzVIzYnfLbOTXZXXxI4wIt0d96VwCXCJlhaNa1reOtnDNJB3oOxctXFXtrQydOl41LzKKrEOHJRTneytAY/Q0KLxQXcdMTDodFW4ahL6+eyhpuvlh/S0/1/g2lmR5UtiAT8bkZSmLRuEXob+OZmu3klOmaa4YwQ9nJBnxz4J9/lXXZnV47LcGppJf2HsGOuT2Qbc1NT0Jq/ZzZdbGrABKK2j/dIQ9DZFrvCDLOS8woNhgmWZ/DV2gnURAu4TnRXdHfd5uAC4QDtvelXCyinqOBbVtzPaRWQkDTeLXXRVZq+M5FUOljDObIPzOZnFljtOwj2dI7SM8H2/R/UK7+UK5nXU35f+eni4JZuPToOK3hw7Q1X1HPZ8ClcBV3H8goRJEw51yrEI72AkS4F61xwuXMDfSzNE2ZnTK9tzduGR2FHWJbMNWFUOlZxNcM2FQTeyprmOahv/Urkf1QUe/13KQ6tRNaSVrbfSMrASRnjwUkUCt8TOUDNDzx0v8bAEmPnPS9WicrwKh7Axy/Q6H+6SvdBit4DDSwbl0BQWxM6xLhltwCoifW+KnaIeNYlvCXcNWlatdxa08CDoT+ph9nIw8ycPSLHyW4XMfb7TJG2cBvxKa1yq5rT+iUmTHq3oMQyt073JWt+jSZgZ0ACavQOyeqDoIVgDHqZi/97AFrFj1CPVgJNQRFf9W/8VHsTrAu/cFXS3Z3oGYiw6dKaZtQb8CGdPzfcGCaGc1/ZkCt8DvsfM68cnrnnq6vvGxwAT1nhlwAl10mKPXIYnGd8ZKZMNOEEn20exSqQql6AfARZ6dVdQfutvcrc4Ro2J6i0qcmrsHK9wY+wAmXTu1BfXvG/ctOvEt3rnj0N5F35VsDNgh7bYL014Cgdw6i2tzJ88EDvL2mSyAedpP8fcER+sAXulD+ij9cab8rIMZBak+FscSewYr9S4l5831sLp6SBUgAql0kmBq9do8ZCG00zLwEEM3evPnEw2YKwBV48GfHa3XMjkhzrzeo58lGLlAWCX2FH+yYtYAx6OwAecahsxVI2DyT6jDTh7T0Sc1j8R2D12jHqlTreMncEAIll65OdFxsqdsUM0OJvzUiVZvqKauQacNOmh2BPp1aPOGnAW+Oxc8lX4TdYXrW8Am8UOUK+GJmJpJntK5hqwqtr+v9U1YcMvMdXmNTuXfKXeF+DIuqFld+0xpOqZQGf/a2OHWJvMNWDJwfJh+WaXoDPhgSf+QMCtIUfD2QSsuFyLXX6usiSjG/tkqwGXFrSocmDsGPVM7Qw4GxZOTxXNwuIkKwfHrrQGHNPAwBOifEDhamBF7Dj1KKv3gbM1C3rZhP0RQu+wY15yt1Mus0Vns8GpXKHC22NmUPgZpaODbKlnRujCo1ekcClwqc5espXzqz4KdGH3hcORbDbgTJ0Bu4wepdSBOwQ5xpfb9017Ct+OHcYMScfd+H2F/ogRnlHRmRHHN68094gnfLnQ7b3bc/UZsQljT7puzNyl/kw14KwepeSYBz7vW92b0nL7z2yFqowplby2rninwuIIoz/iRY+ku+O+CGObDZnX9pjet/R4lG/GjlInXCKrMjfBN1sN2M6AQ0pF+ZAvF86yR0wyrHT0c1punyqqHwL+rwYjPg+c66VlX7o7bq3BeGakFk5PfU/7DODLsaPUA9XsTcTKTgM+rbIzsH3sGHXCi/LhtKdwaewgZmOIpj0d3/WtN+4tcKygv67CIE8gfNGvXLWLLxdm0X3401UYwwQn6suFUxHOjp0k7zSDe8xn5uHkpKtygio/iJ2jDniB/0zLhW/EDmJGobj4MBFXFOXtjOb3VHgQ1fm+deAblKYtCxfQ1FrS1fteVbkE2DR2lpx60be6zbN0RTAzZ8BZnSaeM8+J13dY860D5Sk3aXdhmvfuDQiXAsObvK7cJcgH/Vi3my93XGDNN//S7o4rPH5f4BvAqth5cmg8L/rXxw6xpsycAbti5XbgDbFz5JQqXKmeLuYV7o0dxlRBV+8kByejMgMYu66XiXIzQjktt//UJt3VsVP6N0/G+ENUOVhFDxCR/VF2rtJoTwErgYlk7dHV4VJO8j2Fi2LH+KdsNOBS/yZuwD9N3n+4tfUAyq8Q/Z1Pkms5p+2u2IFMDXT+YjsnTSeDfgh49eo/XanoIkW/THlKFhb3MDGcet2WNDW9LhEmqeM14Cap6rYCE1DZEtEtgfFreedzwDMIz6hyn4j+SdTdlUr6J3zrPfQc9vy/Xtm5eC8n8jaQjwCvq9HfLBzlh76ncGLsGP+UiQbc1FVp90oldo5AlgEPCAyoMBFlG0a31+cA8Jehf+SvItyR+sFf0XPko0HSmnwq9Tfx4qpdcTIWbX3gZV+SxmxIaUELy7cdz9jKsyPaWrFUcsnAYScqcgGQn+VthQd9dyEz24BmogG7YuVzwJmxc4zCP4BveO+uZF7b7172X0olx/OH79jUrLt7ld0R3RGVVlTH4aQVTxPo8yBPI7yA8owgf0uRR2lKHuGcwx+zS4nGmEyaef2urqnpxyiZure6Pr6JHTi78EjsHJCRBizFyrUCb4udYwRSYL5vXXGmLednjGlIs/q3cYn/dRXvQQclwvS0u7Awdg7IwizoUskJvDl2jBF4QeBdvlyYZc3XGNOw5rU95lOOY7gz9SPJ0vPA8RvwwBF7AZlbo3MDUqd6bFouLIodxBhjoptXuAMlF+vMS4YeeY3egLO6T+N6KV8Y7OmIuYi+qbbSonHM6d2aUin674gxeeATnRc7w8ZQOIBTb8nErnvRH/vJ3QIcKg/5geXnxo5hRun4BQmv3Ww7Bpt2TYRJik4CN0m8TlJhEgNsDcDA4U9S7J3ryx3nR05sTLbN7fgLxcqdwH6xo2xAMy0DBwFLYgeJ3oCBzO1QsV7iv8yFR9um2VlXWtDCixN2JPE7Jl52VmQXhJ0VdhHYGdiRQZphaBWTofmIiv77tMSJIOe5zkqr7ynYerwbq9TflAz4D3vhGFTGifAPlH8gPCzoY2mqD9PEPxgz8LCt0lVXlpD9BoyDyb7hG/Bp/RPBvzZqhmHy3tt93yw4rX8izYM7JprspMrOoDsh7CTojgo7MyDb4BDUvaypjnjav3A6pf4LKLW9ECJ+XTt+QSLL/E9UOHroATqFfz5It/pfnZOhzTIHxkGx8jzwsMJjAo8Aj6E8IiKPp5I+iiZP4JoeZ+4RT0T6G5mNpg9k5OGa9crKldeoDThp8odoHn5aL3mMeUf+NXaIuje7dwKSbJukfkeUbVR0R5AdFN1JkB2BXcCPQx3Kyz9BWr2PUysr9HXAb6o1QL1wk7b8GHD0MN7yKmAvgb3+9ScCiuLUAQp+FRQrg8DjoI8r8ndBn1h9Vv2YwOOi/GNQ9DF80xOM/+XjI1pgIqvmLNmWVenWiG9B/P9RnvJs7EhrI8jzeVi0QOCQoetdcddYiNqAs3IUsvH0sdgJ1quzfwdcui2pf4bBTR5m/uSB2JFeptQ/luXpdqhulyA7qLhtUd0RZRtx7KDKdsD2eMaC519Xhlc3VYl9rDY4+FTcAPmgyDuq9JNqArYD2U5gf5B/HXwpoAIOAedh4HClWFkKLBXlSe9YKspSYCnCk+L1SWBpqiyliaUIS2lJlmZnpxyVps7+di+cgHIk6aodX5oy66Cz7yF1eqfAneL1dynJr+lpezhmYgBVmZiTdYMm0tn/Wnpq5qxOJwAAIABJREFUsgf3OkVtwAKTc/GjWk1w2bn8WOrfpGm5P9h7DlHHm0V5E/ithr6FEmgZWCldld+ocq1Xd1ktfzldsXISsCuwlcK2AtsAWzPgJw59Y8pQc9XVP3156V8z7B67+rHR1rlZRA0JQ5sHTFRhj5f1BAWVoc7thKFL4QADHoqVZ4AnBJ7xyLOgzzjhB2l34eqapC4u3sxp8kGk77887Pmvv8krie4oyo7AMSqCw0Oxch+wRIRfpqm7jnlttT9hEM3NLcUEnZzSqA14xm3NyrMHRRt/BBTdNmqAYt9+Dn2bCEfpgD/UQxPrvojSosrhwOFO/Fna2bfYwTfSZzZdxCUHVnsrs8OB4yFf9xfWS/h+7Ah5IUOX6dti5xihzYHNlX8dJpJ6Vw45QFOxb6pHJ4nwDDCIaqIqr1Fhf4GjEN1khKUnAZNU+ZBz3kux938V+Yl37sfMbftzwL/COqhAZWpefutVOATiPrscrwFv8dxrgUw8izUMO3LqLa01vbTb2X+gE/9eYDroTjCis8VERI9SOMpt8ewLUqzcoSL34/0KhCaHWzBYbr8+VGQn+i2vcnyoehmgHndZ7BB54ZHLHdoVO0cQyl30tN0WsqRHzwf2fun3WNa8mh6KU+TNwJud93OlWLlVle/5RH/I3I6lYYca0tRVmepV4p6kDINkYLZ2tAacwOuyf9Xx37QkzcunpHBNVUc5vbK9WyUfQfQD4HcLXH0ThSNQPYLVl+FS0YlAsAY8eO9Ti92kCQ8DO4SqGZMov6bcdk/sHLlRbr+TzspdCPvEjjJqTr8TtF7n4r2AvYPW3AgKByEc5LycR2flSu/8PLqn/DbgCKLa98Vw9apPYS8iT8SKtsqPKnvEGns0VPT/VatyU1fvUVLs/bEb5AFEvwSEbr5rJcqRlK7dNFjBhdNTRHOxLN3GUMTOfofLUQ//z1Z4afleyIKO5D0h641AC8IJTt0dUqxc39RVaQ9R1HX1dSocHKJWDb3q/7d35wFylVXex7/nuZ0m1YgQFkUcXBj30VEh4zgISHVViAKKBAiJIqJgHBfQCOnqgGChkq7qTgRFFBl1XBkMCLyDsvWGCQRU4qCCsggIyKJAQljSWfo+5/0jIASydHXfW8+tqvP5k/Q995dQXafuU/eeh67+oFfs4cbsiTba/OdnHE73QILfXatE3YOHutLQcq9yhSCHUP+VicnRSPv7kyzovT8XSPu75npY5yP/09AhGo2PRs/n2dubGpT+NPFnj0UPS7TeBAgc4JVBKQ1ezryrXzveOlHX0AyUxhxSE7kdQp4+XANWtgt27omRSOVblC/rmGihaN7Awa576CZVLgbenkC2cfOQ7Cfz3gMeQOXiRGsGoOgVaX1n1tTOmH6fwi9Dx5gIr3JOogXnD7yODHzv+HwC73Uu+oMrDZ3BSVdtO/YjVVz30FwVXQxEqQVMUxwlt/I3DgGvgDMxBnNcFPaSkdz5lIfH93founo3KQ3+TJ1clpWNrAWZzueGE/006CPOTrJeCE6bYik1CCeNu3Qv8Ct6C79OsqZTOTrJegnbBvRkF0V3uNLg8ZSHt/AomQrd/ftHpaEbUP0qjdp8ASINmj1cExR9fFODdxuFIIe4NX4gnjc8a8zP2x2xOHJ77PifIAuAoJ+8NmGya9cPevhmYhV7Oq+TrsHrVHhXYjXr67G4I/p56BCNKtb4Zw53Dtl4Lrg2Kr2J1iuXHavl6OwPqZCXAV93I36Blgb7RfQ6Uf6G8qSK7I7wOnTo/ah7Rdb/JmPi46B7uYe8Cs3kKLVaqPJu5/wfKA30+Vz0zc3OCS6XXduafQ7wSDUrV7ybJHosSTZgAJEe0MZsYspFlPNrQsdoWNVpqygNXsbTz4Q3kFvjjiWXJlmwbc2+RS+6e5I1U/YigUNROfTZiXQ8O9O7eQTtQ8EasHi5u4EvgJ9rZ5CqG/GnaWngGhFZKl4fwrFGlV1R3sSIHOxht9BBx2BP5g2/jb78TUkVjKv5y11p8CaQtyVVs1688KPQGRqdqPxYRRuqAYtIX9JzpL3y0STrmUSsJdf2QMgAwRpwDLc02U7n2wpyEMpBKvLsJ8UG+5DhIn+sh+OTqygqMvQVVb0ouZp1INxDpXNp6BiNLu545Eo3stOjwE6hs4zRXfGKFyf7wWvulTsCH0i0ppk44bbQs7/D9cAO90ea4zGV5qJ8KIk7vJ8rruQvFjTRaUKpU/lJ6J1SmkJ55jpgcegYYyXI6UmPanXtbcfRiN+DN7/fhQ4QrgGX80+KcEOw85vNmeJGOj6SbElRUU5Otma6PJwfOkOz8E4aZY727XFOkv3/fsTiCOSTidY0iRDVq0NnCLoKrF6uCHl+s1mfpVxO9LUx2lvsVxhKsmZaBL2RauctoXM0jZ78MuCu0DG2RlTmJ70kGb16x0OBVyVZ0yTCx649sfG74xX0WVyvutgJXyHwBwHzAq+PRvZ7bwy/SLKoeneiOH8jGX9uUMVl++p37rKc22bNZ1S1COJEGfIdcvZm78IPThSGLgDN7CqICL+Mq53JD44R99lmvHW40SkylPiUs3EI2/j6Cncq2h80g9kkj85NvGhf/iaQ7yReN1mxd20XhA6xWeXhF7n2kWtR7RU4QNAiogvcan89pf7tQ8fbHB9nepxnHMfuc4lX7Rqequg+idc1E+aEc0NngNANGHCeb4TOYF5IoMC8wT2Trutd26nAY0nXTYoiwyzY78HQOTbHjWgFeOH/F+HNDndm/RON0cLi74E/hY6xGd9L8tG7Z4j4U5KuaRJxbzxZ/l/oEJCBBhz3FX8uyLWhc5gXEqenJV50w7JPZpcinWp2l5+7+t8I+okt/MRHKPW/pW55aqVk8Sr4Ye90fuJVS/1vETgk8bpmwgQ5NfTjR88I3oABYpV52BclmSPI++nuT3yTCJ9b+m1Rrku6bgLWxOIzu4GEOFdhy/dtOFFXqVeeWnkkc0v7opyYxmYbTqNTaLgpAK1Ab4pzSzIzozwTDZje/A1gS9EZJKIu+avgctnHkc4B1iVeewIUfk51WjZHpM4bercoW90yUoQDmTf07npEqllv522giS/1jpfCYNzbmfyb8fzhN9Bg079axHov7rikp5xNRDYaMODX5UrAH0PnMBsTOIR5w8mPkewp/hGVryRedwKcZPXZX5XI+YVj/enIaZXM7nQiWVmGfkLj0Y+nMWzFef9FMvTeap6hZSqdy0OneK7svEjO3HvE42cBT4WOYjYi4vyCNAr7DukR+FUatcdhZfzU2stDh9iUqDQ8W5GpY/15hX+PugYzs/H7c/l49Kdk4OsmgRNZOP3uxAt3DU8Fjky8rpkQhX5/14pq6BzPl50GDFCd9gfZsCNP8F9Q8yyB97Z1DxQTL1zOj8ZOjwZWJ167VsrPOPvAtaFjvMDcZTkVrfkDkIosoLy4PY1IE7Jw+t0Cie6zWytVLo+rnak8Dieifdh3v1nzF3U6mwtnxqGDPF+2GjAQV4o/BRaFzmE25lUWJj0dC4Ce4u0IJyZet0aObN797CaNdKG8chyHvtaN7PiZxAMlQCXoMvTfVN2xaSw9R6WhgwTdP+m6ZkJGvPgZadxol4TMNWAAn3PzFQZD5zAbeWu0et+EZ0Rv4CuFcwk7sP+vox3X/jLg+TftxMFXIpTGX0BOZf6SXZILlAwf6WIgxI0w3ql+mL78Q4lXPmJxpGjmljhbnaBzqEz7v9A5NieTDZhyflRH3SyEe0JHMc9S4SuUh1+URm2fW/tx4I40ao/BBVm6M/IZ0qaLgNwESuzg4vVfSipPYs4o3C8Q4Nl/qYz2FlOZvOdevfOngX9Jo7YZJ9Gvx9ViZh452pRsNmCARflHPHIYMBI6ivmH3dyInp5K5fKBj3vvZhLg+2AvPnPLz21dQwXZ8PqfGOHjWRzOoVrfZWiFq31OvphK8XnDuyKavQ86LUxgiV+xw0mhc2xNdhswQKVzuaBzQscwz6UnpDGcA4C+/E0icjT1vQnv1swtUZWH27xoUmMlI8GdlVCtxPio7UKgXtOIbtW17si0ph855xcBmZ3D3Xr0wVjj2Unv65yGbDdgIK4Wf4zYkI4MaYtUvpnKDVlAXOn8GVDP79Iyt1etW+0/AyR21SrQGXUNbXWIR1317PewItfU4UyPes/BnJVPZf54W9dAHpidRm0zLmu9c4fSe8ADoYOMReYbMIBfsf3nbV50dijyTrdm39RWJnxu6SkKl6VVf6NzOQ1589cLnXTVSxDKSZdV0UVZeyxJ8BelfIp13sth9BXuTKV6eXiyF/km9thRZojwGXo6szJbYKsaogFz3tT1sZcjgIb4VNMSlB5OuWr3VGqXy17j0dnpPy+qN9FTvD3dc9TGRVEP6Sxnvsat2fmzKdQdNx/HlwCpPZspqp+irzO1u9vd6vhLwBvSqm9qpHpeXClkfbvTjTRGAwboyz/knR5OxuYHt7AdZLTtu6mNPFw4/anYTToY+HMq9QHUZevqt2vwHSDHpFZf9QucPPDS1OrXauH0vyssSat63Fv8bkq1oTS4NyKfT62+qYmgN/iRdSeEzlGrxmnAAD3F60Eb7h+5WQlMc13Dn0ztBD37Pew97wFNZX9e7+TCNOqOS7nsIuHrpPs7+WIXuzNSrF8zUUlhGVq+66udXcnXfdrcZTkH/w1EqZ3D1OKhuE0Oz+Qku61orAYM+Grx2yDpfbI1tRHtpXv4NanV7yvc6XHTgEeSLCuwnEo+vavrGkWr9/2Iwr+nfyb9KPMG90z/PGPjVS4m0aEc+kOfWzInjUlXz3DtIwuA16VV39Rkvfc6kzMK94cOMh4N14AB/Oo1nw49T9b8w7aR9z9kzo2TUjtDtfMW75kOJHYnq5Khm69K/dur0FOns7nIydcys1tSX/6hBIdynO/vWvGxNIeqRPOHDgQy9V16izuRvuLS0CHGqyEbMGcfuDZWdxjw99BRDKjwH26Hx9Jd2uwr/NYr04GVCVRTH8eZWX52RKcBdftuVtF9ou7BmfU639YoJLEMfaHPuY+kOnC/6+rd1Ov3sbueM0J/6KuFs0OnmIjGbMAAvfm/ejgUuykrG0ROikpDh6R6jt7Cr713ncDDEykj8OtUtqIbj67+N4IeX+/TqspCTrpq23qfd1O8dxcygWVohUv8yu0/lNagDQDKZScS/RDI3Gzt1qQ3+dxIevef1EnjNmCAamEZaHo3W5haiKLfpdT/ilTP0pe/ySP5idyYpaKZufoVcV8D0lu+37x/clEUfBcqYMMytHL9OI9erLlHZ6U99ciN7PMFgUKa5zBj9ogflQ9Qfl/4bUwnqLEbMOCrxa8hkrlpRi1qp0jdBakPfKh23uLj+F3AbeM4Wv36NO68rV3UPXiowLRwCaSU2rPcNRrXhyLhGz63dDblmamugkWlwfeCnJbmOcyYxU50NosKTbFRT8M3YAA/+ak5oDeFzmGe/j549U7npH6ihdPv9qNuH0FvqOUwUW7IxC/v3GU5VQm973WHG22rBM4AgG+LL2bsM8AV5Qu+Ujg+9V2suoZer3A+9shRNojMH60UB0LHSEpTNGDK71vt43gGkMlNl1uOcJwrDaR/p+ii/CNxbqSg6M/GeoiG3Xf4H1z76nmgrw6dA5hNaXDv0CE4Y/p9go5lhOAaQT/oewvpP89c6t/eiV4K7JD6ucxYLPaV/MLQIZLUHA0YYOH0u53wQVIcbWdqIQvbugbSX14tv2+1VgtHIJzO1q+gvMeFX34+cfCVIKXQMZ4mEfq1tDbXqIXC1pahH/JO9o+rxQtSD1MuO0F+go2azAblZp9zx6b5fHcIwX/pkjRaKVwNfCF0DgNAmxf5KV1Dr0//VKK+UiiL6kzgyc3/FNfTm/9r+nm2TNo4E+gIneMZikyNRvY9NnQOPyo/YzMfogSW+bbRd9Rr0L5bs8+ZghxUj3OZrXrMO3co5fxmf7cbVVM1YABf7azWsiRpUjXFiV7JyUteVo+Txb3Fi7z6dwC3bOrPFQm+/ByVhg6SDY/PZYpCD/MHdgoaYlHhHkGXP++/KkhvnHPv5ozp99UjhusemoeKjbzNBi/IUVmaWpekpmvAIKq56BiUm0MnMQC8yo2uv5rupVPqcrbeaX/yOTcV+K/n/Yn3kwJ/MJu7LKfo14Nm2LydXMyC0CGetw3lI+LkYF/tLKX6jO9zRKWBWahm4sY0A6iU42rnL0LHSEsTNmCgnH/SR3oYsCp0FAMIb45Ydwnl4cl1OV85v8ZXC3ME/TBPvwZEuT70vFjXPnIysEfIDFskchzzh+owj3rzvI/+d0MUlvo23hb3dF5er3O3dQ0VFPkBzfq+2GBU+F/fm/9K6Bxpat4XWk/xdoEPk+igdzNeqrxbRvxPKA+31euccbX4Y4//V0WuCT58Y/7A64B5QTNsnYu8nsMRi8M9ctO3/+9AT4wnu866fmAqDe7tN9zxnO4z7GasblP1RzfbTVfP17wNGIirhcsQvhw6h9lAYIYb8T+q6xt8ddq9mltS8HEcdKNu8fINYJuQGcZCYS/36p0/ES6BqK8Wv1qvJWcAugbf4eBy4EV1O6fZkie80xlUpzX9CmYLDBVXkdLQRQIzQicx/7DY51y6s3szJCoNzFLkf0LnqMFKH4++gYXTm3+zk9LQWx06BOwYOooBQEU4Mq4UMjMuNk1NfQW8gaiudccCd4ROYv5hplvjvxd0qbNeype/WAk+8apWU1yUjQlZqdrQfAex5psdopVWab7QEg0YOCv/mEcOZQvPiJo6Uz7s9tjp+/X8TjgEN7LN6cBuoXOMwzGZmJCVlq7hdzp0GAj76JX5B0Wv8neuODV0jnpqgSXoZ0VdAx9QkYtpsb93lqnwc12bm8mZe4+EzpK4Uv9bHG45YXY7SsIffM7t2XRfFXT37+/U/S+wXego5mnCPX69m8qi/COho9RTa1wBPy3uLV4K0hc6h3mWKAdH7SNXUurfPnSWZKlEuHNp3OYL8BY34ht+z9XniuYNHOzUXYE13ywZ8TEzWq35Qos1YAB/1yMnK/SHzmGepbCfQ67h5IGXhs6SlKhr8GMKzbCE+2XmDe8aOkQSoq6BY9XJJUB9nkc3YyLIcfQVfhs6Rwgt14C5cGas69bPAu4KHcU8l7zNxXIj3f1vD51kwuZeuaOK9ISOkZDtXeR7Q4eYGBXXPVhWke8ATX3PQeORr8bVzvNDpwil9RowwJnvWeHFHw403/eOje2fnLprovlDB4YOMhGuva0P2CV0jsQoR1Ea3C90jHGZuywnpaHFKF8MHcVsTJFrfC4zu4IF0dI3I0WlgaMU+VHoHOYFYtATfbX4tdBBalYa3M/BNTTb75Zys+9wb2+oG7JOXvKyKF5/iULQ8ZpmE1Tu83791JZ41nwLWvMK+GlxtfhjJLPD8VtZBHKW6xr8r7rNj05CeXG7g3NptuYLILzZjcSNs0NQqX8fF69bbs03k9Z45w9r9eYLLd6AAfyKHU4SWBI6h9kE4Tg34q+jeyC7Gxg8h1u9cwl4Y+gc6ZFT67ar1QS4rqETHG4IpC7bYJraiMinqRR/EzpHFrR8A+a8qevjSGcCwTdqN5u0p1O5MSoNvi90kK3xooMIZwj8CohD50nIQ4j8QNDZ3ulrqOy7MnSgzTrpqm1dafAniH6Nxn78q3kp58aVzu+FjpEVzbdUNl7zh/7def0lDTAwv0UpSJ/PPXIq5ZnrQofZqu6lUyLWd6oyDXQaWd6GcGNPKfIbQa/y4q+iUrypIXak6R7ay6n+BHh96Chm0wSWxblH8w3x+1sn1oCfIyoNHa3oD0LnMFug3OxFjqLa+bvQUWryueEd2Gb0zQ7ZC5G9UPZiQ7MIOQ/7SVF+p06Xi7rlsXALkx/5Q2O9Qaq40uAJIL3YVoJZ9pBvY2roPbmzxhrw87iugW8jMid0DrNFI6h0+9782Q1xdbY5J121LZOif428e62q7o7wchV2F3gFysuZ+JziUVQeFOEeRe9FuQ/R+wS5N1a5nY4ld1AuN+5+2adctbuMTvqhoPuHjmK2aL13kqen87rQQbLGGvDzHX/5NlFH+zWKvDN0FLNlCv0qbg6V/F9CZ0nF3GU5oid2pa09At0e8e1tyrbqXQdOt2HDUIlRgVXA6CiyCidr8fFqHE/RHj3aUI8NjZmKKw3OAakCTTbCtAmpfNr3dn4zdIwssga8KfOGd3XOL6cxd7FpNasRvuTvfHQhF85slhufzOZ0D+whKucJFEJHMWMg/MhXCkeHjpFVdhf0pvTlH/JeZwHrQ0cxW9WBUon22PGGphhjaTbLlQY+61RutubbGAS90U929nXeFlgD3py+4lLgxNAxzNgoMtWp+3UzbehgNqbIPkAudA4zJg/H6GGU82tCB8kya8Bb4KuFsxFsVGWjUG5lQfFvoWOYdDjVn4fOYMZk1AmzqE67N3SQrLMGvBV+spsj6I2hc5gxEAZCRzDpiWO5JnQGMxZaGq0UhkKnaATWgLemnF8TS3QE0HKbRTcaUfug1NQWFe4BfTB0DLNFF/hq8auhQzQKa8BjUcn/xanMAprwkY7mEauzcaJNTsAGOWSV8Hsfjx4XOkYjsQY8RqO9nYOInBw6h9kSfSJ0ApMuj2R3FnVrW+ljZrBw+lOhgzQSa8A18JX8QlR+GjqH2bQ20YlOjjIZJ7Bz6AzmBbw4OYq+wp2hgzQaa8A1EfUdchzKzaGTmBdS514dOoNJ3StDBzDPo5wW93ReHjpGI7IGXKty/kmv8QzgsdBRzMZU+efQGUyKThzeGdgxdAzzLIVLfW/ngtA5GpU14PHoO+AOQY4CGneQfRNS9DWJFz3+ctueslZzbpzE/IE3JV63zSdf00zErZpb+5GG3hAlMGvA4xRXO38BenroHOZZDk12dvcRiyPXsc31rjS43JUGu5k3aFfYm3PE4qite7DTlQbPc1NWPei8LKdrKNG9eSOR5D9gmfF63Dt3KOUDHw8dpJG1hQ7QyHy18GXpHtpLlPeHzmJAkUSvVt0eO34WeGa+9J7O0UNp8LfAJV7kCir537b0p//yZR3RSEdBkYNAD/HKrs/940j0e/GcG/fnvKmJzFRXz4ts+5hMUFH9CD35W0MHaXTWgCdEVLX/aMH9ig2bq5uwkmuGXcPvBN+ziT/ZE9jTqX6Z0tBDMHiFCFfEMukaevZ7OLHzZ1VX/xudSKciB8kIeYXJm/tnV9jbTVlV9fD5RM7t/CTUOnBwwoK4Wrw0dIxmYA14oqrTVvn5AzOclxuA7ULHaXHJPAbRPfBvTv0vgPat/OSuwEdV+ajT9Upp8E8oS0RkaayyhN58Yw8GOWJxxB5T3uTUvRthP2A/4KVQ0z6mc1334OO+UihPNI4g97buckM2KFyhk5eeFjpHs7CPkwmJuoZmqOhF2L9pOCon+97OTV21jrlA1DX4MRU5k2Q+TD2kym/F6XJRtzwe1ZtY1HlvJpety4vbWbfL66JR/3Z1OlW87KXC24BtkzmB/tCvjT7LWfnxPz0wf+BNzsstyeQx43Cnl/Z/o7KvDUNJiDWLBLnugQWozA+do0Wt9xq/it4DHhjX0d3DrxH15wgckHCu51sN3IbK7Qi3ieqfY5V7ieR+JvPXVLdv6146BTf68ijWVyr+n1B5rYq+QZDXA68i/RWxB0T103Hv+Jcvo9LgrxX+LclQZkye8rHuzcLi70MHaSbWgJN0xOJI9tjxF4JMDx2lBV3gq4XZNR9VLjs3su/JwCnA5MRT1e5h4CGBlV54TJCVqK5EdARk1YYf0VHBPQGgqhHCiwHwtAHb4XQ7vExRYQeHTlFkCrA70BHkb/Q8CpeqmzRnPN+ZR6WhoxX9QRq5zOYJOjuuFi8InaPZWANO2twrd3Ttk34D7BE6SgtR792e9OVvqumo7qVTxK8/X0Tfk1Iuszkq93nnD6NS/E1Nx825cZKbsurPwCvSCWZeQFnkewsnhY7RjOw54KSd+Z4VPtZDARtKXicKV9bcfOcuy0V+3S+s+QYiurtTuWbD3eY1OG/qelQWpZTKPI/CkO9w3aFzNCtrwGlYWPy9IHNCx2gV6qVa6zGufeR7KvxHGnnMmHU48Zcyf8kutRzkO576DhuW6k267lU3aRblvG3DmhJrwCmJq53nA2eFztHsRFhKX+cvazqoe2gv4Mh0EpkavdTF60s1HVF+32qgN5045mlrvOjhLfFse0DWgFPkc26eIteEztHMYqXm5TFBy9j9D9khfKrmq+B1uXOAxn7OOsNE+GTN38+bmlkDTlM5P6rOHw5yd+gozUiVy6kWltV0UFf/G0U5MKVIZnxyLh79z5qOOHPvEdCvpJSntQnfiCuF74eO0QqsAaetp/ioF38kkN7zna1pvYqv+erXOTcfe91nj+inat15yq/c4XvAn1JK1JJEuc6v2D6Z0aFmq+yNqB4qxd+IyKdDx2gucibVaX+o6ZBS/ytQZqUUyEzMrlGuvbb/N+dNXe9ET0gpTyt6IG6bdERSm2eYrbMGXCdxpfN7KOeGztEUhHt8vP5LtR7mxM0BJqWQyCRBan9yYLRSHFC4KI04LWa99zqLBfs9GDpIK7EGXEe+49HPinJ96BwNTp3KJ1g4vbbnrMvDbSgfTSmTSYDC3nT1v7Hm49pGPw88mUKk1iGcQF9xaegYrcYacD2VZ66L1c0A7g8dpWEp3x6tdl5V62HR6vhgYLcUEpkEOYmOqfmgM6bfh0ptjzKZZwk/8pWCrc4FYA243vryD3knRwL2PUvt7vQdbt54DvRO7Oq3IejRHLE4qvUo35v/lsJgGomamcBv/GRnQ4MCsQYcQk/ndaBzQ8doMKMejqacr32psdS/vSi2QUZj2JVX7bxP7YeJ6ijHAo8nnqh5/T1uGz0s1R24zBZZAw7EV4vngHw3dI6Gocyr+Znfp0Xq3g/U9IiLCcc5PWxcBy4q3CPCMUD29lvOnlERf3tWAAAKgElEQVQv/kjOmH5f6CCtzBpwQD4nnxGwaTNb92PfWxj3WE8vHJFkGJO6GaDjmlQWVwqXoDamcuv0JCrTbEpfYNaAQyrn18T4w7HB8psl6I1+XW7831HNXZYTKCYYyaTv5XRds9d4D/Z3P3qKwtVJBmoy5/tq8WuhQxhrwOFVp93rhFmA7TjyQn+K4/igDWMHx6dtm5F9gVyCmUwdOHTauA++cGas0j4L+G1yiZrG73xu9cdDhzAbWAPOgNFKYQhR23NzY3d4jYssnP73iRTxngOSCmTqR0UntmpR2XelX+sKgt6YUKRmsNJ7Dnt6NymTAdaAM8JXiouAC0LnyIg/+zby9B7wwIQriTXgRiTwLsqXdUyoyFn5x2LHe0BvSihWI4sdMpu+wp2hg5hnWQPOEB+PHgfUNt+4+dzvxU3jjMLEh5V0Xbsd8C8Tj2QC2IancuP+HvgfeoqPetd+APDniUdqYCqnjmeAjUmXNeAsWTj9Ke85FFgZOkoga32sB1LJ/yWRajLyVuw13rCck7clUqhnv4e9uPfSor9XChf73nwldA7zQvbmlDV9hTud6pFAHDpK3QkLWVj8fVLlHO7tSdUyIWgyDRigkv8z8MXE6jWO2zS39qMg9mx0BlkDzqDR3mI/2nJvFk/40dGeZEvKW5OtZ+oroSvgp/mc+xZwV5I1M26VVzmE8oE2HSyjrAFnlO/tXNBS26yJXFzzDkdbofDKJOuZunt1otXK+VHg/ERrZpeKysfo7bwtdBCzedaAM0tUc2uPBW4NnaQeRJMfnCDoTknXNHW1A+XF7UkW9MplSdbLLvly3Nt5cegUZsusAWdZ+cDHvdNDgFWho6QtVk3jLtVdUqhp6kdYvctLkq3om/6KUOFqf9cjXwqdw2ydNeCs6yneLqrNP2DeuQkN3NiMHVOoaerJ6UsTrVedtgpI9KuOjLlD17ojuXBm693E2YCsATeAuLd4KcKC0DlSpaPbJVpv7pU7AhMb5GCCi5Rdk62oQvOOJn3SR24GZ+UfCx3EjI014AbhJy89TeGK0DnS0ka0W6IFt2n750TrmUA02dfFyYMvoTnf91SQY1mQvzl0EDN2zfhCbE7lsldp/xDQlKPkvGo+yXrOy7uSrGfCUEnwWWAgGnXN+bpQXRhXOxeHjmFqYw24kVT2XeljnUEzfoclHEK5nNjrUYTZSdUyAal8IMnXhYoenFStrFBkwN+9Yn7oHKZ21oAbzcLi7wU9LnSMFLwhWr3PjCQKtXUN5BXekUQtE9xuSb0uOHnJy4APJlIrO/6iozLbbrpqTNaAG1BcLV6Asih0jqSpSA/ly188oSLHX76NFzk7oUgmA1Skj7nLJnzjlIvXLwC2SSBSVox4z2Esyj8SOogZH2vADcp3uG6FodA5EvYaGdnm++NfclRxHdt8H9sBqdm8yk1a898TWYqOugeOBI5JMFNwonyCvsJvQ+cw4yehA5gJmL9kF+fX3wi8InSUJClcrOtyR3Hm3iNjPmjuspxrH/kmTfYmazbyLZ9zJzw9UnLMotLALEW+T3Nd/Z7tq4UTQocwE2MNuNF1DU914pcCk0NHSZRys3f+eCrTrtnqz84fepfz/htJD+832SPK9bFzRz+9u9GWlfq3d0Sngc6lid7rRFgar9i+wHlT14fOYiamaV6UrSzqHjxGlf8OnSMNIvxSVf/Hez/Eto/dQ3nmOsrDbazhVU7jgiIzBTpD5zR1NYpyoUO+O9rx1PWU37d6oz8tDf2LE38kKnOAZCdphXe/j3QvFhT/FjqImThrwE3CdQ+cg8qnQudIWcyGR7AmdqOWaSbrgLsEnlCIgNcCyU5Vy461Xt3+9OZvCB3EJKMtdACTDL9ih89FU1a9WWG/0FlSFGHN12ysHXhDcw9K30DgeGu+zcXugm4W501dH0c6E7g/dBRjTMJEfhBXC/8VOoZJljXgZrKg+Dev7nBgbegoxphkCPzKP7XmE6FzmORZA242vfkbED4XOoYxJhF/i9UdztkH2ofqJmQNuAn5SuFclO+EzmGMmZBR7+VIevN/DR3EpMMacJPyI2s/I/Dr0DmMMeP2efo6fxk6hEmPPYbUzE65anc32nYj8JLQUYwxNRD5ia90HhU6hkmXXQE3szOm3+edzABsYo4xjeN3fvJTc0KHMOmzBtzsejqvQ6QUOoYxZkxWeNEZL5juZZqSNeAW4CudZyLyg9A5jDFb5J3oh6gU7wodxNSHNeAW4ddO/qTA8tA5jDGbo/NHK8UrQ6cw9WM3YbWSEwdf6dq4Edg5dBRjzLMULtFq52EgrTBV0zzNroBbyaLCPU50Nhs2NTDGZMOtmlt7jDXf1mMNuMWMVooDqJwaOocxBoAnvPoZlA98PHQQU3+2BN2SVFxp6KfAEaGTGNPCvHg9JO4r/jx0EBOGXQG3JFGfcx8DbgmdxJjWpadb821t1oBbVTn/pHc6A1gVOooxrUbhMp+79iuhc5iwbAm6xUWlwfcpXIp9GDOmXu7wa907OCv/WOggJix7021xcbVwGYh9EjemPp70yKHWfA1YAzaAzy05XQX7LsqYdKkIH6PaafdeGMCWoM0zuq7dzsnaXwFvDB3FmKYk2uMrxZNDxzDZYVfAZoPefZ7wzs0A7HlEYxKmyIC/c4U9f282Yg3YPKsnf6sIxwA2kceYpAj36KjM5sKZNoHObMQasNlIXClcgurC0DmMaRJrPHIYi/KPhA5isscasHkB33Ftt6rYrizGTJAIn6TSabuQmU2ym7DMps29ckfXPuk3wB6hoxjToM7y1cLc0CFMdtkVsNm0M9+zwiMzgNWhoxjTaES5zuceLYXOYbLNroDNFkVdAx9SkR+HzmFM49AHfdS+Fwv2ezB0EpNtdgVstijuLf4EODt0DmMaxFqv8gFrvmYsrAGbrfIrtz9RYSh0DmMyTkX1E/QWfh06iGkM1oDN1p03db3m1h4K/F/oKMZklsopcW/xB6FjmMZh3wGbseu6ejcn0SDwhtBRjMmYhb5amBc6hGksdgVsxq73gAe8tO8twtLQUYzJCEU43ZqvGQ+7Aja1m7ss5yaNfB3huNBRjAlohQjHxZXCJaGDmMZkDdiMW9Q9eKgq3wZ2CZ3FmHpS6Nc2PsoZhftDZzGNyxqwmZjy8IvcGn8SSheQCx3HmJTdIcIpcaXzIhDbtMRMiDVgk4xTBl/uRvlP4Dhg19BxjEmSINcC34pXvvhCzpu6PnQe0xysAZtklRe3R2t3Lqr6g1B5DzZL2jSm9SLcoPALL3oZPcU/hg5kmo81YJOu7qVTiNe+OYrcaxU/BdgeL+2hYxnzPE8Aq8Tpw7G6m1n54tvtStcYY4wxxhhjjDHGGGOMMcYYY4wxxhhjjDHGGGOMMcYYY4wxxhhjjDHGGGOMMcYYY4wxxhhjjDHGGGOMMcYYY4wxxhhjjDHGGGOMMcYYY4wxxhhjjDHGGGOMMcYYY4wxxhhjjDHGGGOMMcYYY4wxxhhjjDHGGGOMMcYYY4wxxhhjjDHGGGOMMcYYY4wxxhhjjDHGGGOMMcYYY4wxxhhjjDHGGGOMMcYYY4wxxhhjjDHGGGOMMcYY0wT+P8S0SeNteIUIAAAAAElFTkSuQmCC;" parent="1" vertex="1">
          <mxGeometry x="30" y="151" width="69" height="69" as="geometry" />
        </mxCell>
        <mxCell id="tHJEwBymKxjTPnQwL3kc-9" value="" style="shape=image;verticalLabelPosition=bottom;labelBackgroundColor=default;verticalAlign=top;aspect=fixed;imageAspect=0;image=data:image/png,iVBORw0KGgoAAAANSUhEUgAAAfQAAAF4CAIAAAAtxpx+AAAAAXNSR0IArs4c6QAAAARnQU1BAACxjwv8YQUAAGDgSURBVHhe7b2HWxRL9rj/+5c+3929e3dvDsZrBiSM5BwUMScMmBUxoahgzjnngCJGMhIkSlQkTvdM90xHf6dmWpY7hOnpAYTmvM95fFZuT3X1uLx9urrq1P/3BUEQBNEdKHcEQRAdgnJHEATRISh3BEEQHYJyRxAE0SEodwRBEB2CckcQBNEhKHcEQRAdgnJHEATRISh3BEEQHYJyRxAE0SEodwRBEB2CckcQBNEhKHcEQRAdgnJHEATRISh3BEEQHYJyRxAE0SEodwRBEB2CckcQBNEhKHcEQRAdgnJHEATRISh3BEEQHYJyRxAE0SEodwRBEB2CckcQBNEhKHcEQRAdgnJHEATRISh3BEEQHYJyRxAE0SEodwRBEB2CckcQBNEhKHcEQRAdgnJHEATRISh3BEEQHYJyRxAE0SEodwRBEB2CckcQBNEhKHcEQRAdgnJHEATRISh3BEEQHYJyRxAE0SEodwRBEB2CckcQBNEhKHcEQRAdgnJHRjYyhNwjpC+Ss4BjSPT8FLSCIGMLlDsyguF5maKkzy1i3QexolwoKRYKC/j8XD7nDf/6Jf/iOZf1lHv6mMt8zD3L5LOz+Fcv+Lev+bwcvjBPKC4Uy0rF6mqpuUnu7PjCsqh4ZEyBckdGCjLHycYu6WOzWFsjgMqLCviXz633blsunGXTDzA7t5s3JZnXJZoSl9HLFtKL4un4GComnIoIosIDqahQem4UvSCOXppgWrnEtHalecNaZvtmZv8e9tQx642r/NPHIH2hrESsrhQb6qW2VplhSJqPIDoF5Y58O2RZtlplmpba26TGBsjKrXdvs0fTzdu3EIPPj6VjI6joUCoimAoLMIbMMQb5GQP9jAG+xgBvo7+3cc5so8GLhJ8n+RP+6g/hbQzwMQb6koODDVSoPxUeREWF0DHhxP5LF5g3rgPjWy6f519mi9VV8Fggd3XJLPNFFJVeIYguQLkjw44k2Z0uNjXy+TnW2zfY9DRwrgnycUjGo0LByETQdmvbwy5xu8FVRvdHuhuBgJ+D8SOC6LhIyP1Na1Ywu3dYzp/hnj8Vqirlzg6ZZb8IAg7gIDoA5Y4MF2BM0DrLig31fFam5eRR846toFd64TwqMphk3Hb/KhJ3xeMuRU/jG7yokDn0vCjTisXmzUnsgVTrretCyTvZ2IWKR0Y7KHdkqCGTVSBVlyBPf/PSeuUik7rbtGoZETqolhj266DKt4qvrqeC/OgFc83bNllOHuMePxDfl8sUZZt+g5ZHRh8od2QoEUWpvU0oKeYe3WePZpjWraKiQoxzvIcwMR+UCDbQi+OZPSnWa1f4t6/hUeOLxaJcEYKMElDuyJAgc1bpc4tQVGC5ctG8aR0VE2YMMpCRdFDnt83TnYZ93Mbf2xjoS4UFmJYtZA8f5LOzxLoPssmEWTwyWkC5I4OKLMsWi9TWSrR+9qR59QoqKpRMXOmWZk+NjuSw9xYiwAcUTy+cx6Tu5p49ERsbZBONU2uQkQ/KHRkkIKXlOKm9jX/7mj2ablq9jIZsPcDX/t7SUZ2jK+AS5symwgLpRfHMrmTrvTtifR1Ok0dGOCh3ZDAQRdnYxee8Zo+km9aupKJDldkvDpYc1WFL5KlQf3rxfGb3Duu921JT4xeeV74BBBlhoNwRt7FYhPIyy+ULpvWrqfBAZTTDwYy6Cbg0uGkF+oHi2YyD/KsXpLYBDsQjIw+UO+IGgiA1N3LPnjB7d1JxkY4e1HtQoQGmpETr1Utwb5PNJuU7QZCRAcod0YQsy0ajUFxoOXXMtDieCjI4iG+sRIAPFR3KpGzjnj6RmptlHKVBRgwod8R1OE5qbrLevUXGYaJsw+s6HocZOGwXTpa5Lo5nj6aT1a00jaM0yEgA5Y64AiTsLCuUl4LI6AVzyRxHfY+wqwz4BvxnU1Eh5i0bSArf3o5zJZFvDsodUY0kyV1dXNZTZud2sigJte4QBi8q2GBKXGa5eE78UEuq0yDItwPljqhDFMWmRuvNa6a1q0jVRtR6n0FSeG96fiybcUAoLCBz4RHkG4FyR5wjM2ahrMRy4ii9IE4pIfBtw/7Q0F84HPwtgooIMm/fxD3LlFpbca0T8k1AuSMDIn+RTSY+5y2zJ0Wp4zicAab2s5ds9DD62gJ+AneXID8qZA4VFkD28YgKISXgI4PJfkyh/lTwHLJTh30Jlf0j5OPdlYR7nWLIggryM61cYr15XfrYjEPwyPCDckf6R5ZlyshnZ5m3bCBDMcNTypEI3aZjEHSwgeyjFB1KxUXQ8TH0wnjTyqXmDWvMWzcyKduY1F3swX3skUPs0XQ24wC7fw+zO9mcvNm8Kcm0ZiW9dAGdEEfNiyJb8YH6of8gfXvjwyN6OEWAD71wnuXCWbG+DofgkWEG5Y70A5i9q4t7/NC8fg2kyUNuQ3v73Vl5ZDBo0bx5PXNwv+Xcaevd2/yrbKGkWKyuIptlN9SLjQ1ic5P06aPU0iJ9bpFaPpHNV5saxYYGMCnZhfV9uZCXwz15aLl6iT2WwexKhhsDET3k+8EGJbsfastD4/7ecI+xnDwGXUK/I8MJyh3pC1mW2tqsd26Z1qyA9HnIzQ6eDfChIoJMyxYyKdstp09YH9zjc9+K78vFhjrp82d4gJCtVjJI5BKCIJtNUnu71Nwk1lQLxUXc82dWcP2BfaakRCoukqy9glM7dGZww/bV0fOi2cMHhfIy9DsybKDckV6A2Vs+WW9cNa1YrMxkdxDWoAQ0awvi9MRlTNpe67XLfHaWUFoC+bhsYaEbSn8GEUGQOjtB9HDn4O7ftZw4at6ygY6PJk8M5DKH7ErnzKZiI9gDqcK7IpnjlM4gyFCCckf+Dpj900fLlYv04vlEeUPhO7vTQwNMSxLMyVvY08e5rKekiC7k5vKw7GkHp4Agu0S1C4X51utXmP17SDHL2HCSyPsNVTFLKjKE2ZMiFBXKHDyFIMjQgnJHekBGY1qt167Qi+KNgfZk1tFQboWidX96SQKTuou7fweSaJmmSTL7TeaTgOJ5XmZZ6XML/+YVe/IYGa6JCVOG44fgxqb4vbz0C+bvyBCDcke+Qt6gdlpv3zAtX/R1mMLRTdrDrvVgAx0fzaRs5TIfSR+bZLN5pMwRhGu3WqWuTqG4kD1xBL4BKiLoq+J7XYs7AV9CdBh7IFWsqsTxd2RIQbkjCjJFcY8fmFYvNwbadsUbtLD5MciPig41b91ovXdbrK0ZsdW1iOJbPvE5b9gjh+hF88g0oUFXvL83FRfJHj8sfqjB+e/I0IFyRwhkpdKL5+b1a4ZibgwVHmjatM5644pQViIbjXA25awjFVC82FjPP3/KHEyl58cQv/e6KDcDmrWcO032csL1q8jQgHJHSHUBPvctpNVUyKAWjTF4Ea2vW2U5e4rPy5G7OkeTyGwDNWJNFTxqMLt3kBk1/rbBJYdr1BbQjr83vSjeevUSPCig35GhAOU+5hF4ofQdsztlMMuBQTvBBtOyBezhg/yrbKmjY7SOP4DiWVasKLdeuWjenERFhShX1/NiNYdhtmn5Iuv9OzJFjcxBKmRUg3If20iS2FDPHjtMRQSDaxztozVI2axN67iH96XPLTLPjXpziaJsooV3RWx6Gj0/dtDeNkMjAd6mpNV8zhvZYlHOhSCDBMp9DCN/kbu6rNevEGE5eEdb2JRHxYQxO7fzeW9lk2motA7NwqOAIMgcJ1utJOB/8Dz54dANcfCc2NhgOXeaXpKglKlxuHwNYZsYyuzaIVRX4ctVZHBBuY9dZJblnmWSAgNksVIv77gaIDt/b7LO/kg62TB6EFNRSQJxyxZWNptIHYL2NlJO4EOt+L5cKC4U8nIg8xUK8sWyErG6SmqsJ48LXZ2Qa8sMA97/IgqDdo+RJLJ29+7XqgwO34C2MHjRcZGWU8eljx9xcAYZRFDuYxWOE8pKmJ3byGw/B91oDG9IackmRLU1g7BPNGgOcnBRBEFLTY18fq717m3LyaOMrfQjs2Oredsm8+Yk8/o15rWrzGtXmpMSzRvXmrduMCdvgecGZu9ONuOA5cpFPjtLrKqQurq+QJegQWjWTYHKstTRzmU9NW/fNEjvn23FIxcncA/vw4OUchYEcRuU+5gEMtCmRvZourJbnqNuXAxoIcjPtHYlpLTSp4/Eoe4AQqcoSMxJ+ZcH9yznTrNpqeZN6+hF86mwQHIue0FgpxHoR8+NMq1ewexKZo8fsd68xmc/F8pLSRkyzt3XAPBYwOflMvt2U9Ghg7CQ1fYFws2JDL7jylVkkEC5j0Vko9F65ybZ4XoQEs/Z4FyyMXTWU7cmO8qybDaJNVX8i+fWa5fZQ2kgOzo+hpTnhbP4O57UlbCVnIwONa1cwuzeYTlzknv0QCguktpatQ9zQ28tFuF9GVnrFG+bCO/mN2kffD+4T6ypdvfuiCA2UO5jD44TCvMh0R6Et4L+3lRMOBhTKMiTWUZjOixJJFWvreaePGT2ptDzY8hIUZAf6R54GXpoD4dTq4/ujwf4QDoPdwsqKsSUlGi5dF4oLpRaP2sv8yIIYlOj5fwZ8ooVOtzzpBoCvsy5kdYrF2Vjl5sPFggCoNzHHGJjA3v8MBUZ4pYxbUHK2KanCRXvyXtLDYiCbKLFug/cg7tMyjZ6fiyZaw9ZsN/QbJZkb9Nga9xWDsG0ZgUk8kTxHe22S3BdqaIItwfr7eukPDK5G/U6qUsR4GPetI7PeYNlxRD3QbmPLWSLhct8TC+YRxzqYBaXwjCbigxm9u8RqytlDQWwyJtSs/ihxnrrujl5C70gTllCBVp3ONEQhe1cVIAPHRNmWrOSPX5EyM+VOzu+aJiVb3vFar15jZTSdLtQARUexGYclD63kOrHCOIGKPexhCgK5WVkq2v3t+AINjDJW4R3RcSGLmFf81lVYb1xldm5nV44j8wptKfqDqcYnoBT2waXzOtXsyeO8G9fg6ldHvW2F8E/fwYeZchQksMpXAqDF71sEff4oWw2KY0jiCZQ7mMGsGpXp/XyBTou0q0EEywc4AMq5F9mf7G6PJkdsmPu+VMmdRdZOTVYS4HcD9INLyoiGK7LcuWiWFvtcj1eSRI/1ELS7e54l8GLCvGHpxmsCYy4Ccp9zMBxfM4b84Y17prd39u0fBGZlE0ZXRrBkEVBbGyw3rpO9jwarBVAQxB0vG2/06ICmTErXVcJx4nlpfA4QoUFuOl3em6k5fIFqb1daRlBXAflPjaQZam1lT2SToUHOqrExYCMm9QybP3s0tgFmThYVcGePEonxI2ghL132DpGRQabt27kXzyXOjtcu0yWIXfQjevI5Bl3rjHAx5S4nC/MJ2uvEEQTKPcxgWxh+ZfZptUr3FxxQ8WGs8ePiHUfXJghTmY6GvncHGb3DiratoPdEGxfN/gR4m9audR664bU3OTSewXbnicPyZ4n7hR1MHhRUaGWs6fIojAE0QTKfUwgtbWy6QcgIdWeToJuIoLJlPaKcheqC9hmCnIP7prXr1EGK0Zszu4Q0M8AH3rBXAvczCrKv5AtrdWNQZHJMx3Wa5fJu2LNI2Bw9kBfU+IyPi/H5be7CGID5a5/yJBIXq5p1VJHg7gUwXPMW9bz+bkuTGkXRfFDreXcadPyxWTrvmGb5jhYYbsV0bERzN4U/s1LmWGU63IK+L25yXLmBDzouON3KjzIcvG81N7m0rsNBLGDctc/0ucWy4mjpAqKQbte4d7APX3iguAkSayvs5w6TlbnQwujJWHvHSDZsADzto38m1cyyypX5xS4/OpKNm2v9i1QbI8O5o3rBEjesRow4jood73D86TYwKpl2oeAIXuNCbecPUlKx6hMISVJ+thsuXBW2YB09JrdHja/k3n9RQUulDLmeT7njSnRjW9+zmwy8n7hrKsTkxAEQLnrHKn1M9iBpO3aRkXAy/7e5u2bhaJCUhhdDbIktbdbb1yjly7QPigx0oK84Qxh9u0WysvUz2CRWj6RlU3ulN6ELx8eGt4VDUIVZWSMgXLXNZIEUjatW+XOzDwqJtx64yrZVkkNsiwZjdyjB2SIf1D2ABlJAfdI9lgGWeKkcpxEEITSEqVGW6/WVAY1N9Jy6bza7x9BvoJy1zOy2WS9ewse7TWaHdLVYAOzc7tQVqJyzgackX/1wpS02t2J3k4DGu8vHI4c1KDnRUMyLjU3q/xCpI52y6VzdHy09vfJkLzv3C42Nqg8I4LYQbnrF1kWa2uYg/vc8Sy4jHt4T2XaSKblFOabt240hswZasmSsI/5wJ/d/8PNui5Ow3ZR9MJ51utX5PY2VbYVBLGywrxlg/bnGD9P08ol3IssF17nIgjKXc9IEp+dRUrRglY0qBY+EurP7EkRa6pUvc0TBKGslEnd6e7i+z4DGiTFxWz7K82LMiUuB10yO7ZC95j9e9i0vczeXfCEQfbeW7+aXmzbs4l8yl6PbPBvM2BbK9zzaFq59gGBw6zXLtEJsRq/Fnh+igljjx+WOjqUFhFEBSh3nWLb2Ii8SgXVOshCdUCKyj3LVJW2S5LU3MSePEZFBDs04lbYnR48h46PMa1ebt6+mU1Ps169xD9/Bo8IQnmpWF0l1teJjfXihxqh4r3wroh/+5q7d9ty8hizO8W0fo1pSQJZugVNDe4s+wAfaFzIz/2iYta/DLe96kpm13btI+/+3uYNa+E5DEdmEPWg3HWKKIpVlczuHWSwQkPCCNlieBC7bw8Z6lWRtssswz1+YBrE6TG2PsOdiV4Uz6Rss1y+wL9+KdZ9kCmjbLGQjUYFnhRNFEXiOwj4HxCCIPO8bLXKZrPU0iIUF3H37rDpB+DGQMWEGwN8ben/YCTy8P1EBrOH9ksfm1V9PxbWevsG2dfQoR2V4edJbrRZT/G1KqIelLs+AcGRKSvLFjpqQmUYvEwrFvMvs1WtWpJEMri/b/cglImHgBb8valQf3p+HNycuCePxIZ6maLIBHPJlbU84Fyeg8cXqbVVKCywnDpmWrWUZPGDVbbM4EUvSeCeP1P3FUliTQ2Tlkref2gYJrJNxGSPpJN7CYKoA+WuT2SjkT2aTpZHOmhCXZC0ND1NavmkKi01m6w3rtIL4owGx3a0RIAPPT+W2b+He5YpfqiVTfQXyd31O3Crg0SeL8y3nD9jWrPCnaGq/wUINywAbj/QSVXfktXCPX6oFJzRcHcJ8IHnD7GsVM25EARAuesRkQzyklkr2lJUSNsTl5O0Xc1eHDwvvC83b99sDByMWe1BBnNSovX2DbG6yuVy6k4RBOlzC//6JXsglYzSDEb+TsfHWB/ckyijcooBgecbcuqQOVpeAPh50nMjuaePXagAgYxtUO46hIyAZ2WSeTLa3iIG+DD799rSduev76TODrL9/7xo911JRYUyu3aQm4r6OgeuA1m8WFlhOXfKtCTB3SEa+GywgSzfLXmnKnlnyJsJUk1Mw0n9PKmIYMuZE9InVY9TCIJy1yGy0Wi5AMKN0mYuem6U9dplNbOqZUjbiwvNa1eS2Za92lEb0MkAHzohjs04KJSWkLH1oZaXKEIKD88HpnWrqFB3J25S0aHwdUnGLufdlmWh9B1ZMKzhpgLHh8xhUraKFe9R7ogaUO46RGr9zOxJISuJHAThNGzGMW9KEvLzyHQUZ5BdoUm9STdqp0CA2RfFW86flRobyQSY4UGSZJrms7PMW9YTvzt0SX3AhQf4mDet43Pfqqk5Q76xU8fJPquuPlTZTgRPG3zOGzVPVAiCctcdkiTW1pghPdQgXPhIoC977LDU2uo8PYS0PecNmZDjzvRHf296fqyy5dCwT+KWGTPZoGr9GqN7e7pSEUGW0yfkzg6nXxo8D8EZyZxIDSNmBi84Effg3hfOhZ2hkDELyl1vkG08X78kA8p+Ho52cBqg2nnR3IO7amoQkiT0zEkyuVDbyL4tyL59xzKkb1c4RTaZuKdPTCuXGIN83VnLSh53CvKcJ++2mhBwsG1OpGMjTgK+52ADfOfS5884MoM4BeWuN0ilqiuXyBtODQ/+gb42SeWrcYdQ8o7sBA05r4ZHBFtQEYHswX1iZQVZf/TtILvi3b1lWjzfnUcQsm/49StqprJIba2Wk0e1TNex/QMxu5KF8tJvdS9ERhEod70hNTWS9UThQS67A24GIXPYoxliQ73S1gAIAvfsCT03yrERlQF9CzIwKduE4iL15dGHClkmVe8vntNyR+wOuJy0vWRLPGfIJprLfEwvma/l7hvgAw8ZfHaWa+u5kDEJyl1viNWVpIB4gOtlTPw8qfBA6+2bZN3QwJA9oNvJNhSa03Z/b7K8M+upzGqdtc1xcleX9LlFbG4SmxqlTx+hSyRx1jZeIYpi3QdmTwoVonHZF3x75g1rhPcqtvIgKwPKTGtWaruRkMk5t66r3TgFGcOg3HWGLLwrJu/rNG2XSsfH8G9eOX/klyShtITZaauEpUHutsIsluNHQMquulhmWSL06iroJ3f7puXCWfb4YXjasJw5ab12GR4moGPw7EL2pXNxqAdaVgbftd2u/DzpxfOt9+6oKRUJDwrmHduM/q7PH7Ul75Zzp9UULEPGOCh3fcFx/KsXZLREwyN/sMG8cZ1YXqo0NQCCwD15SC9O0DhIHeBjSlwmFOZ/4VXP+pBlUkLgcwtcHXvssGldIj0/lo6NgDQW7hNURDAVFULHhNHzoujliyAB5+7cJGtcTSYXFG8fnDmarrE4AZnKEswe3A+NKA32D1mIcNK2ZblDI07DduNhjxySO5zPzEHGOCh3XSHTFHf/Lh0b7rLcyQLIILAGpL1KW/0D0rScPUWW0Ts0oiYMXqBgyD3JZhcqkSTIxPncHDY9zbRiMXFigI/R14Nco0PAD20lX+iEOGb7Ju7uLam5yYUxfUHgX780J60mObWm/N20diXcVJxqV2YY64O7ZI9ZV89iO55J3SXV1+E7VWRgUO66wv5iENJYYjoHLwwcIPfYcOvNa2Tp/8CIIilwuHsH+ZQGAwb4mDcnie/L1CySIoii9OkjZOLmDWvJtEtowemlQa/gcoL86MXz2aMZQplt1asabO8SrPAFaqtK7+cJNxU+66nTqjgyPGDl55rXr9Emd/O2TUJJ8fAt+EJGJyh3HSHLYkM9e/ggFR7osjV8Pej4aD77mVMPkuqGzzLJ/tcOLagLKibMcvo4GRNXA3nPWWe9fEFZKuXSRdkVHxXC7N/NF+SpLUMmSXzOG3PiMk0VAuB0oeyJo6T8y8CQG2Q1s2Ory6ewhWntKv7VC1LUHkH6B+WuI0DulRXmndvJgIkGuS+cKxQVOH3Yl81mssFTTLhjC2qC1Jtcxr94riqVlkjOTqqSJWjd4wLC4AW3OvhOhOJCVSeF77D+A5ueRqolu/pSGr7zYIN583qyMeHAwCNCWyuzb482udNLEqz376qq2YmMYVDuOkKWhXdFSl2qXkZwErbdOcSqSqWp/pFpmk0/oGWBpS2YXclifZ2a95xyZ6f1zi2y1JZ8UIsElbCt2mcP7RerVK2WIlue3r1NRvZdHdqyBb10gVBWorTVP3CPZI9mkJcHvVpwGlRcpOXSedwvGxkYlLuOkGU+9y2taaUlFexn3rqBaNcZsrGL2btTm/ggiWbPnFAzQgJpKZ/z1rRmhU1/bpjdHuD3mDDLhXOQL8O3pJyjPyRJKMgjbzs1zAUio1sxQmGB0lT/yBZWeTvi0IKKoMIC2ONHBr/ePaIvUO46AuT+5hUdH+3gAudhy22ZA6lqdnGTPn82p2zTVrjGtHwRl/lIzfQVqakRcm3olba7iGMYyNZ96oeqxQ+1ZEFTmOvVgH09qLgIslbA2SOCbLVa797SuKtqkB+bniabcT9VZCBQ7jpClrmX2ZCiuqwkW2LLnjzmfI62JIl1H8geT64616ZXuCuQIQun4mMZLjuLXhSvJXfuP2wJ72FSdcvZewWprc165ZKWGaUg95hwLvOx8/fSHMc9s62Z0nSNTNpe3CwbGRiUu44AuT9/pqVMI8g9LtJy4azU3q401R88L5SVmjeu1SL3AB/IN22rUp25tbGRPX6ECgscnLS9Owxe5g1rhfwcp8m7rVTkYzo+xuUO+HlS0aHcnVsyRSlt9QdPlpvBwwSRu4s34y4/TyZ1p0w7OwUytkG56whRhJyRzIPUIPd50Zarl6TODqWpfpCtVj4vl2y9pOEUAT6WE0dJaS1no95CQZ7G7YoGDuhDfLTl8gXZ7Gy02mrh37wmW35rkHtksPXyRcj9lab6g+f5nLdws9Eid18PZley3OlsRQIytkG56wie5x7e1yJ3P09SsfbWdbmrS2mqH8heE8+zyGCCNrmfP+N8MAFuUY8fapxq6TQCfcnyTqeLY0VBKC4i40Ia5B4eZDl13PnbC4HnC/PNWzZokDucxZyyTU2dA2Qsg3LXD7KFtd69RV4DapD7grncvTtO1xaR8YoHd+klCS77COQe6Gu9ftnJNiCyLFOU5fJ57fUmBw4/T9PGtWJttdNxf7GqwrR0gYZvkozsp6eJdR+UhvpDEEhB/OQtxgBNct++mVRWwPIySP+g3PUDmNd685pGuS+cB/my02K/YF7rtct0QpwWuYf6w73HyctMWZJaPrEnjpB59EMidw/TmhWkiLyzYXexrta0apm2y2R27yA7kAwMPBy8L2d2JWuU+9aN5P6B5WWQ/kG56we7eTXKfVE8mePhbMxE6uq0nD1Fqk66bl4qOox79MCJj2yzcdhD+wd/wN0ekLmvXMK/eeV0BZDU2EAGxF1dZAR9DjaYt24QSku+DJxVi6JQWUH2MYdTaJD7lvVCjfPnD2Qsg3LXD2Rp5fWrWjP3udzD+04nYBC5nzlJx0Vqknso9+i+M7nbiq6k7R1Cua9YxL/MdrofnthQr5SHdGhh4LDLffN6ofSd0lB/CIJQXmbeuV1LBUqSuW8QP9Ri5o4MAMpdP0A2ar2jaczd4EnHx1hvOC8JKVNG65WL9PxYl31k8KJC5lhv33CSbELm3lDHpqcNodxXLeXfvv5icZK5i7XVphWub9xhu0xm53ax4r2TAfH/vVDVJHcy5u7yVifImALlriM0z5YBJSnz3J1MI5HNJuvDe/RSTS9UA3ysl87LA1uV7JjRwp46NmRj7p6mtStJvdyBx9zJVlPvyJbZrj8D2V6oHnBeyIHn+dcvTesStc2WYXZuk9pwtgwyECh3HSGK3FOt89yjQy3Hj0ifW5Sm+oFMhXyZbUpcquUUAT6Wk8ecbCEky2Rw6cpFKtj1wpZqAnLeTUlkQGPABwjZYiGFHBI0zXOPCLKcPSm1OKn6a1uhmkkeDlxfoUoWMe1JkY1O5q0iYxyUu46QZS77mZadOsC86mrLgJKE4iIyGO36KYz+PgxZodrgZKTYthSLDOs7tDAoEWxg9u+RO5wsxCUbWj16QM+L1iL3qBDrjatOVxiR2jL375Kp9HNcLz9g8GL27VazWSsylkG56whZ5l+9oGIjXM55Qe6h/syu7cS8AyOKYm0NGSnWIndvyDfJYLTkZI6HUFRo3rBm8EdmDF6QjFuvXXZaT1FqbyfzjjTXlnny0OlsHHg4gHsAmXfk0IKaCPRlD2HhMMQJKHcdQapCvqYTYh1doCYC/ch4hdOlNyC+VntVSC1yN69fQ15mOtsfDh4gLGdOahlfGjgMXmQeS3HhF2dlKcWmRrKhVUSwy3cXUhUyUlVVSJYle55o2s8P7sTssQznRRSQsQ3KXUfY67kvSdAwjAthWr0csnKlqf6RjUZm/x6Hz6oMMifn5jWZsypt9QMp5v76pcaK6v0H2bLj1HGpox2+KOVM/SCUl5nW2x4dXC0l70e2USX3D2fIDMOesL03dmhBRVCRIezpE05ncyJjHJS7jpBloTCfvO3UsL8PWGlJgvN1lXASEw1pI9mFzqEFNRHoy6YfkJzuwW1L3tljh6mo0MEZmYFGAnzMG9fyOW+dpu1k0tGL59Q8LQu14G5kWrVUeF+uNNU/ssnEZhzUdnVUXITl4jmZRbkjA4Fy1xEg99IS86YkY5DrhVl8PegFc8kcQWe4uYeqssDHmWFljuOLCsyQPg/ShHd6bhQZbYf7ysBpO5mL2UouMNz1fUKgn8EG8xYVe6jCeTo62LS92i4N/qWst2+o2hIWGcOg3HWELIu1Ncz+PVSoli2E6PmxZF2+U+2ypDyZbZpHr0achsGLiOnGNadFbAAyZeXxQ9PyRY6NuB5UVAh7/LCqYiySJLwrJm+MNdwgDWQzbvj+xYZ6pbX+kCSpsZEUltEkd1Picu75U6dV6ZExDspdR8hfpE+fLGdPatmvw8+Tio0g+aCz2dMkp859S2azOLSgMoL8yAJONXtkgwHb2qzXr9jeIvRqR2WAcKNCmLS9wvtymXduQzLL/tZ1MuNIwwxFP086LsJy5aLTPU/Id1iYT2rXuH7/gD/h3iMUFTp9L42McVDuuoKUB7h7i4yZuDykQAqRs+lpkpqs89NHUttLQ8UrCHuRsof3VE3ThnN9bAbbmhKXuTw+AwfDg0JcJHv4oFBWomoQA9L2shLzzm3kRa6mSzMtTRDycmSrszfGjJk8/SzWstAX/mRSd4n1WBIScQLKXV9ASvjqBZk9rWG8ONDXtHaVWOKs4hVJPK3WG1c1D7tToQHMjm1iTbUqPYHfO9q5zEfm7ZvouZFEu3BpAznRixzg50WFBZpWLrWcPSXW1qgawSCLYylSOWeeprnnEMEG8/bNZB9BZ8DjEXvkkJZ5kHDh/t7s0QzyUhoLyyADgnLXG0JpCRkQdzUlhCB5bgSfneX8eV8SbSMztoq4mk5EzY2y3rohdTjZ1U8BtMuYhfJSy+kTptXLyZhJiK04ga+HzeNfw/7XQF8qMgS+AWZPCpf1lFTLUTd8AXcsoSCPvI7WNv8Svr34aDKJxelcIFmWmpuZrRsdW1ATcNVBfnAWp/XoEQTlrjfEmipTUiIZxHDwgtOwFb0iQ8bOdlK16anJcvwwpeGtIwR8JMCXVGd88dzpSs7/wXNSW5tQXAg9NCdvMS1OAMtT0aFUVAjYnIoKpWLC6Pkx5nWJkNjyz5+JDfVkmY+kLr0VRfHDB/IuOjxQyxVB+Hma16zg83Kcjv+QWfwFeXD55Fbk0IiKoOIiyJ4nWMkdcQbKXW+IjQ3Mnp1aJAXH20qviFWVzh/5rVbu0X1wq2Mj6iNkDrNjK5l86dKLQY6T2tvFD7VCUQH3LNN655b18gXrxXPWG1e5xw/4t6/FivfSp4+kwIAroxZyW6vl3GlqXrRGs0ME+MCzAqkX5uy8srELnlq0VCUjN0Uf04rFcOvCAXfEKSh3vSF9brGcPk7qomiQO7hj9XL+9Us1ZoQkmlSsdaMCDJmheCxD43ZxsgwpsExRUnub1Noqd3YSoYtaJpDIRiP35KFp2UIyytSrkyqDnhcFtxk1JQHI6+iD+7TUNoDjA33JHkyF+Sh3xCkod70BvuMe3KMXzNX41B8dZr1zU002LTU3sSeOaFns0yOgn5arl8hA0Ld6PWi1Cvl55s1Jyjh+rx6qDFI2J+etmje3Yk2Ved0qLTcS6F6QH3Nwv1hb+82+LmT0gHLXGzLPCSXvNA7pgj5I1fWjpGKt0+EFluGeZdLxMe44EYIsyXmW+W0K2AqCWFlB8ugw15d99YxAP/ZQGqTkzhNqjhNyXtMLXB+TgbC9FCHrbI1GpTUE6R+Uuw4By5h3bNHyThUE5+/NpGwTysucJ++yLNZUm7dtMgZreq1qD/hgkJ950zohPxeSaKXl4cH+Wvj0CSomzLFXLgY8f3D37zid3g7IHbZiwhoWItgCbqX8i+f4NhVRA8pdh8jGLsvZU5SmbaxB7qalC7hH99Ws+oF0m2xqsXCeW2mvfdX+7h1iddVwakuijKSi+oK5Guc+fg0qZA6bnqbqzQG5HVYxu3aQsmuufmNwPClcs0EoK8UxGUQNKHcdIrMs9/yZaeUSo0HTsHso2OoA2XLPqUQkiUzO2b+Highyy+9khl+k5fRxSKWHx1zkK8p6atI29t0dcMmBvvA98y+ynNYxJlgt/POn5Hbi0I6asG/gd+o42S0L5Y6oAOWuRyRR/FBLBky0veo0eJE5M6+yVSXvtu1GTatXuCV3+Ky/DylLcPeWPPQvV8l6pZJiJnkLFeJ6Bt0zDJ5UZLDl/Bmne88SIG2vryN7gEDarmnAnY6N4J4+dmFlADK2QbnrE5kysocPkRkgDo5QF+As9vABqa1VaW4AZFnu6CAj17GaqhF0hy0LNicl8i+zh7ZSuShKdslGu1csHj4bbDBvXCeUvFM1BVPguaxMUgRN27Jef2/TisWkWjKCqAPlrk8gobbevkEv1DQCAGHwNCUuEwry1bwkBG1BImxO3uLWEAeETZfM7h1CaYlrK5tcAe5Y1quX6Hg31ivZw74jKzxqOKujSZBlqeUTeyxD47IAAymVQ+qFOS3rhiBfQbnrFJ4XCvPNW9bb1fA3U6gJsElMuOXkMVUDDuAuxmy9fZOer2n71r8HFRliOZZBRpaHYJ2ObDaToXb7eiV35E5sG0D2+66vVzWIxPP882em1cvJy1sN5/XzJIukblx1XhkCQb6CctcpkCq2tbJHMyjNOxn5e5tWLhXeFauawSJJYm0Ne2g/5d5SIHvQSxKsd24O/u7+kiSUvjPv2GoMHoRO2mrjZKnayNQ2csUeSSebqPRqR1UYvEwrl5CtWbFeGKIalLtukXmee2hbqqptqp+fFxUdZrl0XmpVMfIOp7Na+ZfZZPEUmV/vnjoD/Ujt3NqawZwZCYalKOu1K+7PaoegYiNYeKxpa/0iO3+8IN/M29dkZo7BsR1VQaaKBjH796opXIMg3aDc9YssCxXlzN4UzeO8IFlQEkkY1TlFam+z3rxOll+6N3OcjEIkxFpvXQcdK027jyAIxUVkBpGbAzJg9rAAJnU32QVbXSkbubODbCkeFeLQjtoge4As4B49UFO4BkG6QbnrGbL7xO0bRCvadAY5Y1QIWe/e6axGuR1Zlj59JPv8ad7vwh7Q2yA/85YNYmXF4CTvkLYbu6wXz2ncYKRnkB05NvH5uWpHSDhOKCowrYW0XesdxbZmWKyrHc4VXogOQLnrGkkiZlmzggyVaJCLXbKb1vG5b7842zhbQRTF+jom4wAV5d5EQ0jeyYYe1+UuFXNRnCLw8PxBtr12OItLAZcT6AuPMpz6MvRwt/vYbDl+hNZQpPNrkH1ZL56TTYP9BgLROyh3nSO1fLKc0bRl9tegQv3ZwwfJJDx101dI5TIyHLSTCtO68QUEfNA+i7y0xN1pM5C2d3VaTp+0bXvd60QqA/oT4EMvW8g9fkjmPqobp4InJ+7JI7Ixlobttr+GeVMSmZOq8uaKIF9Buesdnudz3mjceO9rkBHwq5cko1Gt1CwWIT/XnLyFCjY4NOVCGMgbXevNa5LKQaH+4DjhXbF5/RrH9l0M+A5JZ1o/q/0SBJ4vzDdtWgd3Ke1ffsgc9sRR3DEV0QDKXf9A0s2k7nKrqm2Aj2nNSi5b3cw/G7LZzL/MNm9cq3FECAI+FUSmzZDdmtxQm9TZYblwhpobqfnZBYKOjyFlBtTPvrfPDU1P0151Bz7l721avoh7ljl0S7oQHYNy1z+yiSaDAws1bt9BApLo0ABmV7JQ8V79+IDU1WW9e5tePN+dlatkK+3H9915lyg21JHFXBoKIH8NEDTZfZBMzVQnWVmW2tut16+QYveaJw7Bdx7kx2YcFOvrMG1HNIByHwNAFllfp7HSbHf4eZLJ3aeOS58+fVGpGnBcczMZ8Y/WOrXclrxbzp6C+4RGwfE8n59LL5lv9PNwbFxlBPiYNyfxuTnqFxDJFgtZB7tmBTG75i88wAfui9COqgoQCNILlPuYgCy7z3xsWrFYu2sg/L1J4cbHD12Yfi6KYsV7Zud2jYNC8JEAH1JtpqJcW/IudXaQou3axmTg7HDJS+Zz9267MMdcEIT3ZUzKNirYz7FB9QFpe0SQ5fhhqbFBaRZBXATlPjaAJPpzCxkChuTdwSPqA2RHZrCsFfJzZV51Gssw/KuXpuWLHVtTGbZqiNyzJ9pW3pNHltSdmm8tVHigayXUJYnM9D+aQR5WNJyxOwJ8TKuWkt2pcJIMohWU+1hBtlr4l8/Jahr3lo9CRslmHBBrqtWm0vb7ypF0zTPfqfAgy/kzMuP6+kxZFt4VmZYv1HLJ0NVAX9PalXzOG/WGlbu6uLu3TEsSHFtzKQxedGyE5dxpMjMHQbSCch8zgGQ72i1nTpD5Gw42cTGoeVFkZmRHu8p8lhRXyX3rzoYeTOpuqanJ1QnvZDDq0QNSTEbLmIxtI46L50hpHZWXaWH5vFxzUqL2CUK2oAJ9zRvWCOWlOEkGcQeU+1hCFIl9NiWR6Sva7eNl9Cc1EbnMRy4s1GxvIyUqIzXVVzF4mZNWQwataiu7HkhNjZbjR8iYjKtyt6ftq1cIBflqDStJYlWFbcqpG0u3IOxl4q9dlo1GpWUE0QTKfSwBku3stF6/OgglViC73LZRKCpQORQOXibbuq5erk18ZAHRreuujsyQAr/bN2lZQ0TWT4WSuo+fPiptDQx8sZ8+Ws6dpjXPC+qOYAOzK5mMemHajrgHyn2MIctiZQWze4dba5ogQH+Rwcyh/WQ6h5rBd0hsGxqYfbvtn/1bUyqCigmznD4h064ViYRkXylB7OoZ/TzphfP4Vy9UPZrIsmwycQ/vK1voOTTlUpAa+ku4Jw9xo1TEfVDuYw+LRXjzypS4zL3BGdsAwqJ47v5tlc4FYVnOnzFqm64T6s8eSlO1oV0P+OwsOiFW0wtkb9PaVeKHWqWhgRFFoawE0m2NpZV7BNn96vxpW5l4TZP6EaQHKPexiNzRTmZ/J8Rp3D7CHiCyYIN56waxpkrVq05R4DIfkfRWg239vZndybJLm8zJMvf4IamY5tCU0yBzzIOZg/tUTlaBtN165RIdF+nYjmvhRYXOYfbvESreq10HiyADgnIfk4iiVF/HHtynvdS7PSB5j4+23rmpqrYXqT9cSLbL0DROAncRqVXVhq4KggAd07LtH1zUgjjr9auqXmnyvFheyiRv0fR88DWgh0F+pjUruJfZssWitIwg7oFyH6vYNpEwb15vDHRjmBisFOpPas5A8u4USRJrqpm0vVqGL3w9zOvXiHUfvkhq16nKZrPl8gUt5/LzNC1fxGdlqnl/a9sZ/AbtXtFNCDo+xnrrhtyB+18jgwbKfewCYuIe3KWXLnRLTLYF+nxejtLoAMiy1NTEHsswBrk+fcXXAxJbUttd5XoiOFdbm+XUcW1PCabEZXzuWzVFXaSuTrIteJjWna8h/DypiGD2UBqpmI9D7cjggXIfw0gS2crj7Cm3Zkbaps1wmY+ca5fMdm+3nDtNiry7OvEchLtiMf/mtdppJHBpDQ1s+gFNcvcwJSUKZSXO61/KstjUSJ5+NN8d4YNBfubNSWSjWhdn8SPIwKDcxzaCIJSXMvt2U+Fal62C3MMCrbdvkn3gnCWeMmW0Xr5ABc/RIvelC/hnmbJZ3W5zoihWV5GZlxpmBPl6mDeshY87n+IJ317Fe1LRQcMKWHvYashwj+4P5lbgCGID5T7WIbUB8nLNWzdqLAjs50nkfuemc+3KstzRbjl/RmPmDnLPeqpW7pIbcrdn7mpW/4uiUFVhWrcK7geOjagJUmVzvkuFHBBEPSh3RNk1iUhKw654tomDJPd0OkJNxtwb2SPpGl9yrljMv34ps+q2giJrpurY9DSNY+6rlvFv3zifuCKTQvmmDWu0yB3MPi/acva0C7s7IYgroNwRAtnK+fFD04olLq+xtO0pQUonOjUUCLfiPbN3p8Zx8MRlfGG+2p0rZPI6gT1+WKPclyRwjx+oeUqQ2lrJVuBBLt8USXmDoxm2+T9odmRIQLkjCnJnp/XWdbJpkfop22RMJoBJ3U22oHOKKAoFeWTHuwDXhevrYVq7Uigvc2G2TGeH5cxJLXI3eNHzyYbgahbEwg3Acu2ybTmYC2ehwoOYtL2adyBBEDWg3JGvQLbb2mq5cJaeH6NeVfSieba9mVSs9xFF7sVz0ypNZQ/IPPfV4oca9TYkC0cvndcyBGTwomLC2RNHpPY2pa0B4Hmh5J15+2a1TzzQmVB/c/Jm4V2xrGn7EQRRCcod6YEoSo0NllPHqVgVkyNBgtGhbMYBqalR1ftAQbDeu6Nxz2iQ+6YkF3ZEAjjOeuMqeXnrutyNoQHMnhRVJSFtVcOst2+SdUxOrwtaDjaYN60jk+gZdS8PEEQrKHfk7wiCWFPNHsugYyMGthUVPMe8bZNQ+k7lUIlM0+zpE8bgOQ7tqAp/b2bndqm9XWlLDZLEPbqvpbaMLUyrl4uV71UNiEsS3HUsp0843Qcc7jTmjWv5F89lE618FkGGDJQ74ojMc2JtDdiKnhvVr99D/M1bNvBvXqmdviIIpLr6tk3ks66m0uT1Y5jl5DFXJ4Pzb1+TPcE1DPH7eZKaOXdvy13q6lCKglhVyWYcJPXc+/3GyL2Qf/2KFNHEiY/I0INyR/oC8ve6D2T3iYQ44xxHW1ERQczOZLI1koqFS3ZkhiGlE+NjHJpSF1708kVktqWLVc6FygpmTwpYVcPIDBXqz6RsI5tmqEPmrGJlBdyB+hx3okIDoDXyjZld3wkWQTSBckf6QRSl5ibLxfP04nhjANjKC/JZ0Ba9II5JTxOKi1yoX0hmndczO7e5PM/SHgYv89YN6sd/upHaWi0Xz5HFt5pWkNLzY8myKYvqOwrk740NlkvnTauWklW4X+8o5F64e4dQkI9bcCDDCcod6R9JlFparFcv0UsXGAN9qYhgc1Ki9cpF8UOt87orPYC0nXvyiDTi+oAMCX9v5oCturqLoxmy1co9f0peHmiQOymrEMAeTQdfu3BeSZLa27gnD+FORs2LgpsZFR3KpO4SSoq/WK04GoMMJyh3ZECIrdqtt26YN69nIWHPzyNVzl2anW1P21N3UeEad46mokIsly9oSXvlL0JpCdlpT9sTQ4CPafli/nmWazXWZVlmGbG6Ch4azJvWMQf3CxXlatdeIcjggXJHnAF+72iHbJ1MDXR1KwlSereV7Pq0YK6jOtUE3Az8veFxgX/zytUxGTvSx2b2SDqZM6NpZIaMvEPeXaaizowDPA8pvFhbQ/aYRbMj3wKUOzKEyDTNZT01rVyiZaUoCTIxnD1x1DYmo2WZPiTd/OsX9OL52uQOQebynzhC5vLjalJkVIFyR4YMjuPz80i9Sc07Rwf40EsT4PbgcuLcA7Gxgdmzg+ynoa0PBi964VzrtctkB1ccNEdGDyh3ZGgQRbGygk3bq32XIj9PKngOm35ArKt1x6pkBenD+2QFqdbk3eg/Gx4+uKePcSIjMopAuSODj2yxCFWV7NF02x5P/SzqcRr+3pAyQ9ru7gxCuM3U1TG7kkkpAodTqA0vsrh0/RqyuLSr8wvWcURGAyh3ZFCRZclo5PPzSCHcAZZrOg1I2yND2MMHyQtJtyFzMR89IKtVHc7iSlAhc0yJy6x3b0nNTdre7iLIcIJyRwYPnpc+fbTevW1KSqTCAh3k6EIYvMg0xHWrhMKCL4NSOhFuOZ9b2BNHqQiNpWaUCPSjF8xlj2YIpSUyY8YheGQkg3JHBglJUirSLFtI5sZoHuCGMHjRCXHWG1fJGMhgIQhCYb5560at83ZsAR+0FQRmdiXzL7PV1tVBkG8Byh0ZJGSZlKM5fZxeOE9Lra7uIPYMYw8fFBvqBnP2oSzbd5ui7btNaZ05A39SkcFM8hb+1UvXFjchyPCCckcGDZllxapK652bzN6dZHaKfSNsFzVKdinau1MoeedShQNV2AZnrNeukNuPv4t+tz2IwF3HvHGd5cxJPvct2dUa36wiIxiUOzKoSBLks5DCW+/cYnYl04vnKxPM1VmerAjdvlnIyxmcofbegN8/NlvOniS7Tal52WvveaAvNTfSvH4NPJfwhfmSsYs8UuCAOzKyQbkjQ4AoyoxZbKjjHt5n9qTQSxIg5yWJvN2VDgLtDjLdcLVtLHsoqydKklhfxx4+aJum2asP9oB+QgT4UBFB9PxY84Y1lnOnhXdFclenzHNf0OrIaADljgwZkMWbTGJzE1+QZ7lw1rxxLT03CnJzZcjbHt0+DTaYVi3lnj4hNeKHGlEQq6uY/XuoqBBF5d1Ch4CMPtgA/8m0bBFzaD/3LFOsqZY62onWEWT0gHJHhhzQotTaIpSXcZmP2aPppsRlpMZ6oC+xvD8xOxXib1q7inv8QOocvOkxA8NxQlkJc3Afyd/t4zPwZ4CvMXgOnRDH7NpuvXFVyM8VG+rVb0iCICMKlDsyfMgWFnTJv31jvXWdPXzQvGkdPS+aio0guxS9eC5TRjhEOXTokXlerKogczeXJFDRoaaVS5i9O+EJA1J14X05rkRFRjsod2R4gSxYFGWLRWpq5HPfguWt168KRYXfZpciUYRuWB89sFy5yD/LFCvfk2r1gkC0jtk6MspBuSPfCBCoIMgcBzGY89ldBbrB8zJnJTMvcQ4MoiNQ7giCIDoE5Y4gCKJDUO4IgiA6BOWOIAiiQ1DuCIIgOgTljiAIokNQ7giCIDoE5Y4gCKJDUO4IgiA6BOWOIAiiQ1DuCIIgOgTljiAIokNQ7giCIDoE5Y4gCKJDUO4IgiA6BOWOIAiiQ1DuCIIgOgTljiAIokNQ7giCIDoE5Y4gCKJDUO4IgiA6BOWOIAiiQ1DuCDKESJLEMKzZzIiiqPwIQYYFlDuCDCGsxVL2vvLB46dZL16XV1R9/NRiZhhZ+Y8IMoSg3BFkCKEo+ubdB+FzF3rMCU1Ytnpf+tEHT55V137o6jIKgqAchCBDAModQYYQo5G6dP2Wh3/oP3+Z8POkGRM9/LyDIhYsX3Pq3CXI6Cma5gUBE3lkKEC5I8gQYqSoKzduzw6M+OcvE7/7bdK/fp0I8dOE6Z7+YQnLVx89dbbsfQWm8MhQgHJHkCGkW+7g9H//Ptke3/0+Gf76/R9/+YZEn79ynWFZ5WgEGTxQ7ggyhPQpd0Xxv02aNMtvX/pRk8msHI0ggwfKHUGGkAHlPnniLL/UQyh3ZEhAuSPIEDKA3CEgc0e5I0MEyh1BhhCUO/KtQLkjyBCCcke+FSh3BBlCUO7ItwLljiBDCMod+Vag3BFkCEG5I98KlDuCDCEod+RbgXJHkCEE5Y58K1DuukJ2EeVjQ4lyJnUon9GE3P+plCMGRDm0b5RjNOC+3OHsSi/6QTkOQf4Oyn20ovxmy7JkQxRFlmU7Orta29o/t7Z/hj+dRWt7e5eRslo50d6EZGtOaV4Lts9Df5QuCYJgMpvbOzpJlwaO1nY4prOzi2UtcCH2j9u7o7I/Vqu1s8vo2CxEa1tbewdtMgl97ZVh663E8zxF09CB5o+fGps/2qLZFuR/f2r53GU0chxn7xTgSr80yh1at/cN/nXg36ilta1J6Zu9Y0o0NX9s+dxqgqsTBA19Q/QNyn1UAr/G4MLyiso3ufnPsl/df/z02q27py9cyTh++sDh42mHj8OfzuPIiSMnz56/fP3WvYePnz5/+Ta3vKKK1jpEwHE8qKaopPTV29wnWS/uPnxy+cbtE2cvHjp6yml/bAecyDh+Bi7h2u279x9nPs1+CZdWVlEJclRO0D/wbVRV14JDoRGHc6VlHINrzMx6Abc95eivmBmmuvbD85evr9y8c+z0BfjsngMZu/Yf+nukpx46Ai1cuHIDvqVHmVnZr94UFJeAauGWoDQ0IBrkDnY20jT848LXePHqTTj7/oxju9PSe/XtEPxwf/qxE2cvXL1558GTp89fvXlXWm40Uuh3BEC5jzJAZJCK5hUWnzp/ec3G7dEJS/1CY6Z6B/wxzevXybN+mTTTtZg889e/Zk2Y6ePhHxoat2Dt5uRb9x/VNzZBwqicTwWQNkJSCfcY8OOSxPVhcQvAZZM8DL9N8fzFxS7BJcCFTJnt7xsSHTV/yeqN2+DWU/YeFE8PICzIyh9lPoPj4eM/T5zRs8GfJkz/y2vOlpS9tXX1ytG246HD9x5lbtmZGhg5b9wMH+jnz5Nm/jxpBomJfw9oZ/LM3/7yGD/DZ5YhJDBq3oIVa8C2WS9eg+IFwcnmea7KHR5B4JYDt+o1m7b7BEf9OW02XEX/fbN3j3xp03wCAiPnrli78cr125XVNVhpEkG5jyZEUWz++On8lesgMjAyuOzH8dP+8+cU0AS4Q3N899uk7//467/jpoLCZgdFpKQeLCops1isylkHhOP591XVew4c9guLGTd9Nrjmh3HToLXu2uUaAi4HLgouDS5wmnfA0jUbbt17BBfe3zakIGswdVBU/He/Tf7nLxN6NvWPnyf8PsUzaWtKTW2d/WDWYnlfWQUJPnQYrheu+l+/qu0qdAyO/2nijD+nefmHx8GTQWVN7cApvHq5w92Lok25BYXbd++DuwhcO3wJ/1L9NUJr0De4E8zwDYLrzX71tstoxBR+LINyHzXALyoI7tDRk36h0T+Mn0Z+pX+bBA7tKQt3ApqyW37CTN+kLTuKS8pA3Mq5+wHy1vKKqnVbdkB2TExku0+AYR1a1hbk9mDrEigYctjdaekNTc3w4KKcuwcg9/uPM0NiEv5ju6n0bATEDcnvhm07az/Uw2c7Orsyn79Yvm7TNJ/A7g73PN5p2C6QCBc+Pt03aNOO3XBvE/vqlR2nciclf81muG99/tx27ebd+KWJE2f5wn+Cnn/X6/iBg3TMdjl/Tp8Nj3RXb96BuwX6fcyCch81dHYZb9y5D/mmPS/u+Vs9uAEamuTht2v/oU8tnwdWQ2PTxz1pGZM9DUPaH7tPPf3DTpy91NbeoZy7B2rkXgWpe0PjiXMXI+IX/zbF095szyNdDVuvJk/1Dkg/drqx+aPSlV44kbsHkXtHB3l9knroiH9E3M+TZnzX15EuBSgennvmLVn1/NUblrUoXUHGGCj30YEgCK9z8uYtXvnTxBkgLIdf5kEPMFdgVPyz7FcM0+/QLWTBV27c8Q6KHOqbDQS0Dw8roXELMp+/ZBhG6cFXBpL7b5P+mOa1bM3G0xcvp6Qe8AoIH8TeQjv//XPKnLDYO/cfsZa+HTqw3Cd6+K3bugNS7LWbk+HpB34yiH0bP8Nn667UT59bla4gYwyU+ygA0ufWtvaM46f/mOo1WL/8AwfcPyZ7ztl78Agk70onelFUUrZoVdLPk2YOV5cmjpvunbwnrb6hSenBVwaQO/wVeugTHAVJ8YSZZLhjcAPa/3HC9G279n2ob+hzyGhguf8+xcM3NDowat6vk2cN+tf43e+TQ2IX5Be9wz1axyYo91GAKEl5BcVLEtdD9tqfAiBFBX388xeICSoDjrcP0faO736bDM6KW7TifVW10om/A7648+DxNJ9ASIQdPmsP6KetP+RE/1AX3b3q8xrhh/8dNzU0dkFuQZHDWNEAcrfHf/6cAvH917/CMUr3vvZwwCCvK/tsFgJ+Di1Hzl+S+fwF35dDB5Y7fHv2vnX/xN4x0jfHbjgGOayfXtkDrs5jTujVW3eNFK30BhlLoNxHATzPX799zyswoj+Tgh1+n+o5ycNvymz/ad4B4FynMXW2P5mt+JfHf3uYpWeAO7wCwvMKipRO9MD+JHHwyIlf+knboZ+//jVrsqdhhm/QTEMIKMbDP9Sz/4ADZs0JnekXDB2D/PqniTMcGrQHdGmyh+HWvYcOM3mcyh1+aA9oAf4K963fp3iOn+EDTydwRjgvdLJ3zLD1B77S8TO8f5o4vWeDDgFXeuLMhT5nHw4sd4juvkHAX3+aMP3PabPt/5TTybfXu2/B8POp3gHwzwf/6PBPb/9g74AzwmFHT51r7etFBaJ7UO6jAMi89mcc+2XyzD6nT/wwbqqHf9j6bTtPn798/c490Nyjp88fP8seIB5mZoEiz1y4krhh23TIvnu1CQG5Iaj5+cvXvadyS5JUUFyyfN0mSKX7NAtIZ3FiEnQHPp6TX1hUUlpcWlZcUt5PwH8qKyh+9+pN7sPMZxnHz4TPXfTD+KkObUKAreBulHrwSGPT315gOpU7BPwc/is4GkQcEb8oaeuOtMPHL1y5Ad/V65y8t3mFDvEmtyD71VvoD9xW96Ufjfz6GrZ3QMvwPWxO2dvyubX3+2encrcHmcU4eRYIPWbB8uQ9B06cvXjz7oNn2fCV5Dt07DVZtvYSHpvgn2/Dtp1wX7T9Kzg2CAFnhJvE3oOHP35qUXqDjCVQ7iMdMOmHuvqkrSl95mjwEzDC4RNn31dWQzZN0TTkj5DYDhxwhMlkbm/vLCopS9qSAtmiQ7MQIHfIW+8/ftr7VSHI9MGTZ0SmvboEf/154oyo+UsePnnW0dnF84L6mXikgoLF8vHT55PnLs3wDf7PH46PFP8iA+gzVq7fArcK5TM2nModniRA62DYdVt2XLx6E4xZUVXd1PwRegjfBnzD0ElSwaVnyLIgCNAf+EobmpqfZGUnbtz2x1Sv3o62n3HZmg3lFZXQE6VPX3Eqd+jbuOmzI+YtTkk9eOPO/dyCotq6+s+tbbTJBE9sSkGBHr2C3nI8ZzYzbe0d7yur4A4aEDnXoU17QMfGTffetGNPfaPjWwpkLIByH+nwglBQ9G7xqqT//NnH20LIcMGk70rLlaNdhOP4KzfuzDKE9B7wAbnDbePa7XuUyaQc/RWw3uXrtz3mhPX1qYkTZvpCqutOtlj0rnRJ4noyKbDX9f44YXrsouWvcvJAdd0MLPcfxk+D9HZT8u6bdx6Uva/sXchFDXAPeJr90hAW++9+RsbmLl75+m0efJ/KB74ysNx/nDDNP2LugSMnoPG6hkarVdXCsZ7AbWBPWoZ9arxDwFcBDzrL122u+aAs4ELGFCj3kQ74Ivvlm9iFy8GkDsMy8Nv7xzQvSOrr6huVo10ENA3P+JHzF/ceYAFNT/Y0nL18rXdVFsjHIbmeNMuv5/H2+McvE6b7BpF8343p1Z9aPqcfP/XntNkOQoQeQj8Do+ZlZr0g6exXBpA7/PXXvzzg1lhYXGJLhEmSro0P9Q1LVq8ng2O97h8QYXMXPszMgnuAcvRXBpY7XOOWnXvheuESoG/KZ1wB7gdw7aFxCeT/Hn3dC+GuA48pytHIWALlPtKB3967D5+ExMzvnSaDL8C/kCYPMGFxYARBfJ2TN3/ZangCcFADND5xlt+RU2dbWtuUo7/C8fyho6fI29Qex9vjHz+P9woILyh+pxyqCTPDwBMDPAHA00PPxqGH8CXAc8adB49Vyv1fv8L9b/b6rSnuZ68tLa279h+a5OHX5zoDQ1jMlZt3er9THUDu8O3BN5x66Ii2hwk7cHvOhwe7xKTecoeAHwZHzy8pe68cjYwlUO4jHdZiuXjtpncwWSvk8KsLvpjqHQD+bW1rV452EVEUQQ1LV2/4sdckS2h8/AwfuHM0fXRcfgkK25WW/n2vYSKIf/w8wSc4qrSsQjlUE1aOg/sZiM9B7vYYN9378vXbPTPwgeVuX6Hqvtw7OjvheWWmIaS3piHg58fPXjCZHTU9cOZuX6HqjtzhX7Ciqmb1xu19DknBSeHUhe9KlKORsQTKfaTDMMyx0+en+QT8+4+//d7af3Wn+wadPHexrUPjXDdQw7uy94kbtv44oQ+5gxaT96Z9+PuYD6TMcLotO1O//4Ok0j0/Yv+Uf0RceUWlcrQmIBt9lJkF4ustdzjjTxOmnzp/CYSuHK1C7usHQ+5dRgrusvBcMoCmKdrx/YQTufdTz109kiTVNzZtTN7d5/t2eJCa6RdcUOTWgxQySkG5j3TMZiYt4/j4mT4Ov7cQ4IsZfsFnL16FpFI52kVADZD3bdi+E4zpoAb46+9TPEGLVTW1ZPOIr8BHGpqa123Z8f3vfaSKEKGxC9wc5IX7x7PsV5M9DX3K/YdxUw+fOMv2GN0eHrkbKfrqrbveQX1r+vepnsl70oxGx+rzwyD3puaPm3fs7U/uM/yC4OFMORoZS6DcRzrwm7/nwGFwh8PvLQT4YqYh5MLVG5293nmqhOR9DY17DpDiX39M9Ro3bXZ3wF+nzA7YsH0X2L/nO0hRlGo+1K/euO3ffY0DgGKiEpZWVtcqR2vlxZucv7zm9Cf3Q0dPmsz/qzAzPHKHrPzmvYc+wVH/7EvTv0yeuSVlL2T3ytFfGQ65N4Hc93yPckf+Dsp9pAO/+bv2p//2l4fD7y2EfX35lZu3eztFJZAjw2efv3xz8MgJsMy+9B5x6OjBoyfvPHzc0vq3ylOiKFbVfFi1fmvvYRn4q70YYXXtB+VorbzJzZ/mHdin3P87buqBwyco+n9L6odH7vAPcffhE7/QmH/+0oemf544Y2Py7i6jUTn6Kyh35FuBch/p0CZTyr6DkBg6/N5CgGU8/cNu3LlPuVE8BOxg5ciiGJPZ7BDwQ4vF6lCs3P4Gb2XS5j7l/vOkmYsTk+oaNE7N7CavsNjDP6y3reAnIPf96ceIRr++Ux0eucO38SgzyxAW2+dr3h8nTIezdHah3JGRAsp9pANyT96T1me5FbCMV0D47fuP6F7v8YYOMGl5ZdXydZu+t6m2Z3/gr79MnrVw5dqC4pL2js629g5tAZ99kpXtGRDWs3F72OWeeuhIR2dX92zI4ZE7w7CZz1/4R8ztU+7Qq7VbklHuyMgB5T7SAblv27Xvx/HTHH5vIcAys4MiwGvu2MFVBEEoLa9YtmZDb7lD/DB+Gtxv1m7eviP1wI69adoiJfXA0jUbxs/o4x2yXe57DmTAPWCY5c6ylucv3wRGzutT7t//8dfqjdt6L/hCuSPfCpT7SAey8i07U8FoDr+3EGAZn+DIx0+fm3vtXzF0gNzflZYvSVwPHehtE3DcTxOmj5s+e+Is3wkzfbTELB/47B9Tvfq8ZLvcd+1P/9zaNsxyt1itr97mBUXH9yn3736fvHL9FpQ7MnJAuY90KNq0CX51+yppApbxDYl+mv2SHcat7nlBKHpXumjVun/3MxUS4rvfiIVtf2oL8lmHNu0B/wnknrLvYM8tAIdH7laOy8kvDIlN6FPu//x14vK1G3vPSUW5I98KlPtIh6LpDdt39f69hQDL+IXGZL9+Y+lnj7ehgOeFguJ3C1euHUDuQxc2uU9J3pvW/KllmOXO8XxBcUlo3II+5f6PnycsXb2hvQPljowUUO4jHZB70tadICmH31sIsIwhLPbV21yrlVOOHnp4ns8rLE5YvqbPee5DHXa5b9+9v7H5Y3cFguGROzyyFJeWhc9b2I/cxy9JTGrrtS0Gyh35VqDcRzoUBXJP6VMNYJk54bGvc/Ks3LDKPbegyKnc4T8NfhBZT/zPn1O27drX2NQsScMt93el5eFz+5X7YpQ7MpJAuY90yLDMtp29f28hwDJ+YTEvXuf0rjQ7dIDcQRYLVqwdQO7f//HXEAU0/sP4aTv2pjU1fxrmYRm48MLikrB+h2XGL1m9HodlkJEDyn2kQ16oJu/+vlfVMAiwjG9I9LMXr9wpnu4qkMAW9v9CFfz7y6SZk2xbgE7xGvz4y2uOV0D4qfOXQZrD/0I1d8AXqsvwhSoykkC5j3TIVMiUvX1uYw2W8QmOevws28wM32wZgQw9ly8mUyEdTQp//WnC9MCoeYeOnbx8/fala7eGIm7ceVBRVQPdUDo0XHK3WK2vc/KC+5sK+duklUk4FRIZQaDcRzr2RUw/9LOIyTso8v6Tp6ZeZcSHDrKIqez90tV9LGKCv/4yeRYksLV19SAdURCFIQgAGld6Y2N45A6PR9mv3jpZxNSFckdGCij3kQ7IffuetB/72cPaKzDizoPHcIxy9NADei2vqFy+dmOfcv9p4oyFK9eC3JWjh4XhkTvDsE+fv/SPiOtT7v8dN2Xt5uROlDsyYkC5j3Rokzkl9cDPk/qsLTPRMyDs5t0HbhYO6zRSNR/qq2o/VPcI21/rGps/OqyQshUOq16RtLlPucMTRtyiFfBZ5ehhYXjkTgqHPc0yhPddOAwufP3WFKwtg4wcUO4jHZD7rv2Hfv1rlsPvLQQp+esfevXmHTdK/pI9824/eBydsCw4Zn5I7IIekRA+dxFosbS8QnlxacNW8re2z5K/EP/586+I+MWV1TXK0cPC8MgdFHzvUWZ/JX/hkWVj8q4ulDsyYkC5j3RMZvOeAxm/T+l7s45ZhpCL1272Hg1QiSzLRiOVceIMJJ7/99O4f/wy4R8/K/H/fhr//R9/hc1dmJNf1D0vBQC5gyhXb9zWp9y/+31SUHT8+8oq5WitwBlBW2R8vS/gPynH2RgeuVMm0617D31D+tmsY9LMzSl7cLMOZOSAch/pgNz3ZxwbN93b4fcWAnxBttm7pH2bPXBoe0fXoWOnwE3/+rsawBSQjc5fllhUUtpT7mCT+samtVuSQf29bfLPXyYYQmPK3ru1hypgpOi3efl3Hz6+ee+hQ9y+/wgeJljW0t2p4ZE7dOna7XveQZF9avr3KR7bd+/7NtvsodyRvkC5j3TMDHPk5Nkps/3//btj7TDwxXTfoFPnL2neIBus/bm1DW4eP0+a4aAG+Kt96kvp+4oeblc+QmqZ9RpzhwCbeAdFFJeWK0drpbq2bmPyLv/Iud7BUT4h3RHtHRxpCIs9ff5yV5ex+5YzPHKHrPzS9VtegX1vkD1hpg88YPV++YFyR74VKPeRDqSo569cBzvY12f2DPDFNJ/AY6fPt7a1K0e7iCTJzZ8+gZV+ntiH3H+b4rFuyw6yh2oPuQPwMLFz36Hv/+wjcwebeAaE5xcVK4dq5V1pecS8RT9NnA5X/Z8//xdwih8nTEs/dsrcY/anU7lvGAy5d3R2nTp/eZYhpE9Nw132yMlzvTWNcke+FSj3kY7Far19/1FQ1Lw+5f6X15wDR060fP7bNqfqATU0NDWlpB78qZfcofE/pnpt3bmv9oPjvEaO4+CkP06c3qdNPOaEvnyT67A5n6sUFL2bEx5rH/npGdCrH8ZPO3nuovpFTH9A5r41pdZtube0tu49eBi+cIfxK3v4hkRfvHaT6bWaDOWOfCtQ7iMdMOmz7FfRCct6yx1+mcdN9960Y099Y5NytIuAGqpqPkALkCP30uJEaByS+oamZuXor/C8cPzshT53SvrHLxOm+wTC3cjN/UNy8gr62UN1MtxyQKM9XwMMJHfb88eyNRuLS8qsVs6dW05dQ+PK9Vugtd69ggiJTbj3KLN37WWUO/KtQLmPdMCkeQVFC1eu/c8fjr+98NcfJ0yPW7Si7H3Fl7+PnKgE8t9Xb3PnLU38YdxURy3+OnHCTN/0Y6c+tXxWjv4KfOritVszDSF9PkxMmOmTevBIU/Mn5WjX4Xj+YWYW5Mi9Jx3CGad6B968+0Cl3OGv/x03daZfcNKWlBt3H9R8qAP/iqLY8+NqgFssfFGBkX08P9kjdtHyF2/ewmHKB76Ccke+FSj3kQ6YqKq6dvWm7X3+9kLAb++Zi1d7bjunns6uruNnLszwDe7trH/+OnGSh+HkuUu9y9iCTO8+fBIQOa9Pmf48cUbswuVv8wrAO8oHXKS+qXnvwcO/T/V0ECI0/p8/p/gERz148kyl3LsDMm7/iLnrt+08d+na2/yCj59abPNtVH1jJjOTk1+0OWXv+OnevR39ne3PxYlJxaVlPQeL7KDckW8Fyn2kAwJq7+jck9bHO08I+MlPE6eHxCYcOHIChJuZlZ318vWL128HjuzXb569ePUw89mJcxejEpb2t/s25M4Xr93sMjouzBElCdy9aOU6SIp7dwnuE5M8/LbuTH3w5Omb3Py8wqLC4pLCd6XOo7gkJ78w68Xrg0dP+ofH/TB+mkPj8Ncfxk8NjVuQ9eKVq3KHgI5Bm1O9A+AxKPXQkXOXr9++/yjz+YuXb3Ohn29zC958Ddv/zn/5Jsf2LWWdvXRtxbpNkz3nwK3FoU0IkDv8fMP2nU0fP/a+n6HckW8Fyn0UwHE8SHa6b1B/YwIg2V//mjVxlu9Mv2DfkCgwo3/EQDEnPHZ2UARo7o9pXqBLh9bsAXKHA+48eMz0Gj0HsTZ/aoHkus/7DQT0E/rj4R8aNndh3OIVC5avWbhy3cABtwo4LDphqW9I9ISZPnBFDm1CwLl+nDA9fukquLX0TLlVyt2+O6td8b9Mngm5PJwIOhkUHR8+b1FE/OKIeV8jfjH8BH7uHRQxZbb/H1O94Lz9ffkQ46Z7Zxw/zfS1ky3KHflWoNxHAaIovsrJi1+a2GemDAE/tMf3tiwSDvthwIAD7Emo/VM9m+oO+LlPcNSbnDxR7GN0hef567fvQYbu8KnugI//50+iUXiw+GXSTJAp+XOAmDzz50kzwaHdHevZmj3Aj3Bk0taU8oq/rYAdWO4gZXvB5O7/BP8DAlqDP+2u/3FCHwG3PXuD9rB/1iHg53BMSMz8B4+fwneidKgHKHfkW4FyHwVAptzY/BEyZUiH+7NMd3z3VV4Dh8OnHAIO+O2vWcvWbBigBNjbvMKYBct/mtDHhMju6D6d+nBooWeAH8fP8D594YpDfa4B5A5/BU1PmT1n4iw/uM30/E/d0X3q3uFwZO+AY+CGBPeb95VVfd4FUe7ItwLlPjqwclzm8xehcQtAVWqk42aAiWYZQk5fvNLef2GDtvYO8Ox0n8B/D31/IOCq4YEDDP6aPEyISidsDCD3f/026fcpnvHLEtMyji1bs3HCTJ8BRlc0BDxnePiHXr5x22xm+nw9i3JHvhUo91HD59a2k+cuzfQLdvgFHvQAR8AjwvK1G0vK33N9DTXYkWS5srp24/Zdf07z6tNcgxvQq6neARknzvResTWQ3H+daC8/UFxanltQlJJ60CckCozc24MaAhoZN917x94DAyx/Rbkj3wqU+6gBEsO6+oYde9MgWYb0cyh8CnaAZn+ZNHPu4pUPnjzrvd7SAYvFmpNfuGztxj9sfh8UY/YOe7OTPfw2Ju+qrK4BnSmn/8qAcv9f+QH4YH1j09lL12IXLocfwpGaO2z/7PgZPqvWbykq6WMGZDcod+RbgXIfTfCCUFFVs/fg4YDIueOmz/7Pn3/985cJtpgI7rDFpH+BoNUHHP/rxH9C2Br577ipkB0vXpV058FjI02rmQRuZpiXb3LXbU728A/9bYrHv38j02xIKP2Z6HhGNWH7IPQH2oH/8evkWb4h0dt37y98Vwq3E+XEPXAq9+7CYaDCLiP14vXbdZt3zDKE/DhhutLJX/83zt477N+SrUvk0uAn8GQDvt6wfVdeYXGfXeoG5H75+m3PgHDwLGnKFrY2SYMTZvqmHjpCuyf3xqaPm5J3w8XCd959CvtZ/u+ncZAK5Be6W+oHGY2g3EcZkCS2fG59lJm1OWVPcHT8dN+gKV7+kzwME2b6gMV+n+L5GwkPZ6Ec8/tUz3HTvSfO8p3sNQeaCp+36Mipc2XvK01mc58jyL2Bw1iLpbr2A+SnK9Zt9g2OmuYT+JfXnEkefuNneP8x1Utdf3qGJ3wKPgst/OXl7zEndOnqDbfvP2r+1MJxXJ99Ui93OxartfZD/clzF+MWLZ/uEwTngu/t1788+pzSA7cW+K9/Tp89Ab4lT8PU2QHeQZHwsHLlxp0P9Y1Wq+OSVAcoir5+5z7cjKEp+9X978+/POAGc+jYKXe2wAW5N3/8tGPvAfjS4BL+/m17/jRxBtwX4aaoHI2MJVDuoxJ4kK9vaCwqKX3xJge8dun6raOnzu05kLE5ZS+IbP3WFFWxLWXrrtT96cdOX7h8897D5y/fFJeWfW5tG2CQoT9EUezsMoLiIZPNevEaXHzu8rX0Y6dSUg9uTN7tSpd2QjoMqko/fvrC1Rv3Hz99nZNXWV1LwWNE/zcbV+UOgBNb29pLyt/fe5QJ/dy6c++aTdtB2UsSk/4Wq9evTNoCeXHqocPHz164evPuo6fP3+YVVNXUwvVCI0pz/cOylryCov0Zx9Zt2eFwsUlbU1JSDzx+9hxuNsrRrgNfC/QEvvAN23ZBg38/xc61m5Ph/xXwfxXlaGQsgXIf3cDvttVqNVL059b2hsZm0GtldU1FlaqAI0F5Tc2f2js7GZZVoyo1QDssy3Z2dX1q+VzX0AgerFDdJTiysgay6gb4rNFIwaUpjQ6IBrl3Y7FY4Vw1tXXllVXvyt4Xl5T9LUrLS8uhXx8am5rb2ttpk6nPyewDIIqSkaLgiiqqqv92pbaAXrW1d7j5zUOXWlrbbP/uvU9RXVtXDzcY5VBkLIFy1wmQ14LotaI0MpgoLWtHaUcF7sgdUM6nAuUDrqN8vk+UQ9wCGlFa6wvlIGSMgXJHRj1uyh1BdAnKHRn1oNwRpDcod2TUg3JHkN6g3JFRD8odQXqDckdGPSh3BOkNyh0Z9aDcEaQ3KHdk1ANyt237N/efv0z4fz+N+8fP47vj/37885fJs9ZtTq7uv3YxgugSlDsy6hFF8XVO3obtO8PmLgyNTQiNWxAaa4u4BcEx8+cuXnnk1Nmmj9o37EaQ0QjKHRn1yLJsZphPnz/XNzbVNzQ6RGNTc3tHp6srSxFktINyRxAE0SEodwRBEB2CckcQBNEhKHcEQRAdgnJHEATRISh3BEEQHYJyRxAE0SEodwRBEB2CckcQBNEhKHcEQRAdgnJHEATRISh3BEEQHYJyRxAE0SEodwRBEB2CckcQBNEhKHcEQRAdgnJHEATRISh3BEEQHYJyRxAE0SEodwRBEB2CckcQBNEhKHcEQRAdgnJHEATRISh3BEEQHYJyRxAE0SEodwRBEB2CckcQBNEhKHcEQRAdgnJHEATRISh3BEEQHYJyRxAE0SEodwRBEB2CckcQBNEhKHcEQRAdgnJHEATRISh3BEEQHYJyRxAE0SEodwRBEB2CckcQBNEhKHcEQRAdgnJHEATRISh3BEEQHYJyRxAE0SEodwRBEB2CckcQBNEhKHcEQRAdgnJHEATRISh3BEEQHYJyRxAE0SEodwRBEB2CckcQBNEhKHcEQRAdgnJHEATRISh3BEEQHYJyRxAE0SEodwRBEB2CckcQBNEhKHcEQRAdgnJHEATRISh3BEEQHYJyRxAE0SEodwRBEB2CckcQBNEhKHcEQRAdgnJHEATRHV++/P//tYr4Mle1BQAAAABJRU5ErkJggg==;" parent="1" vertex="1">
          <mxGeometry x="590" y="464" width="132.98" height="100" as="geometry" />
        </mxCell>
        <mxCell id="tHJEwBymKxjTPnQwL3kc-10" value="" style="sketch=0;aspect=fixed;html=1;points=[];align=center;image;fontSize=12;image=img/lib/mscae/ClassicStorage.svg;" parent="1" vertex="1">
          <mxGeometry x="510" y="470" width="58.14" height="50" as="geometry" />
        </mxCell>
        <mxCell id="tHJEwBymKxjTPnQwL3kc-11" value="&lt;font style=&quot;font-size: 24px;&quot;&gt;LVM&lt;/font&gt;" style="text;html=1;resizable=0;autosize=1;align=center;verticalAlign=middle;points=[];fillColor=none;strokeColor=none;rounded=0;fontFamily=Lucida Console;" parent="1" vertex="1">
          <mxGeometry x="504.07" y="520" width="70" height="40" as="geometry" />
        </mxCell>
        <mxCell id="tHJEwBymKxjTPnQwL3kc-12" value="" style="sketch=0;aspect=fixed;html=1;points=[];align=center;image;fontSize=12;image=img/lib/mscae/General_Storage.svg;fontFamily=Lucida Console;" parent="1" vertex="1">
          <mxGeometry x="733.2" y="470" width="50" height="50" as="geometry" />
        </mxCell>
        <mxCell id="tHJEwBymKxjTPnQwL3kc-13" value="Others" style="text;html=1;resizable=0;autosize=1;align=center;verticalAlign=middle;points=[];fillColor=none;strokeColor=none;rounded=0;fontFamily=Lucida Console;fontSize=24;" parent="1" vertex="1">
          <mxGeometry x="760" y="530" width="110" height="40" as="geometry" />
        </mxCell>
        <mxCell id="tHJEwBymKxjTPnQwL3kc-14" value="" style="sketch=0;aspect=fixed;html=1;points=[];align=center;image;fontSize=12;image=img/lib/mscae/General_Storage.svg;fontFamily=Lucida Console;" parent="1" vertex="1">
          <mxGeometry x="800" y="470" width="50" height="50" as="geometry" />
        </mxCell>
        <mxCell id="tHJEwBymKxjTPnQwL3kc-15" value="" style="sketch=0;aspect=fixed;html=1;points=[];align=center;image;fontSize=12;image=img/lib/mscae/General_Storage.svg;fontFamily=Lucida Console;" parent="1" vertex="1">
          <mxGeometry x="860" y="470" width="50" height="50" as="geometry" />
        </mxCell>
        <mxCell id="tHJEwBymKxjTPnQwL3kc-16" value="" style="rounded=0;whiteSpace=wrap;html=1;fontFamily=Lucida Console;fontSize=24;fillColor=#E6FFDE;" parent="1" vertex="1">
          <mxGeometry x="90" y="270" width="170" height="150" as="geometry" />
        </mxCell>
        <mxCell id="tHJEwBymKxjTPnQwL3kc-17" value="Pod" style="ellipse;whiteSpace=wrap;html=1;fontFamily=Lucida Console;fontSize=24;fillColor=#DAFFCF;" parent="1" vertex="1">
          <mxGeometry x="99" y="275" width="80" height="60" as="geometry" />
        </mxCell>
        <mxCell id="tHJEwBymKxjTPnQwL3kc-18" value="&lt;font style=&quot;font-size: 12px;&quot;&gt;/dev/xxx&lt;/font&gt;" style="strokeWidth=2;html=1;shape=mxgraph.flowchart.database;whiteSpace=wrap;fontFamily=Lucida Console;fontSize=24;fillColor=#99FF9C;" parent="1" vertex="1">
          <mxGeometry x="180" y="387" width="72" height="30" as="geometry" />
        </mxCell>
        <mxCell id="tHJEwBymKxjTPnQwL3kc-22" value="" style="shape=flexArrow;endArrow=classic;startArrow=classic;html=1;rounded=0;fontFamily=Lucida Console;fontSize=12;exitX=0;exitY=0.5;exitDx=0;exitDy=0;entryX=1;entryY=0.5;entryDx=0;entryDy=0;entryPerimeter=0;" parent="1" source="tHJEwBymKxjTPnQwL3kc-19" target="tHJEwBymKxjTPnQwL3kc-18" edge="1">
          <mxGeometry width="100" height="100" relative="1" as="geometry">
            <mxPoint x="350" y="500" as="sourcePoint" />
            <mxPoint x="450" y="400" as="targetPoint" />
          </mxGeometry>
        </mxCell>
        <mxCell id="tHJEwBymKxjTPnQwL3kc-24" value="cinder-metal-csi&lt;br&gt;plugin" style="rounded=0;whiteSpace=wrap;html=1;fontFamily=Lucida Console;fontSize=12;fillColor=#F4FFF2;" parent="1" vertex="1">
          <mxGeometry x="150" y="220" width="190" height="30" as="geometry" />
        </mxCell>
        <mxCell id="tHJEwBymKxjTPnQwL3kc-25" value="" style="endArrow=classic;html=1;rounded=0;fontFamily=Lucida Console;fontSize=12;entryX=0;entryY=0.5;entryDx=0;entryDy=0;exitX=1;exitY=0.75;exitDx=0;exitDy=0;" parent="1" source="tHJEwBymKxjTPnQwL3kc-24" target="tHJEwBymKxjTPnQwL3kc-5" edge="1">
          <mxGeometry width="50" height="50" relative="1" as="geometry">
            <mxPoint x="380" y="460" as="sourcePoint" />
            <mxPoint x="430" y="410" as="targetPoint" />
          </mxGeometry>
        </mxCell>
        <mxCell id="tHJEwBymKxjTPnQwL3kc-26" value="" style="endArrow=classic;html=1;rounded=0;fontFamily=Lucida Console;fontSize=12;entryX=0;entryY=0.5;entryDx=0;entryDy=0;exitX=1;exitY=0.75;exitDx=0;exitDy=0;" parent="1" source="tHJEwBymKxjTPnQwL3kc-6" target="tHJEwBymKxjTPnQwL3kc-24" edge="1">
          <mxGeometry width="50" height="50" relative="1" as="geometry">
            <mxPoint x="380" y="460" as="sourcePoint" />
            <mxPoint x="430" y="410" as="targetPoint" />
          </mxGeometry>
        </mxCell>
        <mxCell id="tHJEwBymKxjTPnQwL3kc-27" value="" style="shape=flexArrow;endArrow=classic;html=1;rounded=0;fontFamily=Lucida Console;fontSize=12;exitX=0.5;exitY=1;exitDx=0;exitDy=0;entryX=0.5;entryY=0;entryDx=0;entryDy=0;" parent="1" source="tHJEwBymKxjTPnQwL3kc-5" target="tHJEwBymKxjTPnQwL3kc-19" edge="1">
          <mxGeometry width="50" height="50" relative="1" as="geometry">
            <mxPoint x="440" y="430" as="sourcePoint" />
            <mxPoint x="590" y="400" as="targetPoint" />
          </mxGeometry>
        </mxCell>
        <mxCell id="tHJEwBymKxjTPnQwL3kc-28" value="grpc" style="text;html=1;resizable=0;autosize=1;align=center;verticalAlign=middle;points=[];fillColor=none;strokeColor=none;rounded=0;fontFamily=Lucida Console;fontSize=12;" parent="1" vertex="1">
          <mxGeometry x="99" y="200" width="50" height="30" as="geometry" />
        </mxCell>
        <mxCell id="tHJEwBymKxjTPnQwL3kc-29" value="Node" style="text;html=1;strokeColor=none;fillColor=none;align=center;verticalAlign=middle;whiteSpace=wrap;rounded=0;fontFamily=Lucida Console;fontSize=12;" parent="1" vertex="1">
          <mxGeometry x="192" y="280" width="60" height="30" as="geometry" />
        </mxCell>
        <mxCell id="tHJEwBymKxjTPnQwL3kc-30" value="&lt;div style=&quot;color: rgb(51, 51, 51); background-color: rgb(245, 245, 245); font-family: Consolas, &amp;quot;Courier New&amp;quot;, monospace; font-size: 14px; line-height: 19px;&quot;&gt;&lt;span style=&quot;color: #448c27;&quot;&gt;gophercloud(restful API)&lt;/span&gt;&lt;/div&gt;" style="text;html=1;align=center;verticalAlign=middle;resizable=0;points=[];autosize=1;strokeColor=none;fillColor=none;fontSize=12;fontFamily=Lucida Console;" parent="1" vertex="1">
          <mxGeometry x="410" y="270" width="210" height="30" as="geometry" />
        </mxCell>
        <mxCell id="tHJEwBymKxjTPnQwL3kc-31" value="Mkfs&amp;amp;Mount" style="text;html=1;strokeColor=none;fillColor=none;align=center;verticalAlign=middle;whiteSpace=wrap;rounded=0;labelBackgroundColor=none;fontFamily=Lucida Console;fontSize=12;fontColor=none;rotation=35;" parent="1" vertex="1">
          <mxGeometry x="156" y="344" width="80" height="30" as="geometry" />
        </mxCell>
        <mxCell id="tHJEwBymKxjTPnQwL3kc-33" value="Map to host node" style="text;html=1;strokeColor=none;fillColor=none;align=center;verticalAlign=middle;whiteSpace=wrap;rounded=0;labelBackgroundColor=none;fontFamily=Lucida Console;fontSize=12;fontColor=none;rotation=30;" parent="1" vertex="1">
          <mxGeometry x="316" y="440" width="130" height="30" as="geometry" />
        </mxCell>
        <mxCell id="tHJEwBymKxjTPnQwL3kc-35" value="k8s cluster" style="text;html=1;strokeColor=none;fillColor=none;align=center;verticalAlign=middle;whiteSpace=wrap;rounded=0;labelBackgroundColor=none;fontFamily=Lucida Console;fontSize=12;fontColor=none;" parent="1" vertex="1">
          <mxGeometry x="149" y="150" width="110" height="30" as="geometry" />
        </mxCell>
        <mxCell id="tHJEwBymKxjTPnQwL3kc-37" value="" style="shape=flexArrow;endArrow=classic;startArrow=classic;html=1;rounded=0;fontFamily=Lucida Console;fontSize=12;fontColor=none;entryX=0.5;entryY=1;entryDx=0;entryDy=0;" parent="1" target="tHJEwBymKxjTPnQwL3kc-17" edge="1">
          <mxGeometry width="100" height="100" relative="1" as="geometry">
            <mxPoint x="210" y="390" as="sourcePoint" />
            <mxPoint x="434" y="414" as="targetPoint" />
          </mxGeometry>
        </mxCell>
        <mxCell id="Ze7vVeaUs0xb_e6l4rN9-2" value="openstack cluster" style="text;html=1;strokeColor=none;fillColor=none;align=center;verticalAlign=middle;whiteSpace=wrap;rounded=0;fontFamily=Lucida Console;" vertex="1" parent="1">
          <mxGeometry x="790" y="267" width="110" height="30" as="geometry" />
        </mxCell>
      </root>
    </mxGraphModel>
  </diagram>
</mxfile>
